<svg width="1001" height="974" viewBox="0 0 1001 974" fill="none" xmlns="http://www.w3.org/2000/svg">
<path fill-rule="evenodd" clip-rule="evenodd" d="M901.609 662.754C899.482 661.515 897.417 659.194 895.409 656.938C893.454 654.741 891.553 652.605 889.705 651.593C887.776 650.54 885.001 649.976 882.066 649.379C878.568 648.669 874.844 647.911 872.05 646.226C867.022 643.198 864.587 638.205 862.124 633.153C860.53 629.882 858.923 626.587 856.594 623.785C839.269 602.947 831.79 592.846 817.618 570.199C815.744 567.208 812.002 563.545 808.817 560.428L808.816 560.427C807.797 559.43 806.835 558.488 806.01 557.643L809.315 572.735C819.604 588.99 829.245 606.083 838.467 622.436L838.468 622.437L839.635 624.506C844.358 632.914 849.72 641.248 854.951 649.378L855.512 650.25L853.452 652.549L847.482 649.386L850.615 659.534C847.624 658.655 845.111 656.228 842.723 653.921C840.992 652.248 839.327 650.64 837.593 649.73C836.464 649.131 835.255 649.123 834.116 649.115C832.9 649.106 831.763 649.098 830.888 648.371C825.162 643.616 815.251 623.434 807.978 608.624L807.977 608.622C805.224 603.015 802.849 598.178 801.222 595.241C795.921 585.673 789.625 575.222 782.246 567.19C783.268 573.807 786.774 579.673 790.256 585.498C792.108 588.597 793.954 591.684 795.415 594.867C799.606 604.001 803.127 613.711 806.634 623.382C810.098 632.934 813.549 642.449 817.617 651.333C819.968 656.464 822.867 661.416 825.772 666.376C829.661 673.018 833.56 679.676 836.164 686.803C833.767 687.262 832.594 684.547 831.464 681.935C830.769 680.327 830.091 678.758 829.154 677.991C828.338 677.332 827.276 677.021 826.134 676.688C824.714 676.273 823.173 675.823 821.832 674.621C820.733 673.633 819.786 671.612 818.774 669.452C816.357 664.292 813.566 658.335 807.442 663.76L805.729 662.852C803.854 660.559 802.016 656.554 800.218 652.637C798.366 648.604 796.558 644.664 794.798 642.787C786.7 634.157 785.953 631.918 784.412 627.299C783.576 624.793 782.507 621.586 779.903 616.278C776.952 610.256 773.077 604.074 769.244 597.959L769.243 597.958C765.912 592.644 762.613 587.381 759.98 582.317C759.004 580.442 758.319 578.081 757.599 575.601C756.076 570.352 754.397 564.567 749.473 561.702C748.001 562.096 750.889 574.464 751.34 576.121C754.846 588.568 759.55 601.664 764.261 614.782C771.127 633.896 778.008 653.057 781.226 670.323C781.417 671.363 782.004 672.274 782.594 673.189C783.202 674.132 783.813 675.081 783.996 676.179L779.955 677.406L781.371 687.531L772.176 679.245L768.695 684.226C765.063 685.471 765.124 684.244 765.198 682.751C765.233 682.051 765.271 681.293 764.932 680.703C746.334 648.063 743.553 636.406 736.057 604.985C735.38 602.146 734.664 599.145 733.894 595.953C732.474 590.059 729.854 581.202 727.612 575.647C727.399 575.113 727.265 574.562 727.136 574.025C726.767 572.498 726.427 571.088 724.36 570.534C725.221 574.72 726.28 578.887 727.339 583.055L727.34 583.059C728.339 586.989 729.337 590.919 730.171 594.866C732.531 606.029 735.124 617.272 737.724 628.542C741.216 643.678 744.719 658.866 747.685 673.98C747.787 674.501 747.904 675.046 748.025 675.61L748.025 675.612C748.804 679.245 749.737 683.603 747.761 686.718C746.967 685.225 746.541 682.609 746.106 679.935C745.58 676.702 745.04 673.385 743.82 671.865C743.166 671.048 741.869 670.903 740.425 670.741C739.012 670.583 737.459 670.409 736.235 669.574C732.35 666.935 731.725 662.274 731.126 657.806C730.833 655.622 730.546 653.483 729.887 651.65C728.738 648.444 727.265 645.321 725.783 642.177C723.622 637.592 721.44 632.963 720.207 627.971L707.339 580.196C706.67 589.555 708.466 598.7 710.259 607.831C712.291 618.18 714.32 628.511 712.752 639.112L720.058 677.978L711.322 678.446L716.387 691.346L709.482 685.139L706.958 705.919L705.555 691.922L695.6 687.622L686.925 593.668L684.256 588.375C682.439 588.997 681.716 607.01 681.002 624.796L681.001 624.798C680.407 639.613 679.818 654.27 678.609 658.584C678.012 660.707 676.986 662.432 675.92 664.222C674.526 666.565 673.064 669.02 672.408 672.628C671.609 677.025 672.299 683.125 672.888 688.339L672.888 688.34C673.049 689.767 673.203 691.128 673.316 692.369L669.032 690.918L661.638 717.628C659.887 716.484 660.525 714.613 661.048 713.079C661.332 712.247 661.582 711.515 661.399 711.052C661.208 710.58 659.664 709.215 657.75 707.523C654.86 704.968 651.126 701.667 649.932 699.568C645.826 692.428 644.431 656.584 644.524 646.749C644.565 642.717 645.086 638.52 645.614 634.273L645.615 634.271C646.616 626.213 647.641 617.974 645.446 610.338C644.269 616.719 643.396 623.254 642.52 629.814C640.19 647.269 637.836 664.898 629.654 680.246L626.42 675.141L611.22 707.045L607.831 707C605.181 703.766 607.202 686.044 608.848 671.617C609.734 663.846 610.511 657.03 610.391 653.948C610.962 651.658 613.166 576.384 611.22 574.577C595.866 593.42 607.029 531.441 607.029 531.441C610.953 514.969 583.548 513.787 569.224 510.534L569.431 503.15C569.713 494.922 557.907 478.139 556.69 493.694L565.822 511.047C552.726 513.369 556.69 531.441 537.625 538.588L524.888 550.827L468 666.077C463.175 663.674 466.978 653.965 468.574 649.887L468.623 649.763C469.924 646.414 471.68 643.3 473.408 640.236C475.075 637.281 476.716 634.371 477.897 631.341C480.066 625.753 481.852 619.999 483.638 614.241C485.549 608.085 487.46 601.926 489.842 595.962L476.622 608.947L465.619 625.655C463.979 625.097 464.534 623.397 465.018 621.919C465.154 621.502 465.284 621.103 465.358 620.752C466.446 615.478 467.957 609.741 472.471 606.326L470.548 603.556C467.445 603.971 463.229 615.094 459.078 626.043C455.634 635.13 452.234 644.098 449.554 646.728C448.981 654.726 445.121 662.312 441.445 669.539C439.252 673.85 437.123 678.033 435.797 682.1C435.434 683.216 435.534 684.383 435.634 685.554C435.767 687.102 435.9 688.655 434.968 690.104C434.84 690.305 434.502 690.284 434.028 690.254C433.015 690.19 431.382 690.088 429.868 692.033C428.825 693.367 428.297 694.95 427.77 696.531C427.288 697.977 426.807 699.422 425.932 700.674C424.265 703.034 421.37 706.598 418.191 710.512C412.051 718.07 404.852 726.933 403.394 730.95C400.332 739.322 400.327 764.34 400.851 774.059C400.927 775.628 401.515 779.663 403.012 775.625L404.628 772.869C407.452 792.683 405.575 812.464 403.697 832.263C402.767 842.071 401.836 851.884 401.476 861.708C401.308 866.242 401.618 872.544 401.936 879.033C402.404 888.566 402.892 898.503 401.916 903.827C400.909 909.336 398.792 915.443 396.693 921.497L396.692 921.499C394.996 926.392 393.312 931.25 392.235 935.73C390.44 943.17 389.532 950.688 388.619 958.243L388.488 959.325C388.427 959.83 388.366 960.335 388.304 960.839L385.926 947.678L380.49 951.579C379.078 947.218 378.12 942.544 377.676 937.987C377.658 937.794 377.7 937.153 377.76 936.229C378.057 931.706 378.799 920.395 375.156 921.538C374.438 930.798 371.601 958.149 360.869 960.042C357.975 960.558 355.648 958.742 353.206 956.837C350.818 954.973 348.319 953.023 345.073 953.089C346.396 949.38 341.789 934.151 337.203 935.445L335.633 944.807L327.761 937.245C325.736 941.778 313.906 959.334 308.495 955.912C307.833 950.012 311.26 945.404 314.739 940.725C318.18 936.099 321.673 931.403 321.316 925.319C316.156 929.034 311.031 936.446 307.455 941.731C307.037 942.347 306.614 943.471 306.149 944.705C304.927 947.949 303.423 951.944 301.001 949.393L282.959 934.092C277.441 935.025 273.675 938.431 269.949 941.802C266.803 944.648 263.685 947.468 259.564 948.754L251.95 931.046L259.569 921.52L254.522 918.623L255.144 908.958C254.211 907.685 252.631 908.729 251.044 909.776C249.111 911.053 247.17 912.335 246.382 909.435C246.712 907.885 247.248 906.207 247.804 904.471C249.325 899.714 250.986 894.52 248.91 890.319L238.568 900.174L231.412 891.263C229.99 891.754 230.31 894.482 230.724 898.017C231.408 903.86 232.35 911.909 226.121 915.718C223.981 916.649 221.773 915.957 219.656 915.295C218.297 914.869 216.975 914.455 215.734 914.491C214.351 914.531 213.178 915.39 212.139 916.15C210.796 917.134 209.679 917.952 208.623 916.618C209.031 913.967 208.42 910.018 207.862 906.416C207.415 903.53 207.002 900.868 207.176 899.274C207.593 895.351 210.953 881.441 212.136 876.616C212.998 873.086 214.253 869.638 215.512 866.183C217.129 861.743 218.75 857.291 219.545 852.64C217.199 851.946 216.239 853.349 215.229 854.827C214.976 855.197 214.72 855.571 214.439 855.918C209.985 861.433 206.046 867.484 202.112 873.526C198.984 878.33 195.859 883.13 192.48 887.653L191.56 873.957C198.869 865.455 201.433 854.981 204.023 844.399C205.098 840.01 206.177 835.601 207.601 831.307C223.584 782.953 248.533 739.218 275.45 695.994C276.051 695.031 277.078 694.331 278.072 693.652C279.263 692.84 280.407 692.059 280.721 690.897C281.293 688.792 280.286 687.078 279.382 685.538C278.813 684.571 278.285 683.672 278.215 682.788C278.081 681.153 278.792 678.898 279.505 676.636C280.277 674.186 281.052 671.728 280.759 670.041C280.637 669.347 280.145 668.784 279.546 668.099C278.627 667.048 277.455 665.708 276.98 663.162C274.347 648.942 286.567 630.477 297.959 613.263C307.945 598.173 317.296 584.044 315.449 574.577C315.392 574.291 315.74 572.462 316.282 569.613C318.984 555.413 326.507 515.875 312.73 515.84C311.496 523.267 289.633 554.935 289.34 550.924L283.853 554.798L281.946 552.081C279.748 558.808 275.701 564.131 271.72 569.366C267.507 574.907 263.369 580.349 261.579 587.252C260.365 582.716 261 577.702 261.64 572.653C262.446 566.291 263.259 559.874 260.388 554.287L246.024 574.577L233.421 585.938C236.228 576.877 239.257 565.85 240.591 556.473C241.25 551.841 240.917 547.672 240.601 543.717C240.277 539.666 239.972 535.839 240.768 531.967C242.288 524.565 245.286 516.471 248.337 508.229C252.579 496.775 256.926 485.035 257.563 474.469C257.605 473.783 257.767 473.235 257.902 472.776C258.262 471.555 258.435 470.967 255.686 470.106C252.141 478.039 249.189 486.901 246.175 495.949C238.434 519.191 230.28 543.673 210.579 556.858C204.988 560.605 201.768 560.177 200.444 560.001C200.133 559.959 199.926 559.932 199.818 559.976C199.245 560.208 198.78 560.864 198.281 561.564C197.357 562.865 196.322 564.321 194.286 563.516L210.612 526.225L203.226 527.408C203.073 520.502 205.382 515.852 208.997 510.034L205.652 509.99C206.687 507.004 207.437 503.8 208.187 500.596C209.046 496.928 209.905 493.261 211.19 489.92C214.017 482.562 217.786 474.96 221.575 467.318L221.576 467.317C225.77 458.858 229.988 450.35 232.978 442.072C234.084 439.023 235.784 433.431 231.738 431.907C226.496 441.898 221.543 452.083 216.586 462.274C202.944 490.323 189.28 518.416 169.534 542.642C168.379 544.069 167.198 545.46 165.184 544.703C166.347 542.868 166.363 540.011 166.377 537.409C166.388 535.471 166.399 533.675 166.881 532.549C167.281 531.626 168.362 530.727 169.625 529.676C171.173 528.389 172.995 526.873 174.178 524.803C180.711 513.347 182.108 502.066 183.505 490.787C184.589 482.043 185.672 473.3 189.147 464.477C191.442 458.658 194.957 452.397 198.419 446.228C200.499 442.524 202.56 438.853 204.326 435.332C205.699 432.592 207.206 429.919 208.709 427.255C213.092 419.485 217.433 411.788 218.282 402.681L207.708 413.434C194.62 440.893 174.82 464.331 153.776 485.891L156.728 475.554C153.265 476.54 150.922 480.297 148.772 483.746C147.292 486.12 145.903 488.348 144.302 489.425C141.899 491.032 141.466 488.587 141.594 486.881C147.14 477.636 152.078 467.365 157.025 457.075C162.93 444.793 168.847 432.486 175.824 421.869C179.119 416.855 183.354 412.012 187.663 407.085C194.118 399.704 200.738 392.133 204.614 383.515L198.891 384.738C194.579 389.865 190.368 395.115 186.151 400.37L186.151 400.371C178.177 410.309 170.186 420.269 161.471 429.466C157.194 433.981 142.344 449.249 138.274 451.702C131.242 455.952 126.909 452.379 124.456 450.357C123.611 449.659 122.989 449.146 122.556 449.201C122.084 449.261 121.572 449.73 121.011 450.244C120.049 451.126 118.942 452.139 117.641 451.45C124.176 444.054 126.801 439.727 129.991 430.403C130.212 429.775 130.113 428.935 130.005 428.023C129.878 426.953 129.739 425.784 130.09 424.738C131.465 420.679 147.251 404.356 151.411 400.355C152.993 398.832 156.696 395.78 161.262 392.016C173.919 381.583 193.21 365.682 192.357 361.728C190.508 360.144 189.29 360.88 187.894 361.724C187.449 361.993 186.986 362.273 186.479 362.492C177.327 366.474 165.898 375.556 154.991 384.223C143.757 393.151 133.078 401.637 126.016 403.653C124.785 404.005 123.097 403.931 121.259 403.851C118.961 403.751 116.429 403.64 114.262 404.338C112.81 404.808 111.373 405.746 109.889 406.714C107.79 408.084 105.598 409.514 103.14 409.769C103.722 406.26 106.639 403.113 109.401 400.131C111.29 398.094 113.106 396.134 114.055 394.189C114.822 392.614 114.757 391.12 114.693 389.654C114.611 387.759 114.53 385.908 116.25 383.983C117.482 382.612 125.039 378.503 131.943 374.749L131.945 374.748C136.531 372.254 140.829 369.917 142.796 368.642C146.086 366.507 149.612 364.271 153.231 361.975C163.286 355.598 174.066 348.76 182.54 342.364C190.772 336.156 188.632 334.046 179.224 335.155C174.193 338.059 169.171 341.065 164.136 344.078L164.135 344.078C153.223 350.608 142.252 357.174 131.012 362.818C130.482 363.084 129.951 363.352 129.42 363.62C115.666 370.561 101.916 377.5 107.044 353.929L171.771 323.583C163.122 318.965 154.095 323.518 146.023 327.591C143.583 328.821 141.231 330.008 139.003 330.884C135.095 332.423 131.162 333.9 127.229 335.377L127.227 335.378C119.183 338.4 111.138 341.422 103.306 344.967C102.362 344.932 98.9977 345.709 95.0347 346.624C87.8624 348.28 78.7285 350.389 78.4293 348.96C77.9342 346.682 80.1048 346.068 82.4029 345.418C83.8451 345.01 85.3376 344.588 86.253 343.731C88.9196 341.238 90.4992 337.739 91.9883 334.44C93.5406 331.001 94.9944 327.78 97.4787 326.144C101.127 323.744 106.735 322.056 112.02 320.465C115.113 319.534 118.095 318.636 120.508 317.648C121.862 317.096 123.04 316.245 124.215 315.396C125.42 314.525 126.622 313.657 128.009 313.113C129.913 312.355 133.79 311.136 138.325 309.71C148.576 306.488 162.194 302.207 164.012 299.791C169.185 292.914 161.698 289.478 155.207 289.474C152.534 289.467 150.419 290.686 148.425 291.836C147.034 292.638 145.702 293.406 144.28 293.7C141.534 294.277 138.183 294.372 134.77 294.469C131.703 294.557 128.587 294.646 125.816 295.086C124.429 295.306 121.629 295.845 118.124 296.52L118.123 296.52C106.831 298.694 88.2193 302.276 85.9196 301.159C84.6727 300.543 82.6192 298.479 82.0699 297.257C80.467 293.612 83.4124 293.575 85.4612 293.549C87.0992 293.529 88.1641 293.515 85.8725 291.671L66.3112 293.162C62.4122 285.141 71.9278 282.914 79.1441 281.225C80.3074 280.953 81.411 280.694 82.389 280.428C94.7056 277.093 119.465 272.107 131.901 271.516C133.558 271.437 135.7 271.604 138.048 271.788C145.204 272.347 154.272 273.056 157.368 267.371C160.894 260.884 143.864 260.149 139.557 260.038C135.989 259.938 131.023 260.076 126.151 260.213C123.062 260.299 120.011 260.384 117.377 260.407C109.039 260.487 100.722 261.03 92.4025 261.573C83.919 262.126 75.4319 262.68 66.9168 262.744L62.1723 255.93C60.8735 255.497 58.4238 256.136 55.6947 256.848C51.3016 257.994 46.1845 259.328 43.9776 256.683C77.7695 248.704 112.45 245.363 146.471 242.892L146.198 238.514L37.5096 232.002C35.6091 231.615 34.9845 230.243 36.5742 228.957C37.396 228.285 55.0502 222.237 56.669 221.943C62.4315 220.897 78.3002 219.599 84.8037 219.078C89.1045 218.737 97.2386 219.695 105.64 220.685C116.851 222.006 128.539 223.383 132.227 221.803C132.467 221.699 132.693 221.605 132.902 221.519C134.822 220.722 135.431 220.47 134.382 217.736C132.716 214.686 125.035 213.321 120.666 212.544L120.661 212.543C120.163 212.455 119.709 212.374 119.312 212.299C97.2128 208.124 71.673 206.092 49.9538 204.378C49.3695 204.332 48.3093 204.265 46.9283 204.177C39.1536 203.684 21.2142 202.544 20.8189 201.017C22.9242 193.865 25.3846 194.456 28.9269 195.306C30.417 195.663 32.0987 196.067 34.0258 195.96C50.4249 195.047 62.4707 196.29 76.0728 197.694C81.7142 198.276 87.6237 198.886 94.2222 199.381C97.8701 199.651 101.463 199.65 105.012 199.649C109.929 199.648 114.761 199.646 119.541 200.365L123.144 193.985C117.073 188.841 109.92 188.114 102.832 187.393C99.2414 187.028 95.6675 186.665 92.2587 185.73C85.4659 183.866 78.9079 181.693 72.3332 179.515C66.7353 177.66 61.1245 175.802 55.3471 174.126C52.8551 173.4 50.3967 173.292 47.9816 173.185C45.3548 173.07 42.7793 172.956 40.2677 172.052C37.1482 170.941 34.0962 169.147 31.052 167.357C28.62 165.928 26.1928 164.501 23.7402 163.427L33.1731 161.644L5.15671 153.58C5.69385 151.98 6.48625 151.071 8.23223 150.954C8.79739 150.91 12.7388 152.385 17.2426 154.072C22.3205 155.973 28.1133 158.141 30.5884 158.701C37.2733 160.212 44.638 161.095 52.1121 161.99C59.3974 162.863 66.7866 163.749 73.7517 165.241C79.1466 166.394 85.7878 168.561 92.5386 170.763C102.104 173.883 111.889 177.076 118.662 177.559C121.268 177.744 125.07 176.966 126.616 174.594C127.534 171.312 117.253 168.07 110.56 165.96C108.398 165.278 106.61 164.714 105.695 164.306C103.248 163.214 100.915 161.878 98.5843 160.542C96.1338 159.139 93.685 157.736 91.1076 156.62C84.7857 153.866 78.3679 151.312 71.9483 148.757C57.1226 142.857 42.2873 136.953 28.6029 128.572C30.0766 126.725 31.6278 127.311 33.2217 127.913C33.6977 128.092 34.1775 128.273 34.6603 128.392C42.6816 130.36 51.9107 134.231 59.3022 138.015C61.1143 129.16 54.8757 130.968 52.2195 131.738C51.6671 131.898 51.2697 132.013 51.1318 131.979C48.807 131.347 45.9045 129.863 42.8811 128.317C39.4297 126.553 35.8202 124.707 32.7329 123.957L34.8326 119.995L121.693 154.943C121.26 150.09 117.851 148.439 114.255 146.697C112.732 145.959 111.176 145.205 109.798 144.185C106.636 141.83 103.493 139.447 100.35 137.062C86.3639 126.456 72.3624 115.837 56.655 107.713C60.1823 103.352 63.1787 104.714 66.2874 106.128C68.7299 107.239 71.2418 108.381 74.1351 106.803L60.5105 99.517L57.6779 92.9851C60.2247 94.359 62.804 95.7118 65.3918 97.069C74.6072 101.902 83.9297 106.792 92.2732 112.891C93.6948 113.928 93.5429 114.97 93.4206 115.809C93.3421 116.348 93.2757 116.803 93.6448 117.12C95.5164 118.732 117.972 133.735 119.812 134.488C120.113 134.61 120.391 134.75 120.646 134.879C121.767 135.443 122.462 135.794 122.865 133.535C124.351 125.381 121.78 123.931 117.97 121.782C116.539 120.974 114.932 120.068 113.301 118.671C111.437 117.085 104.313 110.163 103.376 108.669C102.793 107.739 102.802 106.337 102.81 105.169C102.816 104.17 102.822 103.343 102.455 103.128C102.391 103.094 102.142 103.173 101.766 103.292C100.722 103.621 98.7021 104.259 96.9771 103.638C92.9554 102.194 83.3877 94.8634 87.9452 90.3197C83.6158 89.6654 76.8104 84.0645 74.5201 80.5239C74.2447 80.0907 74.2717 79.4374 74.3014 78.7193C74.3382 77.8302 74.3791 76.8419 73.8551 76.0493C72.75 74.3982 70.6265 72.9728 68.3889 71.471C64.7159 69.0056 60.7358 66.334 60.4489 62.1193C67.1427 66.2577 73.2412 71.3553 79.2957 76.4161C80.7303 77.6152 82.1623 78.8123 83.5992 79.994C88.0322 83.6406 93.527 88.7935 99.2842 94.1926C109.162 103.456 119.812 113.443 127.197 117.791C133.461 121.487 132.992 116.85 130.746 112.181C130.062 110.758 129.225 109.832 128.527 109.06C126.933 107.298 126.06 106.332 129.365 102.074C128.834 101.742 128.236 101.384 127.602 101.003L127.601 101.002C124.638 99.2249 120.869 96.9636 119.266 94.6169C118.395 93.3429 118.315 91.9422 118.241 90.6484C118.17 89.4014 118.105 88.2538 117.342 87.4146C115.631 85.5372 112.938 84.6574 110.04 83.7106C107.313 82.8197 104.404 81.8694 101.961 79.9727C93.2996 73.25 84.6255 60.5484 76.4319 48.5505C71.6864 41.6014 67.102 34.8885 62.7747 29.7099C60.9896 27.5706 59.0012 25.7871 57.034 24.0226C53.5942 20.9372 50.219 17.9098 48.1083 13.1396L51.7755 4.75546C59.0261 11.3141 63.2988 18.8685 67.6525 26.5659C70.8999 32.3075 74.1924 38.1287 78.7993 43.6756C84.66 50.7341 93.5255 58.7668 102.365 66.7759C113.399 76.773 124.392 86.7337 129.451 94.7177C130.214 95.9165 130.572 97.1468 130.92 98.3436C131.787 101.32 132.592 104.088 139.415 105.649L145.045 95.0252L154.223 103.301C161.692 93.5698 165.624 101.997 168.739 108.674C170.163 111.725 171.416 114.411 172.758 114.83C174.358 115.323 177.668 113.133 175.969 110.526L169.394 103.695L175.05 100.886C178.322 105.961 181.92 110.757 185.517 115.551C189.219 120.487 192.921 125.421 196.263 130.654C196.625 131.223 196.761 132.026 196.923 132.986C197.162 134.401 197.459 136.155 198.621 137.998C199.55 139.466 207.874 150.104 208.565 150.515C209.385 151.013 210.402 150.821 211.363 150.64C212.406 150.443 213.383 150.259 213.968 150.984C215.012 152.273 215.807 155.598 216.692 159.299C217.862 164.193 219.189 169.743 221.457 172.107L218.506 172.562C220.95 172.936 224.823 179.734 227.969 185.254C230.621 189.909 232.756 193.655 233.079 191.872L233.621 184.492C236.77 186.537 240.667 189.932 238.792 194.014L241.422 195.407L245.485 192.507C247.827 200.674 252.37 207.736 256.908 214.79C259.05 218.12 261.19 221.448 263.098 224.889C263.822 226.189 264.241 227.691 264.674 229.24C265.109 230.799 265.558 232.406 266.345 233.901C267.317 235.735 268.807 237.292 270.139 238.685C273.239 241.927 275.485 244.276 268.37 247.141L267.09 246.463C269.592 240.53 265.424 242.494 263.64 243.334C263.268 243.51 262.999 243.636 262.917 243.631C261.971 243.568 261.044 243.308 260.119 243.049C258.242 242.523 256.372 241.999 254.362 243.131L253.792 239.438C247.972 247.25 261.6 253.904 268.467 257.257C270.566 258.282 272.034 258.998 272.12 259.345C272.185 259.599 271.778 260.203 271.292 260.922C270.698 261.803 269.986 262.857 269.881 263.655C269.817 264.143 270.132 264.83 270.506 265.646C271.321 267.426 272.418 269.82 270.478 272.105L279.815 273.639L277 278.951L281.02 279.353L279.585 283.734L284.999 281.506L288.14 291.68C292.621 287.633 292.355 290.138 292.164 291.94C292.103 292.513 292.05 293.015 292.159 293.212C292.587 293.988 293.149 294.537 293.672 295.049C295.027 296.375 296.121 297.446 293.951 301.541L300.657 301.682L301.196 307.065L303.905 305.132C303.095 306.032 306.235 314.744 306.638 315.113C307.577 315.957 308.916 316.505 310.287 317.067C311.634 317.619 313.014 318.184 314.079 319.055C314.326 319.252 315.059 320.711 316.059 322.701C318.085 326.734 321.209 332.95 323.611 335.277C324.72 336.351 326.774 336.774 329.054 337.243C332.585 337.969 336.656 338.807 338.59 342.35C337.331 349.284 320.221 345.647 326.581 342.679C328.64 344.091 329.02 343.373 329.631 342.217C329.989 341.539 330.427 340.712 331.329 340.076L325.442 338.973L318.375 348.503C324.483 351.74 331.632 350.586 337.88 348.666C339.662 352.204 341.417 355.04 345.579 357.976L342.865 363.098L337.497 363.733L343.149 365.864C342.997 366.715 340.219 366.452 337.429 366.189C333.584 365.825 329.717 365.46 332.683 368.008C333.776 368.183 334.877 368.387 335.984 368.592C340.877 369.501 345.878 370.43 350.752 368.873C354.83 367.562 357.62 364.864 360.251 362.32C362.17 360.464 364.004 358.69 366.191 357.597C367.06 357.17 383.908 352.979 384.873 352.914C386.321 352.818 387.38 353.447 388.302 353.996C389.178 354.517 389.931 354.965 390.78 354.648C391.959 354.204 392.95 353.157 393.964 352.086C394.926 351.07 395.91 350.031 397.096 349.462C398.932 348.585 401.622 347.861 404.372 347.122C407.221 346.355 410.134 345.571 412.226 344.582C412.077 342.287 410.132 342.954 408.589 343.483C408.203 343.615 407.841 343.739 407.54 343.805C402.608 344.862 397.707 346.711 392.751 348.579C385.799 351.2 378.741 353.862 371.347 354.434C371.922 352.506 373.383 351.793 374.892 351.057C375.33 350.843 375.773 350.627 376.199 350.379C396.352 338.685 410.362 336.187 427.91 333.059C433.323 332.094 439.074 331.069 445.445 329.696C450.825 328.535 456.516 321.977 450.729 323.321C450.66 323.338 450.529 323.496 450.341 323.724C449.833 324.336 448.905 325.457 447.615 325.726C446.984 325.862 446.332 326.003 445.663 326.147L445.577 326.165C439.101 327.561 431.064 329.293 425.301 330.279C422.786 330.712 420.117 330.828 417.435 330.944C414.526 331.071 411.602 331.198 408.842 331.73C410.308 330.147 411.097 328.397 411.882 326.659C412.843 324.528 413.797 322.414 415.981 320.642C417.481 319.425 419.48 318.937 421.435 318.459C423.076 318.059 424.685 317.666 425.943 316.857C427.667 315.749 429.12 314.507 430.529 313.303C434.307 310.072 437.775 307.108 445.361 307.689C441.879 304.938 437.472 306.531 433.147 308.094C430.486 309.055 427.857 310.005 425.493 309.926L436.069 302.765L434.119 300.047C437.412 299.983 438.26 297.917 439.086 295.903C439.535 294.808 439.978 293.729 440.803 292.996C441.704 292.191 443.104 291.653 444.304 291.192C446.859 290.212 448.505 289.579 442.493 287.464C447.759 284.502 451.625 278.937 455.297 273.652C457.637 270.284 459.898 267.029 462.393 264.634C466.104 261.06 485.168 250.596 490.48 248.225C493.085 247.067 495.86 246.505 498.614 245.947C502.328 245.196 506.004 244.452 509.174 242.263L512.36 245.37C513.845 242.19 515.881 240.565 519.39 241.471C521.777 242.097 524.851 242.616 528.088 243.162C532.926 243.979 538.128 244.858 541.947 246.245C543.209 246.707 544.573 247.848 546.03 249.068C548.025 250.737 550.196 252.552 552.519 252.977L549.951 248.247L563.351 256.877L566.024 254.969C573.776 262.003 595.903 283.901 597.658 293.053C598.04 295.046 597.569 296.749 597.153 298.25C596.756 299.684 596.41 300.933 596.91 302.075C599.037 306.97 603.853 309.633 608.957 310.121L605.683 306.68L610.431 304.121L603.177 298.57C608.964 299.248 611.834 301.954 614.918 304.862C617.128 306.945 619.447 309.132 623.028 310.752C627.435 312.747 634.335 313.198 638.382 313.463C640.129 313.577 641.344 313.656 641.597 313.81C646.795 317.008 654.315 323.519 656.55 329.38C652.677 329.559 648.814 328.941 644.958 328.325C643.453 328.084 641.949 327.843 640.446 327.65C627.609 325.989 615.774 324.106 602.014 321.844C599.954 321.507 586.698 319.757 585.906 319.913C580.202 321.071 574.955 326.221 570.349 330.742C567.776 333.267 565.403 335.596 563.262 336.924C561.999 337.711 560.627 337.624 559.46 337.55C558.639 337.498 557.918 337.452 557.409 337.723C551.651 340.81 530.281 365.078 527.066 371.353C525.278 374.85 524.655 378.942 524.091 382.641C523.697 385.231 523.332 387.628 522.616 389.494C522.518 389.755 522.072 389.685 521.511 389.597C520.798 389.485 519.899 389.344 519.28 389.81C514.387 393.514 515.418 394.81 516.541 396.222C517.015 396.817 517.505 397.432 517.574 398.258C517.629 398.863 517.512 409.373 517.453 410.028C517.354 411.154 516.793 412.474 516.278 413.686C515.737 414.959 515.247 416.114 515.392 416.803C515.464 417.15 516.066 417.482 516.707 417.834C517.399 418.215 518.137 418.62 518.298 419.097C518.66 420.181 518.775 421.496 518.895 422.878C519.079 424.996 519.277 427.269 520.401 429.098C519.453 429.587 518.17 428.036 516.797 426.378C514.855 424.031 512.734 421.468 511.136 424.166C512.227 425.717 512.881 428.248 513.52 430.716C514.205 433.366 514.872 435.944 516.04 437.159C518.282 439.496 522.522 440.579 526.804 441.673C530.948 442.732 535.131 443.801 537.582 446.026C539.412 447.685 538.091 449.185 537.049 450.368C536.079 451.468 535.351 452.294 537.625 452.72C545.08 447.009 553.317 447.549 561.582 448.091C568.579 448.549 575.597 449.009 582.178 445.679L582.042 450.704C584.145 444.017 599.172 445.31 602.838 448.472C603.436 448.979 602.936 449.83 602.58 450.437C602.399 450.746 602.255 450.991 602.312 451.096C603.157 452.641 604.565 451.938 606.32 451.061C608.678 449.883 611.663 448.391 614.756 451.618C615.886 452.806 615.425 454.133 615.003 455.347C614.474 456.871 614.006 458.218 616.818 458.894L621.126 451.182L626.89 454.148L629.806 450.485L632.375 455.214L633.16 450.555L639.769 454.058L641.269 448.049L644.02 451.014C645.746 449.229 648.101 450.074 650.534 450.947C652.316 451.587 654.141 452.241 655.79 451.888C656.564 451.715 657.402 450.943 658.319 450.098C659.634 448.887 661.112 447.525 662.804 447.56L661.362 451.87C663.152 452.279 664.393 452.935 665.428 453.482C667.538 454.597 668.795 455.261 672.105 452.466L673.998 456.882L676.116 452.885C679.783 463.028 686.028 455.301 686.978 448.447L696.252 453.361L693.345 449.272L695.384 448.602C696.896 450.606 697.798 449.806 699.063 448.685C700.314 447.576 701.919 446.154 704.817 446.819L699.87 443.356C699.622 441.65 709.447 436.241 710.715 438.908L708.249 443.562C712.423 442.161 716.247 439.597 720.032 437.059C723.652 434.631 727.235 432.228 731.053 430.892C733.801 429.934 737.457 429.384 741.117 428.833C744.445 428.333 747.778 427.832 750.434 427.023C751.963 426.553 754.873 425.173 757.996 423.693C762.823 421.406 768.156 418.878 769.683 419.095L769.595 422.439L790.623 414.877L775.232 426.313L776.152 429.304L810.821 423.099C819.302 428.031 829.331 425.608 839.236 423.215C843.34 422.223 847.422 421.237 851.365 420.781C857.794 420.04 864.566 419.886 871.174 419.735L871.175 419.735C876.042 419.624 880.819 419.515 885.304 419.175C887.474 419.01 891.161 417.277 894.558 415.679C897.629 414.235 900.464 412.903 901.727 412.941C902.797 412.966 903.821 413.47 904.895 413.999C906.018 414.552 907.196 415.132 908.541 415.222C909.073 415.256 911.931 414.746 915.496 414.111L915.498 414.11C920.554 413.209 927.03 412.054 930.302 411.838C931.1 411.783 933.81 410.312 936.565 408.816L936.566 408.816C939.685 407.123 942.862 405.398 943.395 405.657C943.993 411.137 943.269 416.56 940.351 421.02C942.574 420.396 945.276 419.456 948.194 418.441C956.076 415.701 965.531 412.412 971.36 413.317C971.917 413.403 972.347 413.407 972.686 413.411C973.78 413.422 973.93 413.423 974.395 416.122L967.609 419.308L969.56 422.026C966.337 424.882 962.247 423.978 959.233 423.311C957.871 423.01 956.729 422.758 955.987 422.923C954.19 423.333 951.871 424.425 949.379 425.599C945.748 427.308 941.75 429.191 938.463 429.394C941.466 431.961 945.612 430.904 949.918 429.806C954.12 428.734 958.474 427.624 962.07 429.803L987.104 420.996L991.297 425.922C988.463 426.403 986.018 428.169 983.821 429.755L983.82 429.756C982.582 430.65 981.422 431.487 980.317 432.004C979.993 432.156 977.858 432.483 975.106 432.903C970.328 433.632 963.691 434.645 961.453 435.526C957.73 436.989 944.036 443.76 954.401 445.153C956.424 445.421 959.069 444.425 961.809 443.393C965.715 441.921 969.817 440.376 972.592 442.316C977.64 447.783 970.421 450.896 964.192 453.583C960.187 455.31 956.591 456.86 956.926 458.747L967.068 457.384L968.201 461.309C969.277 461.381 970.441 461.42 971.628 461.46L971.632 461.46C973.986 461.539 976.435 461.621 978.487 461.972C978.663 462.003 978.968 462.012 979.339 462.022C981.068 462.071 984.242 462.161 982.61 464.689C982.115 465.455 979.741 465.625 977.421 465.791C975.691 465.914 973.992 466.036 973.126 466.401C971.872 466.93 971.004 468.14 970.34 469.065C969.932 469.634 969.601 470.096 969.304 470.226C969.16 470.289 968.73 470.077 968.099 469.766C965.322 468.395 958.641 465.098 955.171 474.815L999.45 477.868L993.115 489.825C989.329 488.609 985.17 489.124 981.115 489.627C978.577 489.942 976.08 490.251 973.739 490.128C972.763 490.076 971.875 489.562 970.949 489.025C969.933 488.436 968.87 487.82 967.593 487.758C965.361 487.654 963.11 487.765 960.852 487.876C956.897 488.071 952.924 488.267 949.015 487.31C947.14 487.712 943.432 493.748 945.95 495.437L951.803 489.829L989.637 496.47L979.074 516.403C973.592 515.397 968.745 513.25 963.946 511.124C957.66 508.339 951.46 505.592 944.03 505.5L945.444 510.15L976.26 521.715L967.109 538.984C964.125 537.934 960.776 535.838 957.441 533.753C953.679 531.399 949.935 529.058 946.759 528.244C946.211 528.107 945.717 528.565 945.215 529.031C944.695 529.513 944.166 530.003 943.559 529.851C942.638 529.628 941.675 529.066 940.686 528.489C938.446 527.183 936.077 525.801 933.78 528.104L962.891 546.943L955.143 561.564L916.105 535.78C917.76 542.36 924.764 546.406 931.08 550.054C933.476 551.438 935.773 552.765 937.641 554.151C940.103 555.97 942.47 558.182 944.85 560.407C947.29 562.686 949.744 564.979 952.328 566.876L945.286 580.165C933.111 575.082 922.141 566.192 911.446 557.525C904.128 551.594 896.938 545.768 889.58 541.337C888.051 540.416 884.703 538.664 884.035 541.723L938.95 592.121L929.799 609.39L864.338 550.035C863.518 554.096 866.696 557.319 869.62 560.285C870.833 561.515 872.001 562.701 872.823 563.883C873.082 564.258 873.079 564.791 873.076 565.405C873.071 566.279 873.065 567.317 873.814 568.287C881.47 578.315 891.257 587.494 901.025 596.657L901.026 596.658C909.168 604.294 917.297 611.919 924.169 620.014L919.236 629.323C916.786 628.36 916.233 626.972 915.609 625.408C915.037 623.974 914.406 622.391 912.201 620.852C910.89 619.939 909.398 619.401 908.049 618.915C906.799 618.465 905.671 618.059 904.923 617.439C903.301 616.106 902.31 613.496 901.245 610.693C899.664 606.532 897.922 601.946 893.717 600.486L904.204 625.612L895.279 620.04L896.435 627.434C894.616 625.367 892.223 624.369 889.872 623.389C888.022 622.618 886.199 621.858 884.701 620.596C881.32 617.755 876.119 608.954 871.252 600.716L871.251 600.715C868.104 595.39 865.097 590.302 862.811 587.211C854.178 575.566 843.875 563.724 833.687 553.383C837.909 564.346 845.733 574.581 853.286 584.461C855.862 587.83 858.406 591.158 860.765 594.459C861.372 595.31 861.446 596.164 861.521 597.022C861.596 597.889 861.672 598.76 862.298 599.638C875.284 617.622 891.239 635.651 908.673 649.256L901.632 662.545L901.609 662.754ZM565.822 511.047L569.047 517.174L571.432 520.826L569.224 510.534C568.086 510.676 566.951 510.847 565.822 511.047ZM560.43 260.715L540.515 250.161L539.761 253.131L547.768 255.712L538.414 254.168C538.73 258.244 543.675 258.623 547.683 258.931C549.379 259.061 550.908 259.178 551.847 259.557C553.47 260.212 554.671 261.364 555.876 262.518C557.016 263.61 558.158 264.705 559.663 265.384L560.44 260.698L560.43 260.715ZM542.924 311.348C545.39 309.485 548.041 307.483 550.645 306.657C552.983 304.086 550.129 303.323 547.644 302.658C546.516 302.356 545.463 302.075 545.008 301.654C544.359 301.064 544.117 300.134 543.863 299.158C543.59 298.109 543.303 297.006 542.483 296.215C541.59 295.358 539.399 294.334 536.96 293.195C534.061 291.842 530.813 290.325 528.985 288.73C525.948 286.068 524.111 283.433 522.44 281.038C519.4 276.678 516.911 273.109 508.743 271.599C491.439 268.413 465.964 281.064 471.485 302.052C472.555 306.098 482.367 320.495 486.276 321.902C488.403 322.669 490.082 321.979 491.647 321.337C492.683 320.911 493.668 320.507 494.699 320.559C495.892 320.62 497.051 320.684 498.181 320.746C512.844 321.547 522.594 322.08 538.061 314.638L538.044 314.629C539.524 313.916 541.178 312.667 542.924 311.348ZM933.899 521.607C933.281 521.32 932.496 520.841 931.619 520.304C928.255 518.247 923.526 515.355 921.549 519.317C920.323 521.773 924.745 523.131 928.215 524.195C929.846 524.696 931.266 525.132 931.79 525.586L933.899 521.607ZM506.76 368.437L508.26 362.428C508.132 362.569 508.002 362.711 507.87 362.855C504.078 367.007 498.888 372.69 500.472 378.713L503.971 373.741L505.886 376.484L510.122 368.49L506.777 368.446L506.76 368.437ZM471.614 348.106C468.948 345.882 466.74 347.879 465.086 349.375C464.48 349.923 463.949 350.404 463.496 350.586C462.629 350.93 462.744 350.11 462.891 349.058C463.101 347.556 463.377 345.581 460.954 345.848L450.004 353.631C450.388 354.787 470.814 354.132 471.623 348.089L471.614 348.106ZM453.657 340.297C453.099 338.672 444.105 340.045 443.755 340.413C443.383 340.787 443.374 341.443 443.365 342.139C443.353 342.957 443.341 343.831 442.742 344.375C442.21 344.854 438.885 345.272 434.974 345.765C429.538 346.449 422.971 347.276 421.197 348.605L422.316 344.987L420.019 342.883C417.697 347.444 413.228 349.227 408.78 351C405.008 352.505 401.251 354.003 398.832 357.186L416.449 351.208L417.019 354.901C420.271 351.859 428.929 348.735 433.297 348.146C434.64 347.974 435.965 348.347 437.254 348.709C438.68 349.111 440.061 349.499 441.377 349.126C442.502 348.806 444.328 347.213 446.343 345.455C448.814 343.3 451.568 340.899 453.657 340.297ZM484.718 361.854C482.29 360.278 482.275 360.308 481.862 361.171C481.705 361.498 481.492 361.944 481.068 362.468C478.324 365.833 475.984 370.08 473.658 374.301C471.855 377.574 470.061 380.831 468.093 383.65C470.675 383.886 472.494 381.247 474.232 378.725C475.183 377.345 476.109 376.001 477.123 375.182C477.718 374.706 478.505 374.617 479.335 374.523C481.133 374.319 483.139 374.092 483.862 369.867L480.517 369.822L484.744 361.846L484.718 361.854ZM448.335 366.398C448.732 367.406 463.17 361.782 462.613 358.651C461.418 358.808 460.178 358.885 458.949 358.961C453.638 359.288 448.553 359.602 448.335 366.398ZM502.462 379.767L500.31 412.639L493.422 406.446C494.07 405.66 494.818 406.611 495.549 407.541C496.495 408.744 497.413 409.912 498.054 407.239C498.805 404.137 498.845 400.602 498.886 396.987C498.955 390.92 499.026 384.626 502.462 379.767ZM432.606 354.761C432.895 354.723 433.242 355.091 433.683 355.559C434.623 356.555 435.99 358.003 438.126 356.933L442.618 351.468C434.723 350.323 428.119 354.809 421.778 359.115C417.391 362.095 413.13 364.989 408.656 365.872C407.905 366.021 407.164 365.69 406.44 365.366C405.611 364.995 404.805 364.634 404.034 365.018C402.464 365.778 400.718 368.344 398.895 371.021C397.393 373.227 395.84 375.508 394.291 376.92C392.542 378.51 390.248 379.82 387.914 381.154C384.66 383.013 381.326 384.917 379.276 387.69C386.305 386.93 391.112 382.539 395.781 378.273C397.826 376.405 399.845 374.56 402.013 373.055C405.285 370.785 408.916 369.244 412.474 367.734C414.862 366.72 417.218 365.72 419.41 364.523C420.787 363.763 424.057 361.217 427.007 358.921L427.01 358.919C429.765 356.774 432.241 354.847 432.631 354.797L432.606 354.761ZM435.743 364.734C435.622 364.426 435.907 363.997 436.209 363.544C436.756 362.721 437.358 361.816 435.69 361.404L423.874 377.26C425.976 379.24 427.735 377.761 429.452 376.318C429.801 376.025 430.148 375.733 430.496 375.472C432.957 373.63 437.403 369.714 439.201 367.409C440.97 365.15 439.585 365.205 438.067 365.266C437.059 365.306 435.992 365.348 435.752 364.717L435.743 364.734ZM479.467 384.602C473.854 381.84 472.078 389.969 470.853 395.581C470.547 396.981 470.276 398.225 469.987 399.103L473.66 401.958C474.586 395.401 475.382 390.261 479.458 384.619L479.467 384.602ZM484.796 387.426C487.674 389.35 486.597 402.076 485.065 402.9L482.716 400.929L479.722 403.442L484.796 387.426ZM449.108 386.733C449.205 390.514 449.3 394.204 446.898 397.967L443.226 395.028L443.241 394.98C445.272 388.775 446.542 384.893 444.034 378.613L452.204 373.568C448.889 378.216 449 382.53 449.108 386.733ZM465.737 402.148C464.455 398.59 463.236 397.642 462.326 396.934C461.771 396.502 461.331 396.16 461.061 395.371C460.306 393.155 461.306 389.259 462.185 385.832C463.013 382.606 463.734 379.797 462.784 379.197C457.427 381.275 458.057 386.842 458.645 392.032C458.923 394.491 459.192 396.865 458.809 398.743L466.649 413.557C468.743 410.089 467.421 406.622 466.183 403.374C466.025 402.959 465.868 402.546 465.719 402.138L465.737 402.148ZM400.052 364.642C402.181 363.837 405.627 362.533 404.784 360.34C401.281 360.369 397.626 362.484 394.551 364.264C393.034 365.142 391.659 365.938 390.512 366.362C389.369 366.782 389.636 365.762 389.913 364.703C390.222 363.519 390.545 362.286 388.919 362.97L366.076 377.26C377.417 374.427 388.346 369.78 399.005 365.056C399.277 364.935 399.64 364.798 400.052 364.642ZM479.38 422.227C480.103 416.329 480.821 410.469 478.999 404.765C475.289 415.321 472.029 431.677 480.137 441.093C477.833 434.86 478.609 428.522 479.38 422.227ZM414.591 372.363C414.365 372.813 412.934 374.028 411.087 375.597C406.257 379.699 398.577 386.223 402.119 387.827C404.762 389.028 411.754 379.348 413.262 377.088C413.463 376.79 413.764 376.446 414.085 376.08C415.239 374.762 416.647 373.153 414.583 372.337L414.591 372.363ZM498.772 447.622C492.798 442.532 491.212 434.513 489.641 426.571C488.75 422.072 487.865 417.597 486.19 413.695C482.851 418.275 484.798 421.984 486.673 425.556C487.488 427.108 488.29 428.635 488.638 430.195C488.87 431.245 488.869 432.755 488.869 434.396C488.869 437.233 488.869 440.462 490.066 442.388C490.328 442.815 497.805 449.991 498.79 447.631L498.772 447.622ZM434.179 387.766C433.258 387.191 432.872 386.951 432.599 387.043C432.403 387.109 432.264 387.348 432.027 387.759C431.86 388.047 431.645 388.42 431.326 388.877C429.667 391.256 420.325 405.121 420.485 406.114C422.587 407.823 423.05 407.394 424.005 406.508C424.331 406.206 424.714 405.85 425.239 405.508C429.778 402.573 430.759 399.336 431.865 395.683C432.559 393.394 433.302 390.941 435.001 388.298L435.011 388.281C434.692 388.087 434.418 387.915 434.179 387.766ZM464.174 444.868C464.168 444.728 463.882 444.228 463.466 443.499C462.397 441.626 460.467 438.243 460.189 435.576C459.999 433.715 460.287 431.878 460.575 430.047C460.986 427.429 461.395 424.822 460.401 422.169L458.304 424.161L455.058 421.044L461.804 448.421C463.168 448.9 464.193 445.92 464.148 444.876L464.174 444.868ZM437.799 411.876C434.894 409.465 434.206 411.427 433.324 413.942C433.197 414.305 433.066 414.68 432.923 415.055C431.484 418.857 429.378 425.675 432.01 429.242L437.79 411.893L437.799 411.876ZM358.797 371.718C358.492 370.439 354.72 371.56 351.085 372.639C348.159 373.508 345.322 374.351 344.458 373.893C337.155 369.951 329.612 370.103 322.393 370.249C318.455 370.329 314.613 370.406 310.96 369.816C310.552 369.75 309.713 369.506 308.61 369.186C303.185 367.612 291.362 364.182 292.951 370.844C293.446 372.922 294.619 372.08 295.914 371.15C297.227 370.208 298.665 369.176 299.649 371.002L295.511 375.591L302.772 381.168L298.594 387.464C300.034 388.015 301.388 387.777 302.812 387.527C303.919 387.333 305.068 387.131 306.333 387.287C308.623 387.571 313.367 388.681 318.212 389.815C324.454 391.275 330.864 392.775 332.417 392.6C334.577 392.37 335.059 391.252 335.83 389.422L332.655 382.531L341.122 379.35L333.441 377.828C334.315 377.36 337.574 376.979 341.479 376.523C349.191 375.621 359.421 374.425 358.771 371.682L358.797 371.718ZM348.004 401.746L371.455 385.762L373.352 381.137C370.239 384.346 366.28 386.676 362.349 388.99C356.597 392.375 350.904 395.726 348.004 401.746ZM388.657 414.778C390.052 412.837 391.649 411.147 393.229 409.473C396.143 406.388 399.004 403.36 400.455 398.913C396.016 399.929 384.906 410.021 388.657 414.778ZM543.051 485.137C542.771 484.035 533.185 473.77 532.445 473.954C532.54 475.519 531.184 477.409 530.043 478.998C529.215 480.152 528.5 481.147 528.538 481.745C528.6 482.798 540.292 500.34 542.977 495.691C542.051 493.922 542.474 491.058 542.826 488.674C543.047 487.173 543.241 485.863 543.051 485.137ZM418.897 415.467C418.075 412.461 416.427 414.358 415.205 416.037C411.726 420.887 410.547 425.204 410.235 430.978C410.193 431.71 409.913 432.296 409.674 432.796C409.148 433.897 408.823 434.578 411.688 435.471L418.88 415.458L418.897 415.467ZM491.351 477.686C491.477 468.666 488.234 459.479 482.562 452.617C481.045 454.364 481.655 455.694 482.335 457.173C482.547 457.634 482.766 458.11 482.928 458.618C483.598 460.674 484.245 462.79 484.891 464.906L484.891 464.908L484.892 464.911C485.711 467.59 486.528 470.268 487.393 472.818C487.569 473.335 487.69 473.8 487.799 474.222C488.235 475.903 488.495 476.903 491.359 477.713L491.351 477.686ZM436.05 456.914C438.082 455.087 441.521 431.534 436.633 433.398C434.274 440.525 433.072 449.861 436.05 456.914ZM473.777 465.708C473.158 459.115 472.504 452.148 471.81 452.039C468.814 451.548 469.089 453.162 469.357 454.732C469.435 455.193 469.513 455.65 469.508 456.049C469.335 468.498 474.061 480.919 478.46 492.481C478.811 493.404 479.16 494.321 479.505 495.232C481.328 494.426 480.813 485.11 480.577 484.343C480.216 483.192 479.163 482.076 478.057 480.903C476.94 479.718 475.769 478.476 475.203 477.085L475.194 477.102C474.742 475.988 474.271 470.967 473.777 465.708ZM355.708 416.023C357.496 413.921 359.699 412.196 361.897 410.475C365.545 407.618 369.178 404.772 370.877 400.237L355.577 410.413L355.717 416.006L355.708 416.023ZM410.813 472.461C414.881 468.002 414.918 463.464 414.955 458.811C414.972 456.808 414.988 454.784 415.327 452.735C415.359 452.527 415.566 451.869 415.861 450.928C417.335 446.226 421.024 434.454 416.39 436.301L410.067 458.813L410.813 472.461ZM386 442.292L395.786 427.045C387.335 426.223 383.316 435.019 386 442.292ZM461.958 497.857C466.105 489 461.376 476.042 458.16 467.228L458.022 466.85C455.675 472.493 457.481 477.883 459.265 483.204C460.001 485.4 460.733 487.585 461.168 489.77C461.404 490.97 461.279 492.224 461.161 493.406C460.983 495.199 460.821 496.827 461.958 497.857ZM320.412 434.805L345.065 406.579L323.506 419.447C318.574 422.791 312.142 432.906 320.412 434.805ZM359.661 447.039C363.579 443.648 365.077 438.35 366.457 433.47L366.512 433.273C366.542 433.168 366.574 433.055 366.608 432.933L366.616 432.906C367.281 430.553 368.762 425.319 366.975 423.7L357.984 434.227L364.761 431.015L359.67 447.022L359.661 447.039ZM421.94 486.845C424.861 491.496 426.828 477.202 426.895 475.864C426.95 474.63 427.124 469.869 425.699 470.133C420.453 474.198 420.934 477.848 421.534 482.402C421.717 483.79 421.911 485.262 421.957 486.855L421.94 486.845ZM367.628 451.283C365.273 449.461 364.945 449.977 364.232 451.099C363.955 451.534 363.62 452.061 363.086 452.577C355.626 459.838 352.279 466.154 350.923 476.45L367.628 451.283ZM383.678 510.828C387.268 507.753 387.961 504.354 388.66 500.926C388.988 499.317 389.317 497.702 389.948 496.11C390.732 494.133 391.788 491.928 392.901 489.606L392.902 489.604C396.449 482.204 400.562 473.622 398.194 467.459C397.55 469.358 395.724 471.742 393.82 474.228C389.55 479.803 384.889 485.888 392.3 488.159C391.443 491.086 389.443 493.674 387.474 496.223C384.035 500.675 380.689 505.007 383.688 510.81L383.678 510.828ZM466.784 520.826C467.064 518.625 465.811 502.337 462.487 503.257C462.626 504.821 462.479 506.591 462.329 508.403C461.918 513.354 461.481 518.616 466.784 520.826ZM442.006 516.228C448.418 511.515 444.711 503.593 442.01 497.821L441.863 497.508L441.812 497.398C439.124 503.265 438.266 510.656 442.006 516.228ZM338.929 472.321C340.67 467.181 342.444 461.943 340.617 457.381C336.676 464.024 334.022 473.256 336.664 480.817C336.969 478.11 337.944 475.231 338.929 472.321ZM448.862 538.588C449.116 537.538 449.443 536.411 449.782 535.239C451.538 529.177 453.645 521.9 448.032 517.737C443.112 524.261 443.652 532.569 448.862 538.588ZM400.262 825.982C404.482 812.75 404.321 795.865 401.339 782.296C401.194 787.266 400.37 792.414 399.545 797.563C398.533 803.876 397.521 810.193 397.761 816.191L397.761 816.209C397.891 819.597 398.029 823.184 400.262 825.982ZM230.007 796.338C226.241 803.216 222.525 810.002 220.209 816.38C219.359 818.725 219.15 821.171 218.942 823.615C218.643 827.12 218.344 830.623 216.153 833.822L219.606 836.716L215.677 843.92L219.64 846.019L228.174 826.695L224.828 826.651C225.385 825.298 226.378 824.282 227.373 823.264C228.305 822.311 229.238 821.356 229.818 820.12C236.125 806.676 240.633 788.46 244.203 774.034L244.225 773.946L240.55 774.525C238.051 781.651 234 789.047 230.007 796.338ZM252.394 838.201C251.159 835.973 249.233 835.174 247.697 837.906C246.334 840.352 237.855 861.789 244.14 860.51L245.588 858.196L247.546 859.101C247.552 859.263 247.558 859.421 247.564 859.575C247.728 863.987 247.776 865.284 252.739 866.95C254.148 866.633 253.056 839.46 252.377 838.191L252.394 838.201Z" fill="#FF0481"/>
</svg>
