<svg width="107" height="47" viewBox="0 0 107 47" fill="none" xmlns="http://www.w3.org/2000/svg">
<path fill-rule="evenodd" clip-rule="evenodd" d="M70.9258 12.4674C70.9119 12.5164 70.1852 12.7424 69.311 12.9699C68.1859 13.2626 67.74 13.4518 67.7843 13.6173C67.8303 13.7894 67.8069 13.7971 67.6951 13.6469C67.5991 13.5179 67.2368 13.5442 66.7107 13.7182C65.7377 14.0399 65.0407 14.2478 64.8216 14.2815C64.6251 14.3119 60.6025 15.5739 60.6105 15.6027C60.6137 15.6145 60.3233 15.7264 59.9652 15.8514C59.0764 16.1618 59.0985 16.14 59.2916 16.5117C59.423 16.7647 59.3854 16.7555 59.1325 16.473C58.8784 16.189 58.7083 16.1484 58.401 16.2982C58.1807 16.4055 57.7984 16.5547 57.5514 16.6298C57.2633 16.7173 57.1287 16.8619 57.1759 17.0329C57.2634 17.3496 57.0712 17.4433 56.9257 17.1549C56.8699 17.044 56.6632 17.0006 56.4664 17.0585C55.2645 17.4112 55.0293 17.521 55.0042 17.7408C54.9848 17.9116 54.9551 17.9102 54.9055 17.7358C54.8558 17.5605 54.5868 17.5491 54.0058 17.697C53.5498 17.8131 53.1579 17.9747 53.1347 18.056C53.1114 18.1373 52.622 18.3567 52.047 18.5436C49.7383 19.2935 49.287 19.4875 49.176 19.7776C49.1123 19.944 49.0376 19.9984 49.01 19.8985C48.9824 19.7984 48.8568 19.743 48.7311 19.775C48.5944 19.8098 48.555 19.9308 48.6332 20.0753C48.8109 20.4041 48.6928 20.4068 48.3538 20.0817C48.1018 19.8401 48.0279 19.8566 47.6279 20.2436C47.3818 20.4816 47.0924 20.6206 46.9813 20.5542C46.8704 20.4879 46.7305 20.4858 46.6702 20.5496C46.6099 20.6132 46.2713 20.7813 45.9177 20.923C44.5585 21.4679 43.8776 21.7879 43.7347 21.9492C43.653 22.0411 43.3005 22.171 42.9512 22.2376C42.602 22.3043 42.308 22.4511 42.2979 22.5636C42.2878 22.6763 42.1367 22.7605 41.9618 22.7506C41.7871 22.7409 41.3597 22.9206 41.0118 23.15C40.6641 23.3795 40.1375 23.6653 39.8418 23.7852C39.5461 23.9051 39.1531 24.0911 38.9686 24.1985C38.7841 24.3059 38.3193 24.5267 37.9358 24.6892C36.7347 25.1978 34.904 26.1855 34.7901 26.3864C34.7495 26.4576 34.4428 26.616 34.1084 26.7383C33.352 27.0149 33.0747 27.2068 32.7234 27.6969C32.5656 27.9171 32.4232 27.9956 32.3912 27.8799C32.325 27.64 31.3784 28.1296 31.3899 28.3978C31.3941 28.494 31.3055 28.5431 31.1929 28.5069C31.0619 28.4646 31.0242 28.5704 31.0878 28.8008C31.1823 29.1427 31.1741 29.1444 30.9218 28.8332C30.7486 28.6198 30.6152 28.5788 30.5381 28.7156C30.4731 28.8309 30.262 28.9974 30.0689 29.0858C29.8758 29.174 29.7239 29.3346 29.7311 29.4427C29.7389 29.5583 29.6129 29.5975 29.4251 29.5377C29.1347 29.4454 28.2199 29.9923 27.7958 30.5119C27.7157 30.6098 27.5709 30.6885 27.4741 30.6868C27.3644 30.6847 27.3587 30.768 27.459 30.9075C27.5767 31.0712 27.5457 31.1044 27.3437 31.0305C26.943 30.884 26.3073 31.1476 26.0053 31.5856C25.8614 31.7943 25.5712 32.009 25.3605 32.0626C25.1497 32.1163 24.5823 32.4519 24.0996 32.8084C23.6167 33.1647 23.0851 33.5431 22.918 33.6491C22.7376 33.7634 22.6502 33.9718 22.7028 34.1624C22.7765 34.4291 22.7478 34.4482 22.5337 34.2749C22.3383 34.1168 22.2572 34.1312 22.1994 34.3337C22.1574 34.4809 21.9943 34.634 21.8372 34.674C21.2915 34.813 20.5955 35.4629 20.677 35.7576C20.723 35.9242 20.681 36.0006 20.5775 35.9389C20.4791 35.8802 20.3708 36.0168 20.3369 36.2427C20.3032 36.4688 20.2457 36.5462 20.2095 36.4151C20.1733 36.284 20.0072 36.2114 19.8404 36.2539C19.6737 36.2964 19.5647 36.4308 19.5984 36.5527C19.6321 36.6746 19.5583 36.7416 19.4346 36.7018C19.0307 36.5715 18.6805 36.9881 18.8041 37.4516C18.9164 37.8728 18.913 37.8745 18.6333 37.5382C18.3507 37.1983 18.3489 37.1987 18.4534 37.584C18.5312 37.8714 18.5131 37.9105 18.3838 37.7339C18.2408 37.5387 18.1391 37.5785 17.8293 37.9516C17.6206 38.2029 17.2368 38.5889 16.9764 38.8095C15.8938 39.7261 15.5546 40.2399 15.7611 40.6497C15.8217 40.7697 15.8239 40.952 15.7661 41.0547C15.6992 41.1733 15.6692 41.1491 15.6837 40.9883C15.7557 40.1836 14.8922 40.5843 14.6975 41.4458C14.6405 41.6984 14.5569 41.7899 14.4951 41.6674C14.4373 41.5527 14.3785 41.7181 14.3644 42.035C14.3425 42.528 14.3702 42.6298 14.5565 42.741C14.871 42.9287 15.1253 42.4526 14.991 41.9275C14.8912 41.5372 14.9004 41.5244 15.065 41.8249C15.2881 42.2315 15.4494 42.232 15.4892 41.8264C15.5088 41.6266 15.5396 41.6089 15.5858 41.7709C15.6348 41.9433 15.7234 41.9064 15.9076 41.6367C16.0475 41.432 16.2573 41.2397 16.3737 41.2092C16.4902 41.1789 16.5491 41.0216 16.5044 40.8599C16.4549 40.6809 16.5067 40.5929 16.6369 40.6348C16.7545 40.6728 16.9277 40.6128 17.0221 40.5018C17.1163 40.3906 17.3209 40.2358 17.4769 40.158C17.8915 39.9506 18.2009 39.416 18.0584 39.1528C17.9868 39.0204 18.0266 38.9241 18.153 38.9241C18.273 38.9239 18.3683 38.7696 18.3647 38.5811C18.3591 38.283 18.3722 38.2843 18.4649 38.5913C18.5503 38.8739 18.6449 38.9057 18.9401 38.7511C19.9218 38.2366 20.7099 37.3428 20.5174 36.9624C20.4242 36.7781 20.4487 36.7377 20.5989 36.8285C20.8915 37.0051 21.1694 36.9901 21.2797 36.7914C21.3301 36.7008 21.4777 36.5882 21.6075 36.5414C21.8076 36.4691 22.6036 35.9445 23.7491 35.13C23.8983 35.0241 24.1429 34.8521 24.2926 34.7477C24.4423 34.6436 24.5776 34.4491 24.5931 34.3153C24.6123 34.1499 24.6449 34.1558 24.6955 34.3338C24.7363 34.4777 24.8124 34.5198 24.8644 34.4273C24.9165 34.3349 24.8865 34.0989 24.7979 33.9032C24.6197 33.5099 24.8009 33.4456 25.1654 33.7729C25.4512 34.0297 25.626 33.9899 26.235 33.5286C26.4974 33.33 26.6798 33.0511 26.6405 32.9088C26.5678 32.6457 26.8498 32.5497 27.071 32.7618C27.1378 32.8258 27.2379 32.759 27.2935 32.6137C27.3682 32.4183 27.4114 32.4099 27.4587 32.581C27.5025 32.7396 27.5734 32.7366 27.6832 32.5712C27.8698 32.2906 28.4114 31.9416 29.1234 31.644C29.3996 31.5282 29.6696 31.3191 29.7231 31.1788C29.7769 31.0387 30.0504 30.8274 30.3313 30.7096C30.6122 30.5916 30.8804 30.4757 30.9274 30.452C30.9744 30.4284 30.9732 30.2504 30.9246 30.0565C30.8524 29.768 30.8663 29.7546 31.0017 29.9833C31.1671 30.2624 31.7414 30.2065 32.0358 29.8826C32.2456 29.6517 33.1838 29.1767 34.0764 28.8493C34.4925 28.6966 34.8732 28.4666 34.9224 28.3382C34.9715 28.2097 35.1448 28.0793 35.3073 28.0484C35.7826 27.9578 37.7736 26.9513 37.8006 26.788C37.8141 26.7057 37.9621 26.605 38.1292 26.564C38.2964 26.5231 38.4935 26.3375 38.567 26.1514C38.6694 25.8929 38.7173 25.8734 38.7712 26.0682C38.8187 26.2401 38.9173 26.2546 39.0757 26.1132C39.2046 25.9979 39.4859 25.8692 39.701 25.8273C39.9161 25.7854 40.1012 25.6496 40.1123 25.5257C40.1256 25.377 40.2256 25.347 40.4053 25.4378C40.5554 25.5135 40.6987 25.5036 40.7237 25.4156C40.7489 25.3278 40.991 25.1718 41.2618 25.0694C42.04 24.7749 42.9156 24.4098 42.9717 24.3563C43 24.3294 43.2048 24.2781 43.4271 24.2425C43.6587 24.2054 43.8044 24.0809 43.7684 23.9505C43.7338 23.8254 43.7755 23.7649 43.861 23.8159C43.9465 23.867 43.9901 23.8133 43.9579 23.6968C43.9257 23.5803 43.9572 23.47 44.0278 23.4521C44.0984 23.4341 44.1474 23.518 44.1366 23.6386C44.1257 23.7592 44.2293 23.8293 44.3666 23.7943C44.5039 23.7594 44.5976 23.6627 44.5746 23.5796C44.5516 23.4963 44.899 23.3262 45.3465 23.2015C45.7939 23.0767 46.3598 22.8518 46.6039 22.7018C46.8482 22.5519 47.1758 22.4049 47.3322 22.3751C47.5082 22.3416 47.5623 22.2456 47.4741 22.1232C47.3718 21.9808 47.419 21.9692 47.6418 22.0818C47.9958 22.2608 49.0816 22.0372 49.0158 21.7989C48.9485 21.5553 49.4623 21.4174 49.7052 21.614C49.8487 21.73 49.9027 21.7197 49.865 21.5833C49.8337 21.47 49.9303 21.3968 50.0796 21.4203C50.2289 21.444 50.3295 21.3851 50.3032 21.2898C50.2768 21.1944 50.6398 21.031 51.1099 20.9269C51.7168 20.7925 51.9226 20.678 51.8196 20.5319C51.7399 20.4187 51.8013 20.4265 51.9559 20.5486C52.1106 20.671 52.2154 20.6925 52.1889 20.5965C52.1625 20.5005 52.5044 20.326 52.9487 20.2088C53.4871 20.0668 53.7504 19.9074 53.7379 19.731C53.7236 19.5281 53.774 19.5108 53.9538 19.6561C54.0828 19.7604 54.1674 19.7669 54.1418 19.6706C54.1164 19.5744 54.1813 19.6128 54.2861 19.7562C54.4387 19.965 54.5246 19.956 54.7174 19.7111C54.9009 19.4779 54.988 19.4585 55.0839 19.63C55.1657 19.7763 55.2252 19.7759 55.2545 19.629C55.2791 19.5048 55.5433 19.3347 55.8415 19.2511C56.1397 19.1674 56.5062 19.0139 56.656 18.9099C56.8058 18.806 57.0197 18.792 57.1315 18.879C57.2643 18.9822 57.4348 18.9383 57.623 18.7526C57.7816 18.5963 58.1572 18.4432 58.4578 18.4125C58.7585 18.382 59.1541 18.2352 59.3372 18.0866C59.5202 17.9378 59.8048 17.8572 59.9697 17.9075C60.2261 17.9856 60.2437 17.9378 60.0916 17.5778C59.9542 17.2522 59.9597 17.2148 60.116 17.4132C60.3657 17.73 61.1155 17.6685 61.0272 17.3387C60.9907 17.2027 61.0487 17.2175 61.1648 17.3739C61.275 17.5226 61.3444 17.5654 61.319 17.4692C61.2934 17.3729 61.3787 17.3799 61.5084 17.4848C61.7786 17.7034 61.8799 17.3472 61.6417 17.0159C61.5627 16.906 61.6856 16.9355 61.915 17.0815C62.2935 17.3224 62.5654 17.272 64.863 16.5346C66.2551 16.0878 67.5181 15.6952 67.6697 15.6622C67.8212 15.629 67.9229 15.5214 67.8957 15.4229C67.8685 15.3244 67.9314 15.2223 68.0353 15.1958C68.1393 15.1693 68.2163 15.238 68.2064 15.3483C68.1806 15.6366 69.6119 15.126 69.7007 14.8152C69.7482 14.6486 69.8654 14.6051 70.0353 14.691C70.179 14.7637 70.4811 14.7793 70.7065 14.7258C70.932 14.6724 71.3545 14.5914 71.6453 14.5459C72.0453 14.4834 72.1545 14.3899 72.0931 14.1625C72.0332 13.9401 72.0546 13.9199 72.1755 14.0847C72.3493 14.322 72.8991 14.2056 76.2457 13.2238C78.4648 12.5725 78.2764 12.6229 79.8629 12.2589C80.7853 12.0474 81.1295 11.895 81.116 11.7041C81.1058 11.5595 81.1474 11.4283 81.2085 11.4127C81.2697 11.3971 81.3372 11.5006 81.3586 11.6423C81.4058 11.9562 82.2297 11.7942 82.2802 11.4612C82.3013 11.3221 82.34 11.3299 82.3834 11.4821C82.4259 11.6318 82.6134 11.6738 82.8699 11.5913C83.0993 11.5173 83.2677 11.3865 83.2439 11.3005C83.2202 11.2146 83.3373 11.1627 83.5041 11.1849C83.9563 11.2457 86.2619 10.62 86.3839 10.4036C86.4508 10.2848 86.4813 10.3079 86.4671 10.4664C86.435 10.8243 87.3345 10.4576 87.4908 10.0491C87.5942 9.77867 87.6258 9.77492 87.6946 10.024C87.7522 10.2324 87.8965 10.2785 88.1883 10.1813C88.415 10.106 88.6179 9.98362 88.639 9.90967C88.66 9.83553 88.8994 9.79859 89.1707 9.82764C89.4419 9.85649 89.8819 9.76843 90.1485 9.63155C90.5736 9.4136 90.6172 9.31828 90.5029 8.85606C90.3769 8.34602 90.3805 8.34768 90.6137 8.90264C90.8481 9.4607 90.8765 9.47209 91.6557 9.3234C92.0964 9.23924 92.5765 9.18062 92.7226 9.19269C92.8688 9.20496 93.0245 9.12717 93.0688 9.01991C93.1542 8.8126 93.4286 8.76478 93.6838 8.91257C93.7688 8.96185 93.9911 8.92047 94.1777 8.82066C94.3644 8.72105 94.5753 8.63883 94.6465 8.63786C94.7176 8.63689 95.3305 8.52945 96.0084 8.39882C96.6864 8.26838 97.4395 8.1711 97.6819 8.18288C98.0013 8.19841 98.1602 8.09323 98.2581 7.80152C98.3465 7.53838 98.4171 7.48419 98.4616 7.64534C98.5053 7.80349 98.671 7.83349 98.9244 7.72868C99.1417 7.63908 99.4463 7.66843 99.6014 7.79392C99.8439 7.99016 99.8881 7.97783 99.9145 7.7069C99.9359 7.48782 99.967 7.4677 100.016 7.64113C100.055 7.77861 100.2 7.86218 100.338 7.82706C100.537 7.77632 100.549 7.67425 100.397 7.32999C100.291 7.09184 100.267 7.00154 100.343 7.12931C100.42 7.25731 100.535 7.34826 100.6 7.33171C100.665 7.31512 100.652 7.19804 100.571 7.07128C100.49 6.94471 100.588 7.02773 100.789 7.25614C101.102 7.61124 101.153 7.62147 101.141 7.32734C101.123 6.90327 101.421 6.80049 101.617 7.16306C101.765 7.43785 101.981 7.40829 102.158 7.08902C102.283 6.86417 102.723 6.98488 102.951 7.3064C103.177 7.62684 103.737 7.47508 103.639 7.11974C103.523 6.69934 103.173 6.48491 102.612 6.49105C102.332 6.49424 101.919 6.46136 101.693 6.41823C101.467 6.3751 101.199 6.35977 101.099 6.38405C100.999 6.40853 100.763 6.40226 100.576 6.37006C100.04 6.27841 98.8585 6.27361 98.1715 6.36029C97.8265 6.40379 97.2832 6.44634 96.9643 6.45472C96.6453 6.46309 95.4711 6.65347 94.3548 6.8775C93.2387 7.10173 92.0419 7.31627 91.6955 7.35457C90.1176 7.52837 87.3934 8.14516 87.25 8.36126C87.1632 8.492 87.0073 8.54819 86.9037 8.48651C86.8001 8.4246 86.4567 8.50198 86.1406 8.65854C85.8247 8.81507 85.5234 8.88406 85.4715 8.81178C85.3768 8.68014 70.9736 12.2999 70.9258 12.4674ZM87.3448 8.99301C87.4165 9.09261 87.4172 9.18884 87.3466 9.20682C87.2761 9.22479 87.1933 9.14944 87.1629 9.03934C87.1325 8.92923 87.1316 8.83303 87.1611 8.82553C87.1905 8.81802 87.2732 8.8934 87.3448 8.99301ZM93.5145 8.06474C93.5039 8.30314 93.4751 8.50332 93.4502 8.50966C93.4254 8.51596 93.384 8.33365 93.358 8.10458C93.3321 7.87547 93.361 7.67526 93.4223 7.65966C93.4838 7.644 93.525 7.82527 93.5145 8.06474ZM83.4476 10.6282C83.4781 10.7384 83.4789 10.8346 83.4495 10.8421C83.42 10.8496 83.3374 10.7742 83.2657 10.6746C83.194 10.575 83.1933 10.4787 83.2639 10.4608C83.3345 10.4428 83.4172 10.5181 83.4476 10.6282ZM65.5834 15.5114C65.6308 15.683 65.5996 15.7818 65.5141 15.7307C65.4286 15.6796 65.3352 15.5532 65.3066 15.4495C65.2779 15.3458 65.3091 15.2472 65.3758 15.2302C65.4425 15.2132 65.536 15.3399 65.5834 15.5114ZM102.209 7.35391C102.198 7.47651 102.124 7.538 102.045 7.49035C101.965 7.4429 101.926 7.49949 101.959 7.616C102.043 7.92209 102.219 7.82845 102.298 7.43506C102.336 7.24874 102.335 7.10416 102.298 7.11374C102.26 7.12328 102.22 7.23135 102.209 7.35391ZM45.0675 22.5445C45.098 22.6546 45.0988 22.7508 45.0694 22.7583C45.0399 22.7658 44.9573 22.6904 44.8856 22.5908C44.814 22.4912 44.8132 22.395 44.8838 22.377C44.9544 22.359 45.0371 22.4344 45.0675 22.5445ZM17.3242 39.5124C17.2769 39.6781 17.2237 39.7043 17.1891 39.579C17.1152 39.3117 17.1933 39.0384 17.3111 39.1515C17.3613 39.1996 17.3672 39.362 17.3242 39.5124Z" fill="#FF0481"/>
<path fill-rule="evenodd" clip-rule="evenodd" d="M38.1314 8.26758C38.1395 8.33767 38.8609 8.5827 39.7345 8.81253C40.8588 9.10816 41.295 9.33253 41.228 9.58028C41.1583 9.83796 41.1816 9.84644 41.3163 9.61304C41.432 9.41268 41.8028 9.40825 42.3238 9.60093C43.2872 9.95701 43.9804 10.1791 44.2022 10.2025C44.4012 10.2237 48.3933 11.5963 48.3814 11.6394C48.3765 11.6571 48.662 11.7867 49.0158 11.9275C49.8939 12.2769 49.8738 12.2477 49.6266 12.8152C49.4583 13.2015 49.4984 13.1834 49.7959 12.7395C50.0948 12.2934 50.2757 12.2136 50.5738 12.3968C50.7875 12.5279 51.1631 12.7012 51.4086 12.782C51.6948 12.8761 51.8153 13.0721 51.7445 13.3282C51.6135 13.8026 51.7999 13.9172 51.9872 13.4773C52.0592 13.3082 52.2782 13.2201 52.474 13.2816C53.6699 13.6561 53.8986 13.7891 53.8963 14.1082C53.8944 14.3562 53.9253 14.3506 53.9989 14.0891C54.0728 13.8264 54.352 13.7778 54.9331 13.9257C55.389 14.0418 55.773 14.2321 55.7866 14.3485C55.8001 14.4649 56.2774 14.7283 56.8472 14.9341C59.1351 15.7594 59.5762 15.9902 59.6535 16.4021C59.6979 16.6384 59.768 16.7092 59.8093 16.5596C59.8508 16.4097 59.9875 16.3135 60.1133 16.3455C60.25 16.3804 60.2751 16.553 60.1758 16.7739C59.95 17.2769 60.0716 17.2668 60.4635 16.7503C60.7549 16.3664 60.829 16.3818 61.1924 16.9015C61.4159 17.221 61.6969 17.3905 61.8202 17.28C61.9433 17.1698 62.088 17.1501 62.142 17.2364C62.1962 17.3224 62.5242 17.5286 62.8712 17.6943C64.2048 18.3318 64.8669 18.72 64.9938 18.9394C65.0663 19.0644 65.4137 19.2129 65.7658 19.2692C66.1179 19.3255 66.4026 19.5059 66.3986 19.6695C66.3945 19.8335 66.5398 19.9388 66.7217 19.9036C66.9033 19.8686 67.3216 20.0814 67.6514 20.3763C67.981 20.6714 68.4881 21.0278 68.778 21.1684C69.068 21.309 69.45 21.535 69.6267 21.6705C69.8035 21.8061 70.2551 22.0745 70.6302 22.2673C71.8052 22.8702 73.5689 24.1006 73.6607 24.3814C73.6935 24.4809 73.9899 24.6767 74.3195 24.8162C75.0651 25.1319 75.3269 25.3803 75.6266 26.0568C75.7613 26.3608 75.8983 26.4589 75.9461 26.2855C76.0454 25.9263 76.96 26.5315 76.9136 26.9258C76.897 27.0673 76.9822 27.1288 77.1031 27.0623C77.2438 26.9848 77.2692 27.1354 77.1738 27.4806C77.0323 27.9928 77.0406 27.9943 77.3411 27.5084C77.5475 27.1751 77.6905 27.0992 77.7525 27.2906C77.8048 27.4519 78.0015 27.6708 78.1894 27.7774C78.3775 27.8837 78.5138 28.1011 78.4925 28.2603C78.4695 28.4307 78.5947 28.4731 78.7962 28.3633C79.1081 28.1937 79.9824 28.8866 80.3537 29.5977C80.4237 29.7318 80.5632 29.8299 80.6634 29.8159C80.777 29.7999 80.7721 29.9213 80.6506 30.1375C80.508 30.3914 80.5357 30.4363 80.7539 30.3041C81.1866 30.0419 81.8092 30.3529 82.0647 30.9589C82.1866 31.2476 82.4586 31.5278 82.6693 31.5815C82.8801 31.6351 83.4229 32.0597 83.8756 32.5249C84.3285 32.9897 84.8289 33.4812 84.9878 33.6167C85.1595 33.7628 85.2229 34.0579 85.1441 34.3434C85.0337 34.7428 85.0609 34.7674 85.3042 34.4882C85.5264 34.2334 85.6082 34.2449 85.6419 34.5347C85.6664 34.7454 85.8151 34.9505 85.9723 34.9905C86.518 35.1295 87.1531 35.9993 87.0312 36.4408C86.9622 36.6903 86.9957 36.7973 87.1106 36.6947C87.2197 36.597 87.314 36.7843 87.32 37.1114C87.3258 37.4386 87.3751 37.5452 87.4294 37.3488C87.4837 37.1524 87.6645 37.0264 87.8313 37.0689C87.9981 37.1113 88.0932 37.2954 88.0428 37.4781C87.9923 37.6607 88.0599 37.7501 88.1928 37.6771C88.6267 37.4383 88.9347 38.0072 88.7476 38.7011C88.5774 39.3315 88.5807 39.3336 88.9129 38.8077C89.2483 38.2762 89.2502 38.2766 89.0927 38.8535C88.9754 39.2839 88.9891 39.3391 89.1453 39.0649C89.3181 38.7619 89.418 38.8082 89.69 39.3182C89.8732 39.6618 90.22 40.1818 90.4605 40.4742C91.4607 41.689 91.745 42.4018 91.479 43.0267C91.401 43.2097 91.3754 43.477 91.4218 43.6208C91.4756 43.7866 91.5098 43.7475 91.5155 43.5136C91.5446 42.343 92.3848 42.8279 92.4751 44.0671C92.5015 44.4305 92.5761 44.5548 92.6556 44.368C92.7301 44.1931 92.7695 44.4284 92.7434 44.8911C92.7026 45.6109 92.6609 45.7634 92.4542 45.9483C92.1053 46.2607 91.9039 45.5931 92.1101 44.8078C92.2633 44.2241 92.2555 44.2064 92.0468 44.6662C91.7641 45.2885 91.5975 45.3084 91.6086 44.7186C91.6141 44.4282 91.5845 44.4059 91.516 44.6488C91.4431 44.9073 91.3564 44.8637 91.2008 44.4902C91.0827 44.2069 90.8908 43.95 90.7744 43.9191C90.658 43.8885 90.6175 43.665 90.6844 43.4227C90.7585 43.1546 90.7163 43.0319 90.5765 43.1086C90.4501 43.1782 90.2789 43.1108 90.1958 42.9593C90.1128 42.8076 89.9213 42.605 89.7703 42.5094C89.3688 42.2547 89.118 41.5081 89.2989 41.1054C89.3899 40.9029 89.3613 40.7666 89.2307 40.7815C89.1067 40.7955 89.0282 40.5807 89.0561 40.304C89.1003 39.8665 89.0866 39.8701 88.9513 40.331C88.8269 40.7551 88.7251 40.8129 88.4401 40.6213C87.4924 39.9838 86.7934 38.7674 87.041 38.1872C87.161 37.9061 87.1409 37.8499 86.9741 38.0007C86.6492 38.2942 86.3642 38.305 86.2757 38.027C86.2354 37.9002 86.0975 37.7527 85.9694 37.6996C85.7721 37.6172 85.0174 36.9429 83.9392 35.8851C83.7987 35.7476 83.5682 35.5246 83.427 35.3894C83.2858 35.2546 83.1711 34.9856 83.1723 34.7914C83.1737 34.5513 83.1392 34.5637 83.0641 34.8306C83.0035 35.0463 82.9195 35.117 82.8776 34.9876C82.8357 34.8585 82.897 34.5091 83.0137 34.2118C83.2483 33.6144 83.0695 33.5416 82.6509 34.0645C82.3228 34.4746 82.1474 34.437 81.5777 33.8332C81.3323 33.5733 81.1797 33.1862 81.2386 32.973C81.3475 32.5789 81.0687 32.4716 80.8129 32.8087C80.7357 32.9104 80.641 32.8243 80.6022 32.618C80.5502 32.3406 80.5066 32.3333 80.4358 32.5897C80.3701 32.8272 80.2974 32.8312 80.2052 32.602C80.0485 32.2128 79.5341 31.7657 78.8371 31.4139C78.5667 31.277 78.3147 31.0025 78.2775 30.8033C78.24 30.6044 77.9846 30.3272 77.7097 30.1879C77.4348 30.0482 77.1727 29.9102 77.1273 29.881C77.0818 29.8521 77.1058 29.5911 77.181 29.3011C77.2926 28.8699 77.2799 28.8519 77.1108 29.203C76.9041 29.6315 76.3181 29.6178 76.0557 29.178C75.8688 28.8646 74.9609 28.2797 74.0811 27.9057C73.671 27.7313 73.3075 27.4394 73.2732 27.257C73.2389 27.0746 73.0768 26.904 72.9129 26.878C72.4337 26.8015 70.507 25.5627 70.5 25.3266C70.4967 25.2076 70.3568 25.0776 70.1895 25.0372C70.022 24.9972 69.8424 24.7486 69.7904 24.4846C69.7179 24.1179 69.6709 24.095 69.5903 24.3868C69.5191 24.6444 69.4153 24.6774 69.27 24.4888C69.1517 24.3351 68.8777 24.18 68.661 24.1441C68.4442 24.1081 68.2705 23.931 68.275 23.7508C68.2804 23.5345 68.1809 23.5025 67.9837 23.6567C67.819 23.7855 67.6722 23.788 67.6577 23.662C67.643 23.5362 67.413 23.3364 67.1464 23.2185C66.3807 22.879 65.5233 22.4479 65.4722 22.3761C65.4465 22.3401 65.2416 22.2891 65.0166 22.2633C64.7822 22.2364 64.6478 22.0712 64.7017 21.8759C64.7535 21.6885 64.7182 21.6047 64.6233 21.6897C64.5285 21.7747 64.4904 21.7011 64.5386 21.5266C64.5868 21.352 64.5685 21.1943 64.4979 21.1763C64.4273 21.1583 64.3659 21.2871 64.3615 21.4625C64.3572 21.638 64.2412 21.7529 64.1039 21.7179C63.9666 21.683 63.8824 21.5524 63.9167 21.4279C63.9512 21.3032 63.6143 21.0951 63.1682 20.9654C62.7222 20.8355 62.1667 20.573 61.9338 20.3821C61.7009 20.1915 61.3814 20.0148 61.2237 19.9897C61.0462 19.9616 61.0027 19.8272 61.1096 19.6374C61.2335 19.4167 61.1863 19.4053 60.9417 19.5966C60.5531 19.9008 59.4605 19.7019 59.5591 19.345C59.6599 18.98 59.147 18.8388 58.8709 19.1556C58.7078 19.3426 58.6534 19.3339 58.7098 19.1297C58.7567 18.96 58.6663 18.8641 58.5091 18.9162C58.3519 18.9686 58.2555 18.8943 58.295 18.7515C58.3345 18.6085 57.9806 18.4121 57.5086 18.3154C56.8991 18.1903 56.7013 18.0469 56.8264 17.8206C56.9232 17.6453 56.8589 17.6639 56.6835 17.8613C56.508 18.059 56.3969 18.1029 56.4367 17.9589C56.4763 17.8153 56.1456 17.6001 55.7018 17.481C55.1641 17.3367 54.9126 17.1343 54.9482 16.8744C54.989 16.5753 54.9392 16.5559 54.7349 16.7902C54.5883 16.9583 54.5 16.9779 54.5388 16.8337C54.5774 16.6897 54.5055 16.7536 54.3789 16.9762C54.1944 17.3003 54.1068 17.2973 53.9393 16.9612C53.7797 16.6413 53.6923 16.6232 53.5712 16.8858C53.4679 17.1098 53.4065 17.1164 53.3952 16.9045C53.3857 16.7255 53.1347 16.5076 52.8375 16.4203C52.5403 16.3331 52.1815 16.1515 52.0402 16.017C51.8989 15.8825 51.6797 15.8873 51.553 16.0281C51.4027 16.1949 51.2322 16.1509 51.0617 15.901C50.9181 15.6908 50.5498 15.511 50.2433 15.5016C49.9367 15.4926 49.547 15.3243 49.377 15.1282C49.2072 14.9319 48.9236 14.8475 48.7468 14.9408C48.472 15.0856 48.46 15.0177 48.6633 14.4721C48.8471 13.9787 48.8463 13.9245 48.6593 14.2338C48.3607 14.7276 47.5942 14.7263 47.7279 14.2326C47.783 14.029 47.7212 14.0576 47.5813 14.3005C47.4483 14.5315 47.3712 14.6024 47.4098 14.4584C47.4486 14.3142 47.3596 14.3346 47.2121 14.5038C46.905 14.856 46.8461 14.346 47.1347 13.8324C47.2305 13.662 47.0997 13.7199 46.8441 13.961C46.4222 14.3588 46.1479 14.3172 43.8698 13.5088C42.4896 13.019 41.2358 12.5935 41.0835 12.5631C40.9312 12.5323 40.8401 12.3868 40.8808 12.2393C40.9216 12.0917 40.8698 11.9495 40.7658 11.923C40.6619 11.8965 40.5735 12.0063 40.5696 12.1667C40.5591 12.5862 39.1466 12.0076 39.0949 11.5627C39.0672 11.3242 38.9518 11.2742 38.7653 11.4203C38.6075 11.5438 38.2935 11.6025 38.0676 11.5508C37.8416 11.4993 37.4156 11.4307 37.1212 11.3984C36.7161 11.3543 36.6154 11.2301 36.708 10.8897C36.7985 10.5567 36.7789 10.5296 36.6329 10.7855C36.4229 11.1538 35.8701 11.0483 32.5402 10.0062C30.3321 9.31486 30.5203 9.3663 28.9285 9.021C28.0032 8.82034 27.6672 8.63786 27.7058 8.35653C27.7349 8.14343 27.7088 7.95606 27.6477 7.94049C27.5865 7.92493 27.5035 8.0845 27.4632 8.29476C27.374 8.76028 26.544 8.6205 26.5346 8.13855C26.5308 7.93727 26.4898 7.95316 26.4255 8.18136C26.3623 8.40571 26.1632 8.48951 25.909 8.39908C25.6815 8.31774 25.5245 8.14613 25.5601 8.01718C25.5957 7.88853 25.4813 7.82635 25.3063 7.87871C24.8315 8.02133 22.5308 7.37769 22.4326 7.07504C22.3788 6.90887 22.3443 6.94631 22.3387 7.17694C22.3258 7.69752 21.444 7.26689 21.335 6.68672C21.263 6.30277 21.2309 6.30102 21.1278 6.67408C21.0416 6.98627 20.8865 7.07101 20.5978 6.96313C20.3733 6.87964 20.1795 6.72437 20.1672 6.61852C20.155 6.51237 19.9126 6.4866 19.6287 6.56131C19.3448 6.63573 18.9017 6.55884 18.644 6.38985C18.233 6.12085 18.2002 5.98634 18.3777 5.29551C18.5734 4.53323 18.5695 4.53609 18.2574 5.37688C17.9435 6.22239 17.9127 6.24246 17.1271 6.1169C16.6828 6.0458 16.1945 6.01679 16.042 6.05179C15.8895 6.08709 15.7387 5.99155 15.7068 5.83962C15.6453 5.54597 15.3679 5.50842 15.0854 5.75522C14.9913 5.8375 14.7671 5.8032 14.5872 5.67906C14.4072 5.55523 14.1999 5.45974 14.1266 5.46675C14.0532 5.47375 13.434 5.38895 12.7507 5.27785C12.0673 5.16706 11.3021 5.11375 11.0503 5.15972C10.7184 5.22032 10.5678 5.08503 10.5042 4.66919C10.4468 4.29408 10.3808 4.22305 10.3141 4.46446C10.2487 4.70138 10.0736 4.76498 9.82541 4.64142C9.61258 4.53587 9.29422 4.61497 9.11786 4.81723C8.84224 5.13351 8.79814 5.12068 8.8057 4.72682C8.81177 4.40834 8.78229 4.38253 8.70904 4.6425C8.65106 4.84858 8.49085 4.98818 8.35295 4.95306C8.15367 4.90232 8.15435 4.75419 8.35623 4.23167C8.49596 3.87018 8.5324 3.73501 8.43715 3.93128C8.34193 4.12788 8.21071 4.27486 8.1457 4.2583C8.08057 4.24172 8.10918 4.06861 8.20925 3.87325C8.30923 3.67818 8.19725 3.81145 7.96019 4.16998C7.59146 4.72737 7.53775 4.74836 7.58804 4.31595C7.66072 3.69248 7.36661 3.57714 7.1176 4.13163C6.92879 4.55188 6.71016 4.53409 6.56786 4.0873C6.46786 3.77262 5.99813 4.0016 5.72173 4.4997C5.44631 4.99611 4.88771 4.84006 5.03478 4.30775C5.20878 3.67798 5.59811 3.32228 6.17663 3.2648C6.46464 3.23639 6.89602 3.1392 7.13508 3.04921C7.37415 2.95922 7.65199 2.90511 7.75255 2.92879C7.85302 2.95277 8.09694 2.9157 8.29461 2.8463C8.85932 2.64857 10.0805 2.5015 10.779 2.5471C11.1297 2.56996 11.6852 2.56794 12.0136 2.54242C12.3419 2.5169 13.5301 2.65672 14.654 2.85274C15.7779 3.04906 16.9863 3.22162 17.3391 3.23668C18.9463 3.30441 21.6804 3.88541 21.8007 4.18505C21.8736 4.36635 22.0273 4.43021 22.1423 4.32755C22.2572 4.22457 22.6019 4.29726 22.9082 4.48922C23.2144 4.68114 23.5166 4.74654 23.5795 4.63448C23.6943 4.43035 38.1036 8.02776 38.1314 8.26758ZM21.6216 5.12199C21.5348 5.27643 21.5216 5.41752 21.5922 5.4355C21.6628 5.45347 21.7579 5.33326 21.8035 5.16832C21.8491 5.00338 21.8624 4.86231 21.8329 4.8548C21.8034 4.8473 21.7084 4.96755 21.6216 5.12199ZM15.3693 4.49282C15.3496 4.8409 15.3536 5.13082 15.3785 5.13715C15.4032 5.14345 15.4694 4.87141 15.5258 4.53267C15.582 4.19389 15.5778 3.90394 15.5166 3.88835C15.4551 3.87269 15.3892 4.14319 15.3693 4.49282ZM25.4361 7.05633C25.3906 7.22128 25.3773 7.36234 25.4068 7.36985C25.4362 7.37735 25.5313 7.2571 25.6181 7.10266C25.7049 6.94822 25.718 6.80713 25.6474 6.78915C25.5768 6.77118 25.4817 6.89139 25.4361 7.05633ZM43.2575 12.0949C43.1865 12.352 43.2059 12.493 43.3008 12.408C43.3957 12.3231 43.5083 12.1267 43.5512 11.9714C43.5942 11.816 43.5746 11.6753 43.5079 11.6583C43.4412 11.6413 43.3285 11.8379 43.2575 12.0949ZM6.48101 4.48151C6.47665 4.65984 6.54518 4.74116 6.63355 4.66191C6.72183 4.58296 6.75459 4.66128 6.70637 4.83582C6.57968 5.29435 6.41009 5.17798 6.37905 4.61091C6.36433 4.34234 6.38313 4.13046 6.42074 4.14003C6.45821 4.14958 6.48548 4.30322 6.48101 4.48151ZM63.5407 19.9696C63.4952 20.1345 63.4819 20.2756 63.5114 20.2831C63.5409 20.2906 63.6359 20.1703 63.7227 20.0159C63.8095 19.8615 63.8226 19.7204 63.752 19.7024C63.6815 19.6844 63.5863 19.8046 63.5407 19.9696ZM90.0109 41.5455C90.0385 41.7826 90.0901 41.8147 90.142 41.627C90.2526 41.2266 90.2071 40.8353 90.0709 41.015C90.0129 41.0914 89.9859 41.3301 90.0109 41.5455Z" fill="#FF0481"/>
</svg>
