<svg width="332" height="345" viewBox="0 0 332 345" fill="none" xmlns="http://www.w3.org/2000/svg">
<g clip-path="url(#clip0_639_49429)">
<path fill-rule="evenodd" clip-rule="evenodd" d="M133.149 16.3684C133.352 16.7638 133.014 18.3059 132.399 19.7956C131.424 22.1561 130.965 22.5032 128.82 22.5032C127.467 22.5032 126.361 22.7702 126.361 23.0975C126.362 23.4247 126.046 23.6918 125.66 23.6918C125.273 23.6918 124.462 24.29 123.856 25.0222C122.825 26.2671 122.742 26.2647 122.538 24.9889C122.255 23.2124 120.021 23.9984 118.033 26.5753C117.238 27.6046 116.168 28.4462 115.654 28.4462C115.139 28.4462 114.352 28.981 113.903 29.6348C112.853 31.1625 111.28 31.1696 111.28 29.6467C111.28 28.9755 110.013 30.0452 108.329 32.1388C105.303 35.9003 104.623 37.4629 106.362 36.657C107.044 36.34 107.345 36.7117 107.345 37.8702C107.345 38.7886 107.699 39.5397 108.132 39.5397C108.744 39.5397 108.744 39.7513 108.132 40.4906C107.699 41.0136 107.345 41.9764 107.345 42.6301C107.345 43.5548 107.52 43.6071 108.132 42.8678C109.24 41.5295 111.28 41.684 111.28 43.1055C111.28 43.7593 111.566 44.2941 111.915 44.2941C112.264 44.2941 112.383 43.7696 112.179 43.1277C111.976 42.4859 112.198 40.9003 112.672 39.6039C113.77 36.6079 116.411 35.6396 117.823 37.7149C118.786 39.1285 118.862 39.1293 119.992 37.7466C120.637 36.9573 120.988 35.9684 120.773 35.5492C120.09 34.2132 121.831 34.7267 123.56 36.3702C124.477 37.2418 125.483 37.955 125.795 37.955C126.107 37.955 126.362 37.2418 126.362 36.3702C126.362 35.0199 126.799 34.7854 129.313 34.7854C130.936 34.7854 132.264 35.0564 132.264 35.3868C132.264 35.718 132.885 36.4573 133.644 37.0302C134.651 37.7901 134.889 37.8091 134.527 37.1007C134.146 36.3551 134.704 36.2759 136.917 36.7584C138.506 37.1047 141.354 37.3171 143.247 37.2299C145.312 37.1348 146.69 37.4066 146.69 37.9098C146.69 38.3702 147.263 38.7474 147.963 38.7474C148.663 38.7474 149.421 39.1095 149.648 39.5524C149.874 39.9954 150.334 40.1531 150.67 39.9019C151.006 39.6515 151.28 39.8448 151.28 40.3321C151.28 40.8543 151.617 40.955 152.1 40.577C153.482 39.4962 156.117 39.863 157.321 41.3044C157.999 42.1158 158.917 42.4637 159.576 42.1578C160.39 41.7799 160.586 41.9645 160.307 42.844C160.016 43.7585 160.292 43.9621 161.459 43.6927C162.426 43.4692 163.54 43.9542 164.473 45.0049C165.288 45.9209 166.517 46.6713 167.205 46.6713C167.893 46.6713 170.051 47.2316 171.999 47.9162C174.461 48.7807 175.546 49.5676 175.553 50.4915C175.561 51.4859 175.698 51.5644 176.099 50.8005C176.735 49.5897 179.375 50.5565 180.7 52.4844C181.162 53.1579 181.946 53.5208 182.442 53.291C182.937 53.0612 184.377 54.123 185.641 55.6508C187.102 57.417 188.37 58.2926 189.122 58.0549C189.772 57.8497 190.954 58.4139 191.749 59.3077C192.543 60.2023 193.59 60.9345 194.074 60.9345C195.182 60.9345 202.889 66.9044 204.977 69.3799C205.838 70.4005 206.797 71.2357 207.108 71.2357C207.42 71.2357 208.201 71.872 208.846 72.6509C209.49 73.429 211.113 75.0756 212.453 76.3102C213.792 77.5448 214.888 79.2151 214.888 80.021C214.888 80.9552 215.222 81.3316 215.811 81.0591C217.016 80.5004 224.901 89.8206 226.103 93.2247C226.619 94.6891 227.492 95.8 228.126 95.8C229.531 95.8 231.282 98.7557 231.282 101.127C231.282 102.119 231.581 102.932 231.947 102.932C233.175 102.932 236.486 108.058 236.901 110.603C237.127 111.989 237.749 113.325 238.284 113.574C238.989 113.9 239.137 114.676 238.823 116.401C238.467 118.36 238.573 118.693 239.427 118.298C240.097 117.987 240.462 118.253 240.462 119.051C240.462 119.73 240.877 120.57 241.384 120.919C241.89 121.268 242.407 122.266 242.531 123.138C242.656 124.009 243.127 125.194 243.577 125.769C244.028 126.345 244.397 127.326 244.397 127.948C244.397 128.571 244.71 129.081 245.091 129.081C245.484 129.081 245.562 129.511 245.272 130.071C244.318 131.909 245.303 135.567 248.312 141.363C249.068 142.819 249.565 145.281 249.595 147.714C249.623 150.075 250.175 152.888 250.954 154.644C252.404 157.913 252.634 161.88 251.569 165.265C251.081 166.815 251.08 167.563 251.564 167.758C252.047 167.953 252.046 168.508 251.559 169.608C251.064 170.727 251.072 171.483 251.587 172.233C252.125 173.017 252.064 173.586 251.347 174.452C250.628 175.322 250.572 175.846 251.127 176.517C251.683 177.189 251.675 177.417 251.093 177.417C250.664 177.417 250.125 178.843 249.895 180.587C249.641 182.499 249.118 183.756 248.575 183.756C247.946 183.756 247.675 184.828 247.675 187.322C247.675 190.199 247.454 190.883 246.528 190.862C244.926 190.828 242.751 188.777 243.848 188.335C244.363 188.128 244.618 186.886 244.518 185.086C244.429 183.483 244.66 182.171 245.032 182.171C245.946 182.171 245.893 175.603 244.959 173.126C244.362 171.545 244.421 170.609 245.247 168.549C245.952 166.79 246.06 165.793 245.584 165.438C245.199 165.151 245.066 164.562 245.287 164.129C245.508 163.696 244.931 161.991 244.005 160.341C242.578 157.801 242.432 157.042 243.052 155.398C243.662 153.779 243.622 153.53 242.812 153.906C241.93 154.315 240.976 152.554 240.742 150.079C240.7 149.643 240.326 148.283 239.909 147.056C239.492 145.83 239.151 144.344 239.151 143.754C239.151 143.166 238.782 142.502 238.331 142.281C237.702 141.973 237.693 141.723 238.294 141.206C238.851 140.727 238.424 139.761 236.807 137.852C235.263 136.028 234.659 134.709 234.917 133.728C235.141 132.872 234.773 131.609 234.01 130.62C231.996 128.007 231.765 124.972 233.458 123.353C234.688 122.177 234.728 121.982 233.741 121.967C233.11 121.957 232.593 121.407 232.593 120.746C232.593 119.857 232.164 119.672 230.954 120.039C229.959 120.341 229.282 120.191 229.233 119.658C229.187 119.175 229.077 118.423 228.987 117.987C228.896 117.551 228.786 116.838 228.741 116.402C228.695 115.967 228.216 115.61 227.675 115.61C227.134 115.61 226.692 115.232 226.692 114.771C226.692 114.31 226.959 114.131 227.286 114.375C227.613 114.62 227.732 114.131 227.549 113.289C227.367 112.447 226.878 111.902 226.463 112.077C225.511 112.479 223.559 110.722 223.289 109.219C223.177 108.594 222.545 107.596 221.885 107.002C221.02 106.224 220.802 105.356 221.106 103.893C221.452 102.229 221.365 102.026 220.625 102.768C219.91 103.486 218.876 102.73 215.659 99.1424C213.424 96.6503 211.599 94.1661 211.603 93.6209C211.606 93.0766 211.371 92.6304 211.08 92.6304C210.237 92.6304 204.396 85.796 204.396 84.8087C204.396 84.3166 203.755 83.1391 202.97 82.1914C202.027 81.0511 201.681 80.895 201.946 81.7302C202.661 83.9822 200.727 83.8229 198.632 81.4568C197.508 80.1874 195.911 78.7952 195.082 78.3633C192.851 77.2009 191.021 75.7222 190.429 74.6034C190.14 74.059 189.402 73.6121 188.789 73.6121C188.176 73.6113 186.817 72.7198 185.769 71.6311C184.721 70.5415 183.32 69.6509 182.654 69.6509C181.989 69.6509 181.445 69.116 181.445 68.4623C181.445 67.7111 180.819 67.2737 179.743 67.2737C178.807 67.2737 177.257 66.7412 176.3 66.0898C175.342 65.4393 173.158 64.2039 171.445 63.345C169.731 62.486 168.33 61.4139 168.33 60.963C168.33 60.5114 167.771 60.1421 167.089 60.1421C166.406 60.1421 165.679 59.6136 165.474 58.967C165.269 58.3204 164.698 57.9781 164.205 58.2071C163.713 58.4353 162.502 58.2506 161.513 57.7966C160.09 57.1429 159.793 56.6009 160.083 55.1888C160.284 54.2086 160.279 53.8528 160.072 54.3972C159.623 55.5803 157.427 55.7158 156.854 54.5953C156.631 54.1595 155.802 53.7744 155.012 53.7403C154.222 53.7062 153.944 53.4978 154.395 53.2783C155.537 52.7213 155.422 51.4257 154.231 51.4257C153.69 51.4257 153.248 51.0802 153.248 50.6579C153.248 50.2363 152.805 50.0961 152.264 50.3465C151.107 50.8829 150.933 53.0105 152.046 53.0105C152.466 53.0105 152.615 53.2459 152.377 53.5343C152.139 53.8219 151.352 53.4099 150.629 52.6191C149.884 51.8045 149.313 51.5771 149.313 52.0953C149.313 53.2165 146.924 53.3164 146.362 52.2181C146.139 51.7823 145.385 51.4257 144.684 51.4257C143.745 51.4257 143.398 50.8536 143.36 49.2466L143.308 47.0675L142.681 49.1317C142.176 50.7942 141.729 51.1207 140.384 50.8092C139.465 50.5977 138.559 49.9384 138.371 49.3441C138.182 48.7506 137.77 48.4582 137.455 48.6935C137.139 48.9289 136.285 48.7363 135.556 48.2648C134.647 47.6769 134.231 47.669 134.231 48.2379C134.231 49.2633 128.848 48.3687 128.239 47.2419C128.008 46.8163 127.446 46.7474 126.989 47.0881C126.455 47.4875 126.323 47.3892 126.618 46.8124C127.229 45.6167 120.635 46.1428 119.619 47.371C118.563 48.6468 116.307 48.5018 116.726 47.1848C116.966 46.4265 116.509 46.1373 115.158 46.1943C114.109 46.2387 113.25 46.6919 113.248 47.2007C113.248 47.7102 113.081 48.6484 112.879 49.2855C112.631 50.0652 113.168 50.7213 114.518 51.2902C116.68 52.2007 116.972 52.9463 115.747 54.4273C115.146 55.1532 115.442 55.482 117.044 55.8695C118.185 56.1452 119.393 56.7736 119.726 57.2665C120.797 58.8457 120.903 67.2737 119.852 67.2737C118.758 67.2737 117.317 62.822 117.961 61.4305C118.754 59.7198 117.876 59.7744 116.832 61.5011C116.059 62.7776 115.863 62.7657 113.6 61.303C111.961 60.2443 111.07 59.0343 110.817 57.5232C110.59 56.1682 110.122 55.4511 109.616 55.6857C108.546 56.1817 107.931 53.4115 108.861 52.2878C109.716 51.2546 107.874 49.3869 105.378 48.7569C103.365 48.249 101.752 44.5651 102.845 42.974C103.381 42.1935 103.367 41.9169 102.791 41.9169C102.321 41.9169 102.169 41.3139 102.409 40.3987C102.629 39.5635 102.501 38.6515 102.126 38.371C101.055 37.5714 101.328 35.7418 102.501 35.8638C103.727 35.9914 105.243 33.5667 104.499 32.6673C104.222 32.3321 103.721 32.5825 103.385 33.2235C102.946 34.0619 102.772 34.1023 102.765 33.367C102.744 31.2077 105.69 27.6134 108.131 26.8186C109.575 26.3495 110.624 25.5206 110.624 24.8495C110.624 23.5642 111.651 23.2869 112.229 24.4168C112.432 24.8154 112.229 25.3217 111.775 25.5428C111.216 25.8154 111.273 25.9636 111.953 26.0064C112.505 26.0405 113.611 25.5135 114.412 24.8352C115.344 24.0476 115.87 23.9279 115.87 24.5056C115.87 25.0024 116.238 25.2528 116.69 25.0626C117.14 24.8717 117.432 24.1767 117.337 23.5175C117.128 22.069 118.148 21.0254 120.838 19.9342C122.485 19.2662 122.989 19.3534 123.586 20.4136C124.237 21.5674 124.322 21.5309 124.356 20.0864C124.433 16.8352 127.359 15.3803 129.003 17.7749C129.744 18.8542 130.003 18.8027 131.31 17.3193C132.119 16.4001 132.947 15.9722 133.149 16.3684ZM136.104 18.8502C136.651 19.2694 136.741 19.7203 136.337 20.0222C135.975 20.2924 135.511 19.9802 135.304 19.3288C134.87 17.9604 134.91 17.9366 136.104 18.8502ZM128.551 41.3226C128.732 41.8678 128.881 41.4217 128.881 40.3321C128.881 39.2426 128.732 38.7973 128.551 39.3417C128.368 39.8868 128.368 40.7783 128.551 41.3226ZM138.948 45.5033C139.15 45.7474 139.516 45.3076 139.763 44.5263C140.118 43.3971 140.043 43.306 139.396 44.0826C138.947 44.6206 138.746 45.2601 138.948 45.5033ZM160.223 51.8219C160.431 52.4756 160.717 53.0105 160.859 53.0105C161.001 53.0105 161.117 52.4756 161.117 51.8219C161.117 51.1682 160.831 50.6333 160.481 50.6333C160.132 50.6333 160.016 51.1682 160.223 51.8219ZM156.734 52.3671C156.943 52.9986 157.099 52.8108 157.13 51.8877C157.159 51.0525 157.004 50.585 156.786 50.8481C156.568 51.1111 156.545 51.795 156.734 52.3671ZM244.547 153.497C244.153 154.922 245.509 154.623 245.967 153.182C246.211 152.411 246.065 152.048 245.586 152.242C245.157 152.415 244.69 152.979 244.547 153.497Z" fill="#FF0481"/>
</g>
<defs>
<clipPath id="clip0_639_49429">
<rect width="375" height="4324" fill="white" transform="translate(-20 -1543)"/>
</clipPath>
</defs>
</svg>
