<svg width="343" height="344" viewBox="0 0 343 344" fill="none" xmlns="http://www.w3.org/2000/svg">
<g clip-path="url(#clip0_639_49429)">
<path fill-rule="evenodd" clip-rule="evenodd" d="M151.191 77.1429C151.303 77.0757 151.74 77.1877 152.163 77.3916C152.833 77.7149 152.931 77.8671 152.931 78.578C152.931 79.0265 153.007 79.3933 153.1 79.3933C153.193 79.3931 153.269 79.4979 153.269 79.6259C153.269 79.7542 153.438 80.0232 153.646 80.2238C153.999 80.5656 153.999 80.5934 153.637 80.6608C153.133 80.7548 153.356 81.4953 154.087 82.1547C154.379 82.418 154.618 82.773 154.618 82.9435C154.618 83.1139 154.769 83.375 154.955 83.5239C155.388 83.8718 155.39 84.3936 154.958 84.3936C154.768 84.3936 155.071 84.8136 155.665 85.372C156.733 86.3751 157.176 86.6006 156.947 86.0242C156.857 85.7979 156.963 85.6981 157.291 85.6981C157.552 85.6981 157.765 85.5807 157.765 85.4372C157.765 85.2343 157.825 85.2343 158.035 85.4372C158.183 85.5807 158.456 85.6981 158.642 85.6981C158.904 85.6981 158.919 85.64 158.709 85.4372C158.33 85.07 158.374 84.3936 158.777 84.3936C158.962 84.3936 159.114 84.2988 159.114 84.1829C159.114 84.0673 158.965 84.0277 158.783 84.0953C158.601 84.1627 158.151 84.0892 157.783 83.9318C156.933 83.5679 156.659 82.6923 157.247 82.224C157.648 81.9049 157.649 81.8797 157.256 81.5051C157.032 81.2913 156.752 81.1748 156.633 81.2461C156.254 81.4724 156.4 80.8954 156.866 80.3221C157.113 80.0179 157.315 79.6847 157.315 79.5812C157.315 79.4777 157.113 79.3931 156.866 79.3931C156.483 79.3931 156.416 79.2481 156.416 78.4147C156.416 77.8766 156.493 77.4364 156.587 77.4364C156.681 77.4364 156.891 77.2305 157.053 76.9787C157.269 76.645 157.274 76.5659 157.073 76.6859C156.862 76.8122 156.839 76.6274 156.976 75.8934C157.074 75.3668 157.135 74.4224 157.11 73.7947C157.083 73.1101 157.16 72.6533 157.303 72.6533C157.433 72.6533 157.54 72.4635 157.54 72.2313C157.54 71.9991 157.643 71.7478 157.769 71.6728C157.894 71.5975 157.939 71.4451 157.868 71.3338C157.797 71.2225 157.852 71.1314 157.99 71.1314C158.138 71.1314 158.167 71.0199 158.059 70.8596C157.753 70.4013 157.857 69.5278 158.266 69.1286C158.496 68.904 158.595 68.5994 158.508 68.3809C158.401 68.1111 158.453 68.0461 158.703 68.1387C158.962 68.235 159.02 68.1435 158.943 67.7567C158.88 67.436 159.018 67.0666 159.316 66.7573C159.576 66.4872 159.789 66.0796 159.789 65.8515C159.789 65.6235 159.948 64.9082 160.142 64.262C160.387 63.4459 160.61 63.086 160.872 63.0839C161.155 63.0812 161.177 63.0356 160.96 62.9028C160.617 62.6919 160.891 61.8166 161.438 61.3774C161.629 61.2241 161.732 60.9643 161.667 60.7999C161.602 60.6358 161.903 60.1583 162.336 59.7392C162.837 59.2548 163.086 58.8343 163.018 58.5851C162.96 58.3695 163.12 57.9777 163.374 57.7142C163.628 57.4507 163.835 57.1037 163.835 56.9432C163.835 56.5758 165.529 54.0206 166.232 53.3283C166.521 53.0429 166.758 52.725 166.758 52.6217C166.758 52.5184 166.939 52.2593 167.16 52.0456C167.381 51.8321 167.848 51.294 168.198 50.8498C168.548 50.4058 169.022 50.0423 169.251 50.0423C169.516 50.0423 169.623 49.9315 169.545 49.7364C169.387 49.3368 172.031 46.7224 172.997 46.3241C173.413 46.1528 173.728 45.8634 173.728 45.6534C173.728 45.1875 174.566 44.607 175.239 44.607C175.521 44.607 175.751 44.5079 175.751 44.3865C175.751 43.9793 177.206 42.8816 177.928 42.744C178.321 42.669 178.7 42.4627 178.771 42.2855C178.863 42.0517 179.083 42.0026 179.573 42.1068C180.129 42.2248 180.223 42.1896 180.111 41.9065C180.023 41.6843 180.098 41.5632 180.325 41.5632C180.518 41.5632 180.756 41.4258 180.855 41.2578C180.954 41.0899 181.237 40.9186 181.484 40.8773C181.732 40.836 182.068 40.6799 182.231 40.5305C182.394 40.3809 182.673 40.2587 182.849 40.2587C183.026 40.2587 183.171 40.155 183.171 40.0285C183.171 39.8983 183.293 39.8724 183.452 39.9687C183.973 40.2848 185.011 39.9583 186.655 38.9606C187.068 38.7099 187.767 38.5451 188.457 38.5353C189.127 38.526 189.925 38.3429 190.424 38.0846C191.351 37.6039 192.477 37.5278 193.437 37.8807C193.877 38.0424 194.089 38.0429 194.144 37.8824C194.2 37.7222 194.357 37.7226 194.669 37.8839C194.987 38.0483 195.201 38.0457 195.414 37.8748C195.637 37.6963 195.798 37.7167 196.044 37.9544C196.291 38.1929 196.439 38.2114 196.63 38.0272C196.82 37.8428 196.885 37.8457 196.885 38.0385C196.885 38.1807 197.29 38.3594 197.784 38.436C198.327 38.5199 198.684 38.6934 198.684 38.8734C198.684 39.0819 198.988 39.1717 199.695 39.1717C200.512 39.1717 200.706 39.2452 200.7 39.5522C200.69 40.0833 200.108 40.8042 199.983 40.4407C199.924 40.27 199.572 40.1853 199.061 40.2185C198.606 40.2481 198.234 40.1716 198.234 40.0481C198.234 39.7452 196.37 39.7628 195.668 40.0724C195.219 40.2703 194.953 40.2507 194.369 39.977C193.87 39.7433 193.587 39.7074 193.486 39.865C193.405 39.9926 193.238 40.037 193.115 39.9635C192.992 39.8902 192.508 40.0816 192.04 40.3888C191.319 40.8616 191.104 40.9101 190.638 40.7047C190.178 40.5022 190.108 40.5155 190.214 40.784C190.33 41.0767 189.831 41.3928 189.128 41.4706C189.005 41.4843 188.619 41.6084 188.271 41.7467C187.923 41.885 187.501 41.998 187.334 41.998C187.167 41.998 186.979 42.1205 186.916 42.2698C186.829 42.4785 186.758 42.4814 186.611 42.2822C186.475 42.0974 186.201 42.2392 185.659 42.7751C185.142 43.2869 184.768 43.4873 184.489 43.4019C184.246 43.3273 183.888 43.4495 183.607 43.7023C182.866 44.3702 182.005 44.4468 181.546 43.8856C181.212 43.4778 181.156 43.4645 181.152 43.7917C181.149 44.0009 180.993 44.1722 180.806 44.1722C180.554 44.1722 180.501 44.3146 180.605 44.7157C180.691 45.0455 180.648 45.2699 180.497 45.2864C180.36 45.3014 180.147 45.3379 180.023 45.368C179.899 45.398 179.697 45.4345 179.573 45.4495C179.45 45.4645 179.349 45.6234 179.349 45.8028C179.349 45.9821 179.241 46.1289 179.11 46.1289C178.98 46.1289 178.929 46.0402 178.998 45.9317C179.068 45.8234 178.929 45.7841 178.69 45.8445C178.451 45.905 178.296 46.0669 178.346 46.2048C178.46 46.5202 177.962 47.1675 177.535 47.2568C177.358 47.2942 177.075 47.5038 176.906 47.7225C176.685 48.0093 176.439 48.0815 176.024 47.9806C175.552 47.866 175.494 47.8949 175.705 48.1402C175.908 48.3774 175.694 48.72 174.676 49.7867C173.969 50.5276 173.264 51.1329 173.11 51.1316C172.955 51.1305 172.829 51.2083 172.829 51.3048C172.829 51.5844 170.889 53.5209 170.609 53.5209C170.47 53.5209 170.136 53.7336 169.867 53.9936C169.543 54.3065 169.499 54.4212 169.736 54.3334C170.375 54.0962 170.33 54.7374 169.658 55.432C169.298 55.8046 168.903 56.3343 168.781 56.6089C168.451 57.3487 168.031 57.9555 167.714 58.1518C167.559 58.2475 167.432 58.4921 167.432 58.6954C167.432 58.8987 167.179 59.3491 166.87 59.6968C166.561 60.0442 166.309 60.5088 166.309 60.7295C166.309 60.9499 166.157 61.1304 165.971 61.1304C165.758 61.1304 165.634 61.338 165.634 61.6948C165.634 62.0051 165.483 62.5188 165.298 62.8362C165.114 63.1536 164.763 63.8778 164.519 64.4459C164.276 65.014 163.971 65.4787 163.844 65.4787C163.715 65.4787 163.611 65.6639 163.611 65.8902C163.611 66.1166 163.461 66.3574 163.277 66.4255C163.094 66.4935 162.997 66.6829 163.062 66.8462C163.126 67.0095 163.074 67.411 162.945 67.7387C162.76 68.2105 162.606 68.3089 162.205 68.2129C161.927 68.1463 161.826 68.1478 161.981 68.2165C162.316 68.3655 162.355 69.0934 162.037 69.2834C161.913 69.3573 161.804 69.6321 161.794 69.8941C161.785 70.1561 161.725 70.2483 161.663 70.0987C161.505 69.7202 161.138 69.7582 161.138 70.153C161.138 70.3324 161.04 70.4792 160.92 70.4792C160.8 70.4792 160.76 70.6259 160.831 70.8053C160.984 71.1888 161.587 71.2466 161.587 70.8777C161.587 70.7383 161.654 70.6887 161.736 70.7677C161.817 70.8466 161.701 71.1075 161.476 71.3475C161.245 71.5943 161.18 71.7836 161.328 71.7836C161.646 71.7836 161.674 72.5759 161.362 72.762C161.239 72.8359 161.138 73.0862 161.138 73.3184C161.138 73.6297 160.975 73.7449 160.519 73.7575L159.901 73.7747L160.487 73.9826C160.958 74.15 161.051 74.298 160.963 74.7442C160.903 75.0488 160.716 75.349 160.547 75.4116C160.379 75.474 160.296 75.6108 160.362 75.7153C160.429 75.8199 160.374 76.1032 160.241 76.3447C160.074 76.6461 160.072 76.7841 160.233 76.7841C160.524 76.7841 160.27 78.5689 159.95 78.7709C159.83 78.8472 159.81 79.0335 159.907 79.185C160.02 79.3622 159.992 79.4061 159.829 79.3083C159.489 79.1055 159.639 81.2918 159.987 81.6288C160.349 81.9788 160.308 82.7267 159.934 82.588C159.719 82.5082 159.637 82.6599 159.653 83.1078C159.666 83.4557 159.794 83.7405 159.939 83.7409C160.083 83.7411 160.35 83.7964 160.53 83.8633C160.752 83.9455 160.938 83.7677 161.099 83.3198C161.357 82.6032 161.569 82.5062 161.989 82.9126C162.195 83.1117 162.288 83.0137 162.398 82.4825C162.477 82.104 162.655 81.7038 162.795 81.5933C163.243 81.2381 165.634 81.2028 165.634 81.5514C165.634 81.9142 164.371 82.3919 163.976 82.1784C163.491 81.9155 163.506 82.2064 163.996 82.5528C164.358 82.8089 164.355 82.8739 163.94 83.6244C163.64 84.1677 163.296 84.463 162.868 84.5469C162.483 84.6221 162.28 84.7776 162.346 84.9452C162.487 85.2998 161.701 85.5037 161.382 85.1954C161.089 84.9119 160.559 85.5228 160.38 86.3503C160.236 87.0176 159.191 87.5524 158.74 87.19C158.518 87.0123 158.44 87.0171 158.44 87.208C158.44 87.3639 158.269 87.4141 158.009 87.3345C157.772 87.2617 157.513 87.3041 157.434 87.4285C157.207 87.7837 156.688 87.6931 156.722 87.3043C156.758 86.8978 156.07 86.3949 155.815 86.6417C155.72 86.7336 155.791 86.8997 155.973 87.011C156.211 87.1565 156.222 87.2143 156.014 87.2167C155.401 87.2237 154.381 86.2468 154.156 85.4374C154.023 84.9589 153.788 84.611 153.597 84.611C153.232 84.611 153.154 84.2705 153.474 84.079C153.587 84.0114 153.731 84.079 153.794 84.2292C153.871 84.4147 153.913 84.3958 153.925 84.1703C153.935 83.9875 153.785 83.6207 153.593 83.355C153.37 83.0461 153.336 82.8717 153.5 82.8717C153.64 82.8717 153.712 82.7495 153.658 82.5999C153.603 82.4506 153.406 82.3538 153.219 82.3854C152.808 82.4545 152.512 82.1164 152.202 81.2246C152.013 80.6784 152.038 80.5113 152.338 80.3134C152.666 80.0977 152.656 80.0695 152.246 80.0582C151.323 80.0325 150.91 79.0626 151.59 78.5174C151.896 78.2717 151.881 78.186 151.461 77.7527C151.2 77.4844 151.078 77.2098 151.191 77.1429ZM151.895 76.163C152.014 75.9817 152.142 75.9519 152.227 76.0858C152.304 76.2058 152.216 76.3597 152.031 76.4285C151.642 76.5724 151.636 76.5589 151.895 76.163ZM158.271 78.6674C158.426 78.6072 158.299 78.5578 157.99 78.5578C157.681 78.5578 157.554 78.6072 157.709 78.6674C157.864 78.7278 158.117 78.7278 158.271 78.6674ZM159.457 75.2203C159.526 75.1533 159.402 75.0318 159.18 74.95C158.86 74.8322 158.834 74.857 159.054 75.0718C159.207 75.2205 159.388 75.2873 159.457 75.2203ZM161.25 68.1663C161.435 68.0974 161.587 68.0026 161.587 67.9556C161.587 67.9087 161.435 67.8702 161.25 67.8702C161.064 67.8702 160.913 67.965 160.913 68.0809C160.913 68.1965 161.064 68.235 161.25 68.1663ZM161.405 69.3232C161.584 69.2538 161.531 69.2023 161.269 69.1919C161.032 69.1825 160.899 69.2338 160.974 69.306C161.048 69.3782 161.242 69.386 161.405 69.3232ZM190.098 40.209C190.503 40.3394 190.418 39.89 190.009 39.7383C189.79 39.6572 189.687 39.7056 189.742 39.8646C189.791 40.0065 189.951 40.1616 190.098 40.209Z" fill="#FF0481"/>
</g>
<defs>
<clipPath id="clip0_639_49429">
<rect width="375" height="4324" fill="white" transform="translate(-16 -2319)"/>
</clipPath>
</defs>
</svg>
