<svg width="585" height="329" viewBox="0 0 585 329" fill="none" xmlns="http://www.w3.org/2000/svg">
<g clip-path="url(#clip0_620_93184)">
<path fill-rule="evenodd" clip-rule="evenodd" d="M248.238 45.7752C248.004 46.1364 248.393 47.545 249.102 48.9059C250.226 51.0623 250.755 51.3793 253.226 51.3793C254.785 51.3793 256.06 51.6233 256.06 51.9222C256.059 52.2212 256.424 52.4651 256.869 52.4651C257.315 52.4651 258.249 53.0117 258.947 53.6805C260.135 54.8177 260.232 54.8155 260.466 53.6501C260.792 52.0272 263.366 52.7453 265.659 55.0993C266.574 56.0396 267.808 56.8083 268.4 56.8083C268.993 56.8083 269.9 57.2969 270.418 57.8941C271.627 59.2897 273.441 59.2962 273.441 57.905C273.441 57.2919 274.901 58.2691 276.842 60.1815C280.329 63.6177 281.112 65.0451 279.109 64.309C278.322 64.0194 277.975 64.3589 277.975 65.4172C277.975 66.2562 277.567 66.9424 277.069 66.9424C276.363 66.9424 276.363 67.1357 277.069 67.811C277.567 68.2888 277.975 69.1683 277.975 69.7655C277.975 70.6102 277.774 70.658 277.069 69.9826C275.792 68.76 273.441 68.9012 273.441 70.1998C273.441 70.797 273.112 71.2856 272.709 71.2856C272.307 71.2856 272.169 70.8064 272.404 70.22C272.638 69.6337 272.383 68.1853 271.836 67.001C270.571 64.2641 267.527 63.3795 265.9 65.2753C264.79 66.5667 264.703 66.5674 263.4 65.3043C262.658 64.5833 262.253 63.6799 262.5 63.297C263.287 62.0766 261.281 62.5457 259.289 64.0469C258.231 64.8432 257.073 65.4947 256.713 65.4947C256.353 65.4947 256.059 64.8432 256.059 64.0469C256.059 62.8135 255.555 62.5992 252.659 62.5992C250.788 62.5992 249.258 62.8468 249.258 63.1486C249.258 63.4512 248.542 64.1266 247.667 64.6499C246.507 65.3441 246.232 65.3615 246.649 64.7143C247.088 64.0332 246.446 63.9608 243.894 64.4016C242.064 64.718 238.781 64.912 236.599 64.8323C234.22 64.7455 232.632 64.9938 232.632 65.4534C232.632 65.874 231.972 66.2185 231.165 66.2185C230.358 66.2185 229.484 66.5493 229.224 66.954C228.962 67.3586 228.432 67.5027 228.045 67.2732C227.658 67.0445 227.342 67.2211 227.342 67.6663C227.342 68.1433 226.954 68.2352 226.397 67.8899C224.804 66.9026 221.768 67.2377 220.38 68.5544C219.599 69.2957 218.541 69.6134 217.781 69.334C216.843 68.9888 216.617 69.1574 216.939 69.9609C217.274 70.7962 216.956 70.9823 215.611 70.7362C214.497 70.532 213.213 70.975 212.137 71.9349C211.199 72.7717 209.782 73.4572 208.989 73.4572C208.196 73.4572 205.71 73.9689 203.464 74.5943C200.627 75.3841 199.376 76.1029 199.369 76.9469C199.36 77.8553 199.201 77.927 198.739 77.2292C198.006 76.1231 194.964 77.0062 193.437 78.7674C192.904 79.3827 192.001 79.7142 191.43 79.5043C190.859 79.2944 189.2 80.2644 187.743 81.66C186.059 83.2735 184.597 84.0733 183.731 83.8562C182.982 83.6687 181.62 84.1841 180.704 85.0006C179.788 85.8178 178.582 86.4867 178.024 86.4867C176.747 86.4867 167.865 91.9403 165.459 94.2016C164.466 95.1339 163.361 95.8969 163.002 95.8969C162.643 95.8969 161.743 96.4782 161 97.1897C160.258 97.9005 158.387 99.4047 156.843 100.533C155.3 101.66 154.036 103.186 154.036 103.922C154.036 104.776 153.651 105.12 152.973 104.871C151.584 104.36 142.497 112.874 141.112 115.984C140.517 117.322 139.511 118.337 138.781 118.337C137.161 118.337 135.143 121.037 135.143 123.203C135.143 124.109 134.799 124.851 134.377 124.851C132.962 124.851 129.146 129.534 128.668 131.859C128.407 133.125 127.69 134.346 127.074 134.573C126.261 134.871 126.091 135.58 126.453 137.156C126.863 138.945 126.74 139.25 125.756 138.889C124.984 138.605 124.563 138.847 124.563 139.577C124.563 140.197 124.086 140.965 123.501 141.283C122.918 141.602 122.322 142.514 122.179 143.31C122.035 144.106 121.493 145.188 120.973 145.714C120.454 146.24 120.029 147.136 120.029 147.704C120.029 148.273 119.668 148.739 119.229 148.739C118.776 148.739 118.686 149.132 119.021 149.644C120.12 151.322 118.984 154.664 115.516 159.959C114.645 161.288 114.072 163.537 114.038 165.76C114.006 167.917 113.369 170.487 112.472 172.091C110.801 175.077 110.536 178.702 111.763 181.793C112.325 183.209 112.326 183.893 111.769 184.071C111.212 184.249 111.213 184.756 111.774 185.761C112.345 186.783 112.336 187.473 111.742 188.159C111.122 188.875 111.193 189.395 112.019 190.186C112.848 190.981 112.912 191.459 112.272 192.072C111.631 192.686 111.641 192.894 112.311 192.894C112.806 192.894 113.427 194.197 113.693 195.79C113.985 197.537 114.588 198.685 115.213 198.685C115.938 198.685 116.25 199.665 116.25 201.943C116.25 204.571 116.506 205.196 117.573 205.177C119.419 205.145 121.925 203.272 120.661 202.869C120.068 202.679 119.773 201.545 119.889 199.9C119.992 198.436 119.726 197.238 119.297 197.238C118.244 197.238 118.305 191.238 119.381 188.975C120.069 187.53 120.001 186.675 119.049 184.794C118.237 183.187 118.112 182.276 118.66 181.952C119.104 181.689 119.258 181.151 119.003 180.755C118.748 180.36 119.413 178.803 120.481 177.295C122.124 174.975 122.293 174.282 121.579 172.78C120.875 171.301 120.921 171.074 121.855 171.417C122.872 171.791 123.971 170.182 124.241 167.921C124.289 167.523 124.72 166.28 125.201 165.16C125.682 164.039 126.075 162.682 126.075 162.143C126.075 161.606 126.5 161 127.019 160.798C127.745 160.516 127.755 160.288 127.062 159.815C126.42 159.377 126.913 158.496 128.776 156.751C130.555 155.086 131.251 153.88 130.954 152.984C130.695 152.203 131.12 151.049 131.999 150.145C134.32 147.758 134.586 144.986 132.636 143.507C131.218 142.432 131.172 142.254 132.309 142.24C133.036 142.231 133.632 141.729 133.632 141.125C133.632 140.313 134.127 140.144 135.521 140.479C136.668 140.755 137.448 140.618 137.505 140.131C137.557 139.69 137.684 139.003 137.788 138.605C137.893 138.207 138.02 137.555 138.072 137.157C138.124 136.759 138.676 136.433 139.3 136.433C139.923 136.433 140.433 136.088 140.433 135.667C140.433 135.245 140.125 135.082 139.748 135.305C139.372 135.529 139.235 135.082 139.445 134.313C139.655 133.544 140.218 133.046 140.697 133.205C141.794 133.573 144.044 131.968 144.354 130.595C144.484 130.024 145.213 129.113 145.973 128.57C146.97 127.859 147.221 127.066 146.87 125.729C146.472 124.209 146.572 124.024 147.425 124.702C148.249 125.357 149.44 124.668 153.148 121.39C155.723 119.113 157.827 116.844 157.823 116.346C157.819 115.849 158.089 115.441 158.425 115.441C159.397 115.441 166.128 109.198 166.128 108.296C166.128 107.846 166.867 106.771 167.771 105.905C168.859 104.863 169.258 104.721 168.952 105.484C168.128 107.541 170.356 107.395 172.771 105.234C174.066 104.074 175.907 102.803 176.862 102.408C179.433 101.346 181.543 99.9954 182.225 98.9733C182.558 98.476 183.408 98.0678 184.114 98.0678C184.821 98.067 186.387 97.2527 187.595 96.2581C188.803 95.2628 190.418 94.4492 191.185 94.4492C191.951 94.4492 192.578 93.9606 192.578 93.3634C192.578 92.6772 193.3 92.2776 194.54 92.2776C195.619 92.2776 197.405 91.7911 198.508 91.1961C199.611 90.6018 202.129 89.4733 204.103 88.6887C206.078 87.904 207.693 86.9246 207.693 86.5127C207.693 86.1001 208.337 85.7628 209.124 85.7628C209.91 85.7628 210.748 85.28 210.984 84.6893C211.221 84.0987 211.879 83.7859 212.446 83.9951C213.014 84.2036 214.41 84.035 215.549 83.6202C217.189 83.023 217.531 82.5279 217.197 81.2379C216.966 80.3425 216.971 80.0175 217.21 80.5148C217.727 81.5955 220.258 81.7193 220.918 80.6958C221.175 80.2977 222.13 79.9459 223.041 79.9147C223.952 79.8836 224.272 79.6932 223.752 79.4927C222.436 78.9838 222.569 77.8003 223.941 77.8003C224.565 77.8003 225.075 77.4847 225.075 77.0989C225.075 76.7138 225.585 76.5857 226.208 76.8144C227.541 77.3045 227.742 79.2481 226.46 79.2481C225.975 79.2481 225.803 79.463 226.077 79.7265C226.352 79.9893 227.259 79.6129 228.093 78.8905C228.951 78.1463 229.609 77.9386 229.609 78.412C229.609 79.4363 232.363 79.5275 233.01 78.5242C233.267 78.1261 234.137 77.8003 234.944 77.8003C236.026 77.8003 236.426 77.2777 236.47 75.8097L236.53 73.8191L237.252 75.7047C237.834 77.2234 238.349 77.5216 239.9 77.2372C240.958 77.0439 242.002 76.4416 242.22 75.8987C242.437 75.3566 242.912 75.0895 243.276 75.3045C243.639 75.5194 244.624 75.3435 245.463 74.9128C246.511 74.3757 246.991 74.3685 246.991 74.8882C246.991 75.8249 253.194 75.0077 253.896 73.9783C254.162 73.5896 254.809 73.5266 255.336 73.8379C255.952 74.2027 256.105 74.113 255.765 73.586C255.06 72.4937 262.659 72.9743 263.831 74.0963C265.047 75.2617 267.647 75.1293 267.165 73.9262C266.887 73.2335 267.415 72.9693 268.972 73.0214C270.181 73.0619 271.171 73.476 271.172 73.9407C271.173 74.4061 271.365 75.2632 271.598 75.8452C271.884 76.5575 271.265 77.1568 269.709 77.6765C267.218 78.5083 266.881 79.1894 268.293 80.5423C268.985 81.2054 268.644 81.5058 266.798 81.8597C265.483 82.1117 264.091 82.6857 263.707 83.1359C262.472 84.5786 262.35 92.2776 263.561 92.2776C264.823 92.2776 266.483 88.2109 265.741 86.9398C264.827 85.377 265.838 85.4269 267.042 87.0042C267.933 88.1704 268.159 88.1595 270.767 86.8233C272.656 85.8562 273.682 84.7509 273.974 83.3704C274.235 82.1326 274.776 81.4775 275.358 81.6918C276.591 82.145 277.3 79.6143 276.228 78.5879C275.243 77.644 277.366 75.9378 280.243 75.3624C282.562 74.8984 284.421 71.5331 283.161 70.0796C282.544 69.3666 282.56 69.114 283.224 69.114C283.766 69.114 283.94 68.5631 283.664 67.7271C283.411 66.9641 283.558 66.1309 283.99 65.8747C285.225 65.1443 284.91 63.4729 283.559 63.5844C282.145 63.7009 280.398 61.4859 281.255 60.6643C281.575 60.3581 282.152 60.5869 282.539 61.1725C283.045 61.9383 283.246 61.9752 283.254 61.3035C283.278 59.331 279.883 56.0475 277.069 55.3215C275.406 54.893 274.197 54.1358 274.197 53.5227C274.197 52.3486 273.013 52.0952 272.348 53.1275C272.112 53.4916 272.348 53.9541 272.87 54.1561C273.514 54.4051 273.449 54.5405 272.665 54.5795C272.029 54.6107 270.754 54.1293 269.831 53.5097C268.757 52.7902 268.151 52.6809 268.151 53.2085C268.151 53.6624 267.726 53.8912 267.206 53.7174C266.687 53.543 266.351 52.9081 266.46 52.3059C266.701 50.9827 265.526 50.0293 262.426 49.0326C260.527 48.4224 259.946 48.502 259.258 49.4705C258.509 50.5245 258.41 50.4912 258.371 49.1716C258.282 46.2016 254.911 44.8725 253.015 47.0601C252.161 48.046 251.864 47.9989 250.357 46.6438C249.425 45.8042 248.47 45.4133 248.238 45.7752ZM244.832 48.0423C244.201 48.4253 244.098 48.8371 244.563 49.1129C244.98 49.3598 245.516 49.0746 245.754 48.4796C246.255 47.2294 246.208 47.2077 244.832 48.0423ZM253.537 68.5711C253.327 69.0691 253.156 68.6616 253.156 67.6663C253.156 66.6709 253.327 66.2641 253.537 66.7614C253.747 67.2594 253.747 68.0738 253.537 68.5711ZM241.555 72.3902C241.322 72.6131 240.9 72.2114 240.615 71.4977C240.206 70.4662 240.292 70.3829 241.039 71.0923C241.555 71.5838 241.788 72.168 241.555 72.3902ZM217.035 78.1623C216.796 78.7594 216.466 79.2481 216.303 79.2481C216.14 79.2481 216.006 78.7594 216.006 78.1623C216.006 77.5651 216.335 77.0765 216.738 77.0765C217.14 77.0765 217.274 77.5651 217.035 78.1623ZM221.056 78.6603C220.815 79.2372 220.636 79.0656 220.6 78.2223C220.567 77.4594 220.746 77.0323 220.997 77.2726C221.248 77.513 221.275 78.1376 221.056 78.6603ZM119.856 171.043C120.309 172.345 118.747 172.072 118.22 170.756C117.938 170.052 118.106 169.72 118.659 169.897C119.152 170.054 119.691 170.57 119.856 171.043Z" fill="#FF0481"/>
</g>
<defs>
<clipPath id="clip0_620_93184">
<rect width="1440" height="3393" fill="white" transform="translate(-474 -972)"/>
</clipPath>
</defs>
</svg>
