<svg width="59" height="51" viewBox="0 0 59 51" fill="none" xmlns="http://www.w3.org/2000/svg">
<path fill-rule="evenodd" clip-rule="evenodd" d="M0.0499509 39.9515C0.183532 39.8846 0.704474 39.996 1.20775 40.199C2.00522 40.5207 2.12247 40.6721 2.12247 41.3795C2.12247 41.8259 2.21269 42.1908 2.32325 42.1908C2.43381 42.1906 2.52402 42.2949 2.52402 42.4223C2.52402 42.5499 2.72613 42.8176 2.97349 43.0173C3.39404 43.3573 3.39324 43.385 2.96224 43.4521C2.36206 43.5456 2.62762 44.2824 3.49818 44.9386C3.84592 45.2006 4.13021 45.5539 4.13021 45.7235C4.13021 45.8931 4.31091 46.1529 4.53176 46.3011C5.04788 46.6473 5.05029 47.1665 4.53578 47.1665C4.30903 47.1665 4.67043 47.5844 5.37769 48.14C6.64845 49.1382 7.17635 49.3626 6.90411 48.789C6.79703 48.5638 6.92258 48.4645 7.31395 48.4645C7.62421 48.4645 7.87799 48.3477 7.87799 48.2049C7.87799 48.0031 7.94947 48.0031 8.19923 48.2049C8.37591 48.3477 8.70117 48.4645 8.92202 48.4645C9.23442 48.4645 9.25209 48.4068 9.00233 48.2049C8.55018 47.8395 8.60238 47.1665 9.08264 47.1665C9.30349 47.1665 9.48418 47.0722 9.48418 46.9568C9.48418 46.8417 9.30697 46.8024 9.09013 46.8697C8.87329 46.9367 8.33763 46.8636 7.89968 46.707C6.88751 46.3448 6.56038 45.4736 7.26148 45.0076C7.73906 44.69 7.73932 44.6649 7.27219 44.2922C7.00556 44.0795 6.67147 43.9635 6.52986 44.0345C6.07852 44.2597 6.25199 43.6855 6.8072 43.115C7.10167 42.8124 7.3426 42.4807 7.3426 42.3777C7.3426 42.2748 7.10167 42.1906 6.8072 42.1906C6.35104 42.1906 6.2718 42.0463 6.2718 41.2171C6.2718 40.6816 6.36335 40.2435 6.47498 40.2435C6.58688 40.2435 6.83665 40.0387 7.03019 39.7881C7.28691 39.456 7.29334 39.3773 7.05402 39.4967C6.80211 39.6224 6.77534 39.4385 6.93837 38.7081C7.05535 38.1842 7.1271 37.2444 7.09765 36.6198C7.06553 35.9385 7.15735 35.484 7.32734 35.484C7.48287 35.484 7.61029 35.2951 7.61029 35.0641C7.61029 34.833 7.73263 34.5829 7.88228 34.5083C8.03192 34.4334 8.08519 34.2818 8.00033 34.171C7.91574 34.0602 7.98106 33.9696 8.14569 33.9696C8.3221 33.9696 8.3561 33.8586 8.22841 33.6992C7.86327 33.2431 7.98721 32.3739 8.47416 31.9767C8.74828 31.7532 8.8658 31.4501 8.76247 31.2327C8.63478 30.9642 8.69715 30.8995 8.99429 30.9916C9.30322 31.0875 9.37202 30.9964 9.281 30.6115C9.20551 30.2924 9.36934 29.9249 9.72431 29.617C10.0338 29.3483 10.2873 28.9427 10.2873 28.7157C10.2873 28.4888 10.4765 27.777 10.7078 27.1341C10.9999 26.3219 11.2657 25.9639 11.5779 25.9617C11.9138 25.9591 11.9403 25.9137 11.6823 25.7815C11.2732 25.5716 11.5998 24.7006 12.2511 24.2636C12.4787 24.1111 12.6013 23.8526 12.5236 23.689C12.446 23.5257 12.8047 23.0506 13.3208 22.6335C13.9175 22.1515 14.2133 21.7331 14.133 21.4851C14.0637 21.2705 14.2543 20.8807 14.5563 20.6185C14.8585 20.3563 15.1059 20.011 15.1059 19.8513C15.1059 19.4857 17.1227 16.943 17.959 16.2542C18.3038 15.9701 18.5859 15.6538 18.5859 15.5511C18.5859 15.4483 18.8009 15.1904 19.064 14.9778C19.3269 14.7653 19.8832 14.2299 20.3003 13.7879C20.7174 13.3461 21.2817 12.9844 21.5539 12.9844C21.8695 12.9844 21.9967 12.8741 21.9046 12.68C21.7159 12.2824 24.8645 9.68086 26.0146 9.28452C26.5093 9.11404 26.8846 8.82609 26.8846 8.6171C26.8846 8.15348 27.8831 7.57585 28.6843 7.57585C29.0195 7.57585 29.2939 7.47719 29.2939 7.35647C29.2939 6.95127 31.0256 5.85895 31.8855 5.72201C32.3537 5.64737 32.8053 5.44206 32.8891 5.26574C32.9994 5.03317 33.2614 4.98428 33.8442 5.08791C34.506 5.20538 34.6187 5.17034 34.4851 4.88866C34.3801 4.66756 34.4698 4.54705 34.7397 4.54705C34.9691 4.54705 35.2528 4.41033 35.3706 4.24309C35.4884 4.07608 35.8257 3.9056 36.1202 3.8645C36.4147 3.82339 36.8149 3.66806 37.0092 3.51943C37.2038 3.37059 37.5352 3.249 37.7454 3.249C37.9558 3.249 38.1279 3.14581 38.1279 3.0199C38.1279 2.89031 38.2733 2.86456 38.4626 2.9604C39.0833 3.27496 40.319 2.95002 42.2773 1.95722C42.769 1.70778 43.6008 1.54379 44.4229 1.53406C45.2203 1.52475 46.1707 1.34259 46.7641 1.08558C47.8684 0.607246 49.2088 0.531526 50.3521 0.88265C50.8757 1.04361 51.1284 1.04404 51.1943 0.88438C51.2601 0.724936 51.4478 0.725369 51.8194 0.885895C52.1974 1.04945 52.4527 1.04685 52.7063 0.876808C52.971 0.699192 53.1632 0.719528 53.4558 0.95599C53.7497 1.19332 53.9267 1.21171 54.1534 1.02846C54.3804 0.845006 54.4575 0.847819 54.4575 1.03971C54.4575 1.1812 54.9394 1.35904 55.5283 1.43519C56.1743 1.5187 56.5991 1.69134 56.5991 1.87047C56.5991 2.07794 56.9613 2.16729 57.8038 2.16729C58.7758 2.16729 59.0068 2.24041 58.9998 2.54589C58.9881 3.07441 58.2953 3.7918 58.1462 3.43008C58.076 3.26025 57.6565 3.17588 57.0483 3.20898C56.5068 3.2384 56.0637 3.16225 56.0637 3.03937C56.0637 2.738 53.8448 2.75552 53.008 3.0636C52.4736 3.26047 52.1575 3.241 51.4617 2.96862C50.8674 2.73605 50.5307 2.70036 50.4107 2.85721C50.3136 2.9842 50.1147 3.02833 49.9682 2.95521C49.8221 2.8823 49.2463 3.07268 48.6886 3.37837C47.8307 3.84892 47.5742 3.89716 47.0187 3.69272C46.4718 3.4913 46.3878 3.5045 46.5147 3.77168C46.6531 4.06288 46.058 4.37744 45.2219 4.45489C45.0747 4.46852 44.6151 4.59205 44.2007 4.72965C43.7863 4.86724 43.2843 4.97974 43.0852 4.97974C42.8863 4.97974 42.6622 5.10154 42.5875 5.25017C42.4834 5.45786 42.3991 5.46067 42.2243 5.2625C42.0623 5.07861 41.7362 5.21966 41.0911 5.75295C40.4751 6.26222 40.0294 6.46168 39.698 6.37666C39.4089 6.30246 38.9822 6.42404 38.6481 6.67565C37.7652 7.34025 36.7399 7.4164 36.193 6.85802C35.7955 6.45216 35.7296 6.43897 35.7245 6.76456C35.7213 6.97268 35.5355 7.14316 35.312 7.14316C35.0119 7.14316 34.9493 7.28487 35.0732 7.68402C35.1752 8.01221 35.1246 8.23547 34.9445 8.25192C34.7814 8.26684 34.5274 8.30319 34.3801 8.33304C34.2329 8.3629 33.992 8.39924 33.8448 8.41417C33.6975 8.4291 33.5771 8.58725 33.5771 8.76573C33.5771 8.94421 33.4494 9.09024 33.2936 9.09024C33.1378 9.09024 33.0775 9.00198 33.16 8.89402C33.2427 8.78628 33.0773 8.74712 32.793 8.80727C32.5084 8.86741 32.3242 9.02858 32.3834 9.16574C32.5194 9.47966 31.9256 10.1237 31.4181 10.2126C31.2069 10.2498 30.8698 10.4584 30.669 10.676C30.4062 10.9614 30.1128 11.0332 29.6186 10.9328C29.0564 10.8188 28.9879 10.8476 29.2387 11.0916C29.481 11.3277 29.2259 11.6686 28.0137 12.73C27.1718 13.4673 26.3326 14.0696 26.1484 14.0683C25.9645 14.0672 25.8138 14.1446 25.8138 14.2407C25.8138 14.5189 23.5049 16.4459 23.1713 16.4459C23.0051 16.4459 22.6073 16.6575 22.2871 16.9162C21.9019 17.2275 21.8492 17.3418 22.1313 17.2543C22.8921 17.0183 22.8383 17.6563 22.039 18.3475C21.6101 18.7183 21.1398 19.2453 20.9939 19.5186C20.6012 20.2548 20.1016 20.8586 19.7237 21.054C19.5397 21.1492 19.3888 21.3925 19.3888 21.5948C19.3885 21.7971 19.0873 22.2454 18.7195 22.5913C18.3514 22.937 18.0505 23.3993 18.0505 23.6189C18.0505 23.8383 17.8698 24.0179 17.649 24.0179C17.3952 24.0179 17.2474 24.2245 17.2474 24.5795C17.2474 24.8882 17.0675 25.3994 16.8475 25.7153C16.6277 26.0311 16.2104 26.7518 15.9202 27.3171C15.63 27.8824 15.2678 28.3447 15.1155 28.3447C14.9629 28.3447 14.8382 28.529 14.8382 28.7542C14.8382 28.9795 14.6596 29.2192 14.4412 29.2869C14.2227 29.3546 14.1071 29.543 14.1844 29.7055C14.2615 29.868 14.1992 30.2676 14.0458 30.5936C13.8249 31.063 13.6418 31.161 13.1648 31.0654C12.8336 30.9992 12.7134 31.0007 12.8973 31.0691C13.297 31.2173 13.3428 31.9416 12.9643 32.1307C12.817 32.2042 12.6869 32.4777 12.6754 32.7384C12.6639 32.9991 12.5935 33.0908 12.5193 32.942C12.3312 32.5653 11.8935 32.6032 11.8935 32.9961C11.8935 33.1745 11.7768 33.3206 11.6341 33.3206C11.4917 33.3206 11.4443 33.4666 11.5289 33.6451C11.7101 34.0267 12.4289 34.0843 12.4289 33.7171C12.4289 33.5784 12.5084 33.5291 12.6058 33.6077C12.703 33.6862 12.5638 33.9458 12.2966 34.1846C12.0214 34.4302 11.9446 34.6186 12.1197 34.6186C12.4985 34.6186 12.5322 35.407 12.1612 35.5922C12.0139 35.6657 11.8935 35.9147 11.8935 36.1458C11.8935 36.4556 11.7002 36.5702 11.1573 36.5828L10.4211 36.5999L11.1185 36.8067C11.6801 36.9733 11.7904 37.1206 11.6852 37.5646C11.6137 37.8677 11.391 38.1664 11.1902 38.2287C10.9897 38.2908 10.8909 38.4269 10.9704 38.531C11.05 38.635 10.9849 38.9169 10.8256 39.1573C10.627 39.4571 10.6243 39.5945 10.8165 39.5945C11.1629 39.5945 10.8607 41.3704 10.48 41.5714C10.3363 41.6474 10.313 41.8328 10.4281 41.9836C10.563 42.1599 10.5298 42.2036 10.3349 42.1062C9.93097 41.9044 10.1087 44.0799 10.5237 44.4153C10.9547 44.7636 10.9057 45.5078 10.4607 45.3698C10.2046 45.2904 10.1069 45.4414 10.1261 45.887C10.1411 46.2332 10.2942 46.5166 10.4661 46.517C10.6382 46.5172 10.9552 46.5722 11.1704 46.6388C11.4338 46.7206 11.6555 46.5436 11.8477 46.098C12.1553 45.3849 12.4072 45.2884 12.9075 45.6928C13.1527 45.8909 13.2638 45.7934 13.3947 45.2648C13.4879 44.8882 13.7002 44.4899 13.8667 44.38C14.4002 44.0265 17.2474 43.9914 17.2474 44.3382C17.2474 44.6993 15.7435 45.1746 15.2734 44.9622C14.6955 44.7006 14.7139 44.9901 15.2973 45.3347C15.7285 45.5896 15.7245 45.6542 15.2303 46.4011C14.8727 46.9417 14.4639 47.2355 13.9534 47.319C13.4956 47.3939 13.2534 47.5485 13.3326 47.7153C13.5002 48.0682 12.5643 48.2711 12.1847 47.9643C11.8356 47.6822 11.2047 48.2902 10.9919 49.1136C10.8203 49.7775 9.57574 50.3097 9.0382 49.9491C8.77451 49.7723 8.68109 49.7771 8.68109 49.967C8.68109 50.1221 8.47737 50.1721 8.16818 50.0929C7.88602 50.0205 7.5779 50.0626 7.48314 50.1864C7.21303 50.5399 6.59491 50.4497 6.63614 50.0629C6.67924 49.6583 5.86008 49.1579 5.55624 49.4035C5.44301 49.495 5.5276 49.6603 5.74417 49.771C6.02739 49.9158 6.04104 49.9733 5.79262 49.9757C5.06314 49.9826 3.84886 49.0106 3.58036 48.2051C3.42188 47.729 3.14187 47.3828 2.91513 47.3828C2.48092 47.3828 2.38723 47.044 2.76897 46.8534C2.90362 46.7861 3.07468 46.8534 3.14936 47.0029C3.24145 47.1875 3.29151 47.1686 3.30597 46.9443C3.31748 46.7624 3.13946 46.3974 2.91031 46.133C2.64422 45.8256 2.6038 45.6521 2.79895 45.6521C2.96679 45.6521 3.05139 45.5305 2.98714 45.3817C2.92262 45.233 2.68785 45.1368 2.46513 45.1681C1.97577 45.2369 1.62322 44.9005 1.25459 44.0131C1.02892 43.4696 1.05837 43.3033 1.41655 43.1064C1.80632 42.8918 1.79401 42.8636 1.30599 42.8524C0.207626 42.8269 -0.283869 41.8618 0.525116 41.3192C0.889722 41.0747 0.872321 40.9895 0.371189 40.5583C0.060659 40.2913 -0.0838984 40.0181 0.0499509 39.9515ZM0.888383 38.9764C1.03 38.796 1.18232 38.7663 1.28431 38.8996C1.37559 39.019 1.27012 39.1722 1.05007 39.2406C0.587757 39.3838 0.579726 39.3704 0.888383 38.9764ZM8.48031 41.4685C8.66449 41.4085 8.51378 41.3594 8.14569 41.3594C7.77761 41.3594 7.62716 41.4085 7.81107 41.4685C7.99524 41.5286 8.2964 41.5286 8.48031 41.4685ZM9.89269 38.0383C9.97514 37.9717 9.82657 37.8508 9.56262 37.7694C9.18115 37.6522 9.15036 37.6768 9.41271 37.8906C9.59447 38.0386 9.81051 38.105 9.89269 38.0383ZM12.0273 31.0191C12.2482 30.9505 12.4289 30.8562 12.4289 30.8095C12.4289 30.7628 12.2482 30.7245 12.0273 30.7245C11.8065 30.7245 11.6258 30.8188 11.6258 30.9341C11.6258 31.0492 11.8065 31.0875 12.0273 31.0191ZM12.2115 32.1703C12.4249 32.1013 12.3614 32.05 12.0495 32.0396C11.7674 32.0303 11.6094 32.0814 11.6983 32.1532C11.7872 32.225 12.0182 32.2328 12.2115 32.1703ZM46.3765 3.19946C46.8581 3.32926 46.7569 2.88208 46.2702 2.73108C46.0098 2.65038 45.8872 2.69863 45.9525 2.85677C46.0108 2.99804 46.2014 3.1523 46.3765 3.19946Z" fill="#FF0481"/>
</svg>
