<svg width="158" height="16" viewBox="0 0 158 16" fill="none" xmlns="http://www.w3.org/2000/svg">
<path fill-rule="evenodd" clip-rule="evenodd" d="M85.3588 0.229279C85.0276 0.351477 84.6959 0.551632 84.6214 0.674045C84.5319 0.82137 84.3773 0.79968 84.1635 0.609832C83.8898 0.366725 83.7944 0.38498 83.5335 0.731172C83.3382 0.990172 83.1909 1.04987 83.1292 0.895033C83.018 0.614987 82.0205 0.801613 81.2393 1.24896C80.9659 1.40552 80.7196 1.51719 80.6921 1.49722C80.4904 1.3514 80.4597 1.526 80.6277 1.86209C80.7694 2.14515 80.9783 2.23255 81.3374 2.15932C81.6172 2.10198 81.8462 1.95938 81.8462 1.84234C81.8462 1.72551 81.9817 1.68535 82.1473 1.75343C82.3129 1.82129 82.4484 1.76717 82.4484 1.63316C82.4484 1.49915 82.5054 1.4504 82.5751 1.52492C82.6449 1.59944 82.8767 1.56036 83.0905 1.43816C83.3041 1.31575 84.1122 1.1798 84.8861 1.13578C86.2448 1.05889 86.8642 0.802687 86.8642 0.317975C86.8642 0.163348 86.7865 0.169576 86.6304 0.336658C86.4523 0.52715 86.3446 0.517701 86.1788 0.296928C86.012 0.0748673 85.8203 0.0589746 85.3588 0.229279ZM87.4664 0.250325C87.4664 0.424065 87.3536 0.621 87.2155 0.688005C87.0776 0.75501 87.3457 0.776056 87.8116 0.734822C88.3246 0.689293 88.8192 0.780137 89.0661 0.965045C89.5173 1.30329 89.6046 2.09382 89.2343 2.49005C88.9101 2.83689 88.9302 4.77745 89.2622 5.20547C89.6829 5.74774 93.1541 5.50184 95.0397 4.79614C95.838 4.49719 96.7133 4.2528 96.9849 4.2528C97.2564 4.2528 97.5344 4.15615 97.6027 4.03804C97.6709 3.91992 97.9525 3.82328 98.2285 3.82328C98.5045 3.82328 98.6821 3.73974 98.6231 3.63773C98.5643 3.53571 98.975 3.39419 99.5358 3.3231C100.097 3.25202 100.667 3.0946 100.804 2.97347C100.94 2.85235 101.103 2.80747 101.164 2.87383C101.226 2.93997 101.883 2.79436 102.622 2.54975C103.362 2.30536 104.184 2.1052 104.448 2.1052C104.713 2.1052 104.929 1.99825 104.929 1.86746C104.929 1.73667 105.057 1.68213 105.213 1.74634C105.369 1.81055 105.753 1.78092 106.066 1.68041C106.379 1.5799 106.522 1.48949 106.384 1.47939C106.246 1.4693 106.133 1.35719 106.133 1.23049C106.133 1.10399 106.371 1.20064 106.662 1.44525C106.953 1.69029 107.487 1.89044 107.85 1.89044C108.749 1.89044 109.14 2.08072 109.007 2.45311C108.945 2.62513 109.048 3.19618 109.236 3.72255C109.561 4.63356 109.613 4.67694 110.314 4.62712C110.719 4.59834 111.117 4.47829 111.198 4.36018C111.29 4.22724 111.347 4.24764 111.349 4.41387C111.353 4.73386 112.476 4.78003 112.657 4.46756C112.725 4.34944 113.091 4.2528 113.471 4.2528C113.994 4.2528 114.163 4.16152 114.165 3.87697C114.167 3.59155 114.209 3.56943 114.336 3.78526C114.519 4.09366 115.879 3.93731 116.083 3.58425C116.143 3.47945 116.391 3.39311 116.633 3.39247C117.398 3.39054 118.483 2.98314 118.942 2.52527C119.374 2.09468 119.916 2.12904 119.661 2.57101C119.58 2.71125 119.684 2.70588 119.945 2.5562C120.172 2.42627 120.674 2.31996 121.06 2.31996C121.447 2.31996 122.017 2.20764 122.328 2.07063C122.639 1.93339 122.961 1.83675 123.044 1.85587C123.127 1.87476 123.194 1.80046 123.194 1.69072C123.194 1.56766 123.445 1.56766 123.846 1.69115C124.205 1.8011 124.522 1.81506 124.552 1.72186C124.629 1.47188 128.903 1.69866 129.153 1.96604C129.224 2.04249 129.452 2.1052 129.659 2.1052C129.866 2.1052 130.235 2.30428 130.479 2.54739C131.273 3.34007 133.059 4.25537 133.605 4.1495C133.887 4.09495 134.179 4.1583 134.256 4.29038C134.464 4.65182 137.846 4.77488 137.85 4.42117C137.852 4.218 137.9 4.22574 138.033 4.45059C138.136 4.6239 138.504 4.74653 138.883 4.73407C139.528 4.71302 140.544 4.70895 142.463 4.71968C143.807 4.7272 149.371 4.43684 149.499 4.35244C149.56 4.31228 150.311 4.35115 151.168 4.43878C152.024 4.52618 152.77 4.51996 152.825 4.42482C152.88 4.32947 153.111 4.35781 153.337 4.48774C153.564 4.61767 154.032 4.67952 154.377 4.6254C154.804 4.5584 155.082 4.63764 155.245 4.87302C155.458 5.17733 155.483 5.16273 155.457 4.75082C155.44 4.49333 155.361 4.32624 155.28 4.3795C155.199 4.43298 155.06 4.34729 154.97 4.18944C154.629 3.58683 149.429 3.11006 149.219 3.66221C149.138 3.87654 149.081 3.87611 148.939 3.66027C148.8 3.44959 147.833 3.42232 144.558 3.53614C142.247 3.61668 138.96 3.67015 137.254 3.65534C135.463 3.63944 134.052 3.71783 133.913 3.84046C133.743 3.99165 133.682 3.94827 133.703 3.69034C133.721 3.46441 133.526 3.26662 133.185 3.1659C132.885 3.0772 132.398 2.8021 132.105 2.55491C131.811 2.30751 131.45 2.1052 131.304 2.1052C131.158 2.1052 130.875 1.91836 130.676 1.68986C130.158 1.09476 127.782 0.566236 126.2 0.694448C125.485 0.752433 124.878 0.815572 124.85 0.835115C124.823 0.854443 124.717 0.882362 124.616 0.897181C124.515 0.911999 124.365 0.995755 124.283 1.08316C124.202 1.17078 124.034 1.15296 123.91 1.04365C123.773 0.921448 123.145 0.921878 122.286 1.04472C120.42 1.31124 120.217 1.35397 120.069 1.51139C120 1.58548 119.816 1.59365 119.659 1.52943C119.503 1.46543 119.264 1.50817 119.127 1.62457C118.991 1.74119 118.608 1.89087 118.277 1.95745C117.155 2.18273 115.663 2.72027 116.119 2.73509C116.367 2.74304 116.571 2.83603 116.571 2.94169C116.571 3.05079 116.263 3.05959 115.858 2.96188C115.169 2.79565 113.885 3.02867 113.459 3.39741C113.138 3.67552 110.568 3.84926 110.167 3.6199C109.967 3.505 109.694 2.99645 109.56 2.48962C109.192 1.09283 108.924 0.822874 107.816 0.729454C106.838 0.647201 104.496 0.912214 103.925 1.16971C103.592 1.32069 102.981 1.45598 102.52 1.48176C102.355 1.49099 101.722 1.65507 101.115 1.8462C100.508 2.03755 99.921 2.2027 99.8106 2.21344C99.7002 2.22418 99.1131 2.39126 98.5059 2.58497C97.3997 2.93761 94.9369 3.66543 93.3374 4.11213C92.8683 4.24313 92.4843 4.41193 92.4843 4.48688C92.4843 4.56183 92.2585 4.59662 91.9825 4.56441C91.6867 4.52962 91.3922 4.65182 91.265 4.86228C91.0683 5.18743 91.0586 5.18571 91.1582 4.84338C91.2437 4.54938 91.1486 4.46691 90.7218 4.46433C90.0111 4.46004 89.7509 4.24549 89.8142 3.7159C89.9525 2.55641 90.0821 1.83804 90.1859 1.65872C90.2487 1.55005 90.2044 1.46092 90.0876 1.46092C89.9707 1.46092 89.875 1.171 89.875 0.816646C89.875 0.462293 89.8523 0.165924 89.8248 0.158193C89.7973 0.150462 89.2554 0.0969872 88.6205 0.0394317C87.6944 -0.0447539 87.4664 -0.00287619 87.4664 0.250325ZM79.9117 1.78306C79.9751 1.96024 79.9472 2.1052 79.8495 2.1052C79.7517 2.1052 79.6369 1.9931 79.5942 1.85608C79.5362 1.66967 79.4183 1.66795 79.1259 1.84964C78.9109 1.983 78.8509 2.09511 78.9924 2.09876C79.1339 2.1022 79.3168 2.2987 79.3985 2.53536C79.5346 2.9288 79.5839 2.93804 79.976 2.64446C80.4055 2.32232 80.4193 1.46092 79.9948 1.46092C79.8856 1.46092 79.8481 1.60589 79.9117 1.78306ZM29.1413 1.91879C29.0819 2.02123 28.7453 2.10842 28.393 2.11229C27.8159 2.11852 26.8924 2.41381 25.1432 3.1513C24.812 3.2911 24.27 3.51166 23.9389 3.64159C22.5537 4.18493 22.2323 4.37156 22.31 4.58803C22.36 4.7272 22.1735 4.78175 21.8319 4.72827C21.524 4.67995 20.969 4.7811 20.5983 4.95334C20.2278 5.12536 19.676 5.37448 19.3725 5.50656C18.8197 5.74731 18.6146 6.18563 19.0548 6.18563C19.1834 6.18563 19.2364 6.24168 19.1722 6.31041C19.1082 6.37913 18.8518 6.31857 18.6028 6.17575C18.2274 5.96099 18.109 5.97624 17.9111 6.26574C17.7798 6.45794 17.5231 6.61515 17.3404 6.61515C17.158 6.61515 16.8517 6.70148 16.66 6.80671C15.9611 7.19113 15.1036 7.54828 14.9627 7.5137C14.8832 7.49437 14.7283 7.65802 14.6185 7.8775C14.478 8.15841 14.2682 8.24582 13.9099 8.17258C13.6111 8.11138 13.4011 8.16722 13.4011 8.3081C13.4011 8.44017 13.2644 8.54798 13.0972 8.54798C12.7638 8.54798 12.0651 8.93369 11.6382 9.35333C11.4881 9.50109 11.231 9.62178 11.0668 9.62178C10.9024 9.62178 10.8233 9.71735 10.8907 9.83418C10.9612 9.95595 10.8803 9.99181 10.7011 9.91815C10.5294 9.84771 9.98368 9.99374 9.48851 10.2429C8.99334 10.4918 8.51743 10.6956 8.43092 10.6956C8.34441 10.6956 7.79364 11.0338 7.20694 11.4472C6.62024 11.8606 6.04658 12.1989 5.93217 12.1989C5.81776 12.1989 5.18309 12.5855 4.52172 13.0579C3.86056 13.5304 3.18895 13.917 3.02938 13.917C2.86981 13.917 2.79353 14.0108 2.85977 14.1255C2.92601 14.2402 2.75058 14.3955 2.47018 14.4708C2.18957 14.5462 1.96015 14.7393 1.96015 14.8999C1.96015 15.0621 1.8351 15.1407 1.67934 15.0767C1.52499 15.0133 1.33892 15.0646 1.26606 15.1909C1.1932 15.317 1.26687 15.4203 1.42985 15.4203C1.59263 15.4203 1.77308 15.5412 1.83048 15.6887C1.90455 15.8792 2.02619 15.8361 2.24858 15.5403C2.4212 15.311 2.56231 15.1924 2.56231 15.2768C2.56231 15.3612 2.78731 15.2725 3.0623 15.0797C3.33748 14.8868 3.51913 14.6538 3.46594 14.5621C3.41295 14.4702 3.50609 14.2739 3.67308 14.1257C3.92619 13.9011 3.95529 13.915 3.84931 14.211C3.72969 14.5443 4.71421 14.0529 8.8984 11.6906C9.53327 11.3321 9.99011 10.9284 9.99191 10.7241C9.99452 10.4276 10.0234 10.4215 10.1796 10.6857C10.3255 10.9325 10.4616 10.9477 10.8289 10.7587C11.0844 10.6273 11.4515 10.4658 11.6448 10.3996C11.8379 10.3335 11.9975 10.1074 11.9991 9.89689C12.0017 9.57002 12.0316 9.56122 12.2036 9.83654C12.373 10.1076 12.4718 10.0638 12.8243 9.561C13.1639 9.07694 13.2986 9.01208 13.5332 9.22039C13.7686 9.42935 13.8447 9.38834 13.9395 9.0007C14.0089 8.71678 14.1651 8.56839 14.325 8.6341C14.654 8.76919 15.7953 8.37811 16.2244 7.98317C16.3973 7.82424 16.8489 7.62924 17.228 7.55C18.1774 7.35177 20.8277 6.04496 20.8277 5.77501C20.8277 5.65389 20.9488 5.60449 21.0967 5.66527C21.2446 5.72605 21.4823 5.62511 21.625 5.44106C21.8301 5.1769 21.9455 5.16058 22.1743 5.36375C22.3476 5.51773 22.5184 5.54028 22.5993 5.42023C22.792 5.13395 24.0392 4.41408 24.0392 4.58911C24.0392 4.66921 24.1707 4.6181 24.3315 4.47529C24.4922 4.33269 24.7098 4.27277 24.8152 4.34235C25.084 4.52017 25.645 4.25752 25.645 3.95385C25.645 3.70988 27.4789 3.17341 28.4049 3.14657C28.6533 3.13948 28.8565 3.05014 28.8565 2.94835C28.8565 2.84634 28.9936 2.81928 29.1612 2.888C29.3288 2.95694 29.7483 2.888 30.0933 2.73509C30.6696 2.47974 30.7517 2.49757 31.0979 2.95522C31.337 3.27092 31.4277 3.61389 31.3454 3.89093C31.2741 4.13124 31.19 4.72183 31.1587 5.20311C31.1272 5.68438 31.0461 6.4165 30.9783 6.82991C30.7061 8.48892 30.7224 9.10185 31.0559 9.72916C31.3741 10.3275 31.4805 10.3734 32.5491 10.3734C33.182 10.3734 33.8971 10.256 34.1384 10.1125C34.4864 9.90569 34.5065 9.85028 34.2357 9.84406C34.0481 9.83998 33.8084 9.67203 33.703 9.4708C33.5569 9.1914 33.4477 9.1622 33.2396 9.34689C33.0714 9.49636 32.6998 9.52986 32.2667 9.43494C31.6198 9.29277 31.5688 9.22447 31.6007 8.53875C31.6483 7.51929 31.8281 6.19401 32.0136 5.49582C32.0987 5.1754 32.1372 4.37435 32.0991 3.71568C32.0419 2.72478 31.9445 2.45805 31.5361 2.17178C30.9991 1.7953 29.3153 1.61748 29.1413 1.91879ZM54.2474 1.983C53.5973 2.21945 53.5613 2.44817 54.19 2.34788C54.2689 2.33542 54.2817 2.469 54.2187 2.64468C54.1326 2.88456 54.2566 2.96424 54.7159 2.96424C55.0523 2.96424 55.37 2.89079 55.422 2.80081C55.474 2.71104 56.3443 2.65456 57.3563 2.67539C58.6917 2.70288 59.2899 2.80381 59.5376 3.0437C59.9195 3.41352 60.0791 4.46756 59.7531 4.46756C59.6373 4.46756 59.6044 4.57407 59.6797 4.70443C59.7549 4.83479 59.8489 5.38114 59.8884 5.91868C59.9279 6.45601 60.0108 7.06571 60.0723 7.27317C60.4823 8.65558 63.5517 8.74213 66.5527 7.45593C66.8162 7.34318 66.9565 7.15505 66.8782 7.01976C66.8028 6.88897 66.8654 6.68817 67.0175 6.5737C67.4573 6.24297 66.2325 6.58315 65.3598 7.03436C64.8339 7.30624 64.5742 7.35113 64.5092 7.18147C64.4481 7.02255 64.4098 7.03543 64.3996 7.21841C64.3909 7.37303 64.2934 7.43982 64.183 7.36681C64.0726 7.29379 63.9823 7.34211 63.9823 7.47419C63.9823 7.60626 63.8743 7.64277 63.7422 7.55558C63.6103 7.46839 62.9554 7.39558 62.287 7.39387C61.5265 7.39193 60.9671 7.27983 60.7916 7.09449C60.6136 6.90593 60.489 6.19787 60.4496 5.14963C60.3733 3.12724 60.3466 2.98679 59.9097 2.31846C59.5753 1.80712 59.4579 1.78092 57.305 1.73689C55.8249 1.70682 54.7745 1.79122 54.2474 1.983ZM29.6593 2.31996C29.6593 2.43808 29.6196 2.53472 29.5708 2.53472C29.5221 2.53472 29.4265 2.43808 29.3583 2.31996C29.29 2.20184 29.33 2.1052 29.4468 2.1052C29.5636 2.1052 29.6593 2.20184 29.6593 2.31996ZM52.8351 2.54739C52.7613 2.67496 52.4572 2.71662 52.1411 2.64231C51.4817 2.48747 49.3298 3.10169 49.3298 3.44487C49.3298 3.57416 49.3814 3.62505 49.4444 3.55762C49.5074 3.49019 49.7896 3.56299 50.0714 3.71955C50.3535 3.87611 50.7308 3.95299 50.9102 3.89071C52.2139 3.43821 53.3442 2.84011 53.3442 2.60259C53.3442 2.26369 53.0192 2.22847 52.8351 2.54739ZM77.1151 2.50423C76.9021 2.54632 76.6376 2.65756 76.5272 2.7512C76.4168 2.84462 75.6942 3.08773 74.9214 3.29132C74.1487 3.4947 73.4261 3.73265 73.3157 3.82006C73.2053 3.90725 72.8585 4.04448 72.5447 4.1248C72.1559 4.22445 72.0102 4.37048 72.0869 4.58395C72.1485 4.75619 72.1192 4.89707 72.0215 4.89707C71.9237 4.89707 71.8077 4.7811 71.7633 4.63915C71.6519 4.28114 70.2046 5.02636 70.2046 5.4417C70.2046 5.82934 71.1558 5.78231 71.2975 5.38758C71.3519 5.23596 71.512 5.11334 71.6535 5.11505C71.8334 5.11742 71.8201 5.18099 71.6096 5.32659C71.0211 5.73356 71.8801 5.56648 72.7135 5.11183C73.1467 4.8756 73.6035 4.68231 73.7288 4.68231C74.0274 4.68231 75.1852 4.06187 75.3191 3.82993C75.3767 3.73029 75.6043 3.69936 75.8249 3.76121C76.0491 3.82392 76.2261 3.76765 76.2261 3.63364C76.2261 3.50157 76.3219 3.39376 76.4387 3.39376C76.5555 3.39376 76.6035 3.47644 76.5451 3.57759C76.4866 3.67853 76.6649 3.71504 76.9409 3.65856C77.2169 3.60208 77.5334 3.37443 77.6442 3.1528C77.7552 2.93095 77.9784 2.74948 78.14 2.74948C78.3018 2.74948 78.434 2.67689 78.434 2.58841C78.434 2.41811 77.7642 2.37537 77.1151 2.50423ZM48.3252 3.55483C48.3246 3.64331 47.9639 3.7378 47.5235 3.76465C47.0831 3.79128 46.3836 3.99702 45.969 4.22166C45.5543 4.44608 44.8989 4.69949 44.5125 4.78454C44.1262 4.86958 43.6294 5.05943 43.4086 5.20633C43.1878 5.35322 42.7368 5.54479 42.4062 5.63198C41.6892 5.82118 41.2635 6.16179 41.4155 6.42466C41.4759 6.52946 41.4351 6.61515 41.3247 6.61515C41.2143 6.61515 41.0756 6.53161 41.0166 6.42938C40.9265 6.27304 38.5759 7.03114 37.1863 7.66446C36.1157 8.15261 34.7415 8.74105 34.4264 8.8465C33.9116 9.01873 33.9981 9.55456 34.5653 9.70683C34.8953 9.79552 35.5777 9.59257 36.6552 9.08574C37.535 8.6719 38.317 8.33322 38.3928 8.33322C38.5289 8.33322 39.2304 8.02053 40.7992 7.26093C41.2408 7.04703 41.9182 6.80392 42.3046 6.72102C42.9738 6.57692 44.0063 6.16394 44.7606 5.73807C44.9523 5.62983 45.3375 5.54135 45.6165 5.54135C45.8955 5.54135 46.2807 5.45652 46.4724 5.35279C47.4127 4.84403 48.3804 4.46756 48.7477 4.46756C49.2943 4.46756 49.9707 4.06424 49.8308 3.82199C49.769 3.71482 49.5857 3.68175 49.4237 3.74833C49.2617 3.81469 49.1291 3.76229 49.1291 3.6315C49.1291 3.50071 48.9484 3.39376 48.7276 3.39376C48.5068 3.39376 48.3258 3.46635 48.3252 3.55483ZM155.806 4.47636C155.605 4.82513 156.179 5.28042 157.04 5.45309C158.009 5.64766 158.218 5.50355 157.786 4.93788C157.352 4.36963 156.044 4.06488 155.806 4.47636ZM69.5149 5.30447C69.4515 5.41422 69.0388 5.56927 68.5978 5.64895C67.7626 5.79992 67.6225 5.97946 68.0468 6.35508C68.33 6.6057 69.4017 6.45193 69.4017 6.1605C69.4017 6.05635 69.5372 5.97087 69.7028 5.97087C69.8683 5.97087 70.0038 5.83171 70.0038 5.6614C70.0038 5.27763 69.6708 5.03431 69.5149 5.30447ZM67.3945 6.4951C67.3945 6.84172 67.6787 7.09836 67.8545 6.91044C68.0111 6.74293 67.7953 6.18563 67.5737 6.18563C67.4752 6.18563 67.3945 6.32479 67.3945 6.4951ZM0.00474594 14.4328C-0.0263655 14.9027 0.0962735 15.3421 0.34938 15.6673C0.628178 16.025 0.745398 16.0783 0.752223 15.8498C0.760251 15.5831 0.792166 15.5786 0.937286 15.8236C1.03544 15.9896 1.2203 16.0482 1.35799 15.9572C1.5264 15.8459 1.40135 15.6578 0.960168 15.3591C0.41622 14.9903 0.334527 14.8288 0.430872 14.3128C0.506744 13.9075 0.462385 13.7024 0.2992 13.7026C0.163113 13.7029 0.0316423 14.0286 0.00474594 14.4328Z" fill="#FF0481"/>
</svg>
