<svg width="191" height="107" viewBox="0 0 191 107" fill="none" xmlns="http://www.w3.org/2000/svg">
<path d="M128.836 73.1835C125.693 73.1835 122.74 72.3724 119.977 70.7501C117.214 69.1279 114.971 66.8086 113.247 63.7922C111.549 60.7759 110.7 57.2019 110.7 53.0702C110.7 48.9386 111.549 45.4026 113.247 42.4623C114.945 39.4966 117.176 37.228 119.939 35.6565C122.702 34.085 125.667 33.2992 128.836 33.2992C131.979 33.2992 134.716 33.9329 137.048 35.2002C139.38 36.4423 141.256 38.1279 142.675 40.2571C144.12 42.3863 145.058 44.7943 145.489 47.4811C145.945 50.1426 145.857 52.8928 145.223 55.7317H120.319V49.5723H136.326L134.577 50.7129C134.653 49.8258 134.615 48.9259 134.463 48.0134C134.336 47.1009 134.07 46.2644 133.664 45.504C133.259 44.7182 132.676 44.0972 131.915 43.641C131.18 43.1594 130.23 42.9186 129.064 42.9186C127.771 42.9186 126.643 43.2354 125.68 43.8691C124.742 44.4774 124.007 45.3773 123.475 46.5686C122.968 47.7346 122.714 49.1667 122.714 50.865V55.6557C122.714 57.2526 122.942 58.634 123.399 59.8C123.855 60.966 124.527 61.8785 125.414 62.5375C126.326 63.1712 127.467 63.4881 128.836 63.4881C129.951 63.4881 130.927 63.2599 131.763 62.8037C132.6 62.3474 133.183 61.625 133.512 60.6365H145.603C145.223 62.9684 144.285 65.0849 142.789 66.986C141.319 68.8871 139.393 70.3953 137.01 71.5105C134.653 72.6258 131.928 73.1835 128.836 73.1835Z" fill="white"/>
<path d="M102.978 33.3267C106.12 33.3267 108.858 33.9607 111.189 35.228C113.521 36.47 115.397 38.1555 116.816 40.2847C118.261 42.4138 119.2 44.8215 119.631 47.5083C120.087 50.1698 119.998 52.9204 119.364 55.7593H96.8564C96.8636 57.3239 97.0911 58.6803 97.54 59.8276C97.9963 60.9935 98.6686 61.906 99.5557 62.5649C100.468 63.1985 101.609 63.5151 102.978 63.5151C104.093 63.5151 105.068 63.2867 105.904 62.8306C106.741 62.3743 107.324 61.6521 107.653 60.6636H119.744C119.364 62.9955 118.426 65.1121 116.931 67.0132C115.461 68.9142 113.534 70.4223 111.151 71.5376C108.794 72.6528 106.07 73.2104 102.978 73.2104C99.8345 73.2104 96.881 72.4 94.1182 70.7778C91.988 69.5271 90.1687 67.8602 88.6562 65.7808L99.7549 33.7222H99.1953C100.422 33.4598 101.683 33.3267 102.978 33.3267ZM103.205 42.9458C101.912 42.9458 100.784 43.2624 99.8213 43.896C98.8834 44.5043 98.1485 45.4049 97.6162 46.5962C97.2435 47.4536 97.0088 48.4549 96.9102 49.6001H108.752C108.74 49.0845 108.692 48.5645 108.604 48.0405C108.478 47.1282 108.211 46.292 107.806 45.5317C107.4 44.746 106.817 44.1247 106.057 43.6685C105.322 43.1869 104.371 42.9458 103.205 42.9458Z" fill="white"/>
<path d="M55.0363 33.6367H69.8624L76.2964 62.0902H75.7369L82.1709 33.6367H96.9571L83.3299 73H68.6635L55.0363 33.6367Z" fill="white"/>
<path d="M6.7537 74V34.397H19.5418V74H6.7537ZM16.8243 57.2157C16.8243 51.8607 17.5037 47.4648 18.8624 44.028C20.2211 40.5912 21.9395 38.0469 24.0176 36.3951C26.0956 34.7433 28.2137 33.9174 30.3716 33.9174C30.7979 33.9174 31.2242 33.9441 31.6505 33.9973C32.0767 34.024 32.4763 34.0773 32.8493 34.1572L32.9692 47.0252C32.3032 46.9453 31.6238 46.892 30.9311 46.8653C30.2384 46.812 29.5857 46.7854 28.973 46.7854C27.108 46.7854 25.4562 47.1317 24.0176 47.8244C22.6056 48.5171 21.4999 49.6228 20.7007 51.1413C19.9281 52.6599 19.5418 54.6847 19.5418 57.2157H16.8243Z" fill="white"/>
<path d="M66.3046 73.3633H51.4784L45.0444 44.9098H45.6039L39.1699 73.3633H24.3837L38.011 34H52.6773L66.3046 73.3633Z" fill="white"/>
<path d="M173.006 74V51.0614C173.006 48.9834 172.499 47.4515 171.487 46.4657C170.475 45.4533 169.249 44.9471 167.811 44.9471C166.345 44.9471 165 45.3601 163.774 46.186C162.549 47.0119 161.563 48.344 160.817 50.1822C160.098 51.9939 159.738 54.405 159.738 57.4155H155.862C155.862 51.7674 156.528 47.1717 157.86 43.6284C159.219 40.085 161.057 37.4874 163.375 35.8356C165.719 34.1838 168.37 33.3579 171.327 33.3579C174.711 33.3579 177.468 34.1172 179.6 35.6358C181.757 37.1544 183.343 39.2458 184.355 41.91C185.367 44.5741 185.874 47.6246 185.874 51.0614V74H173.006ZM146.95 74V34.6367H158.219L159.738 41.1507V74H146.95Z" fill="white"/>
</svg>
