<svg width="579" height="375" viewBox="0 0 579 375" fill="none" xmlns="http://www.w3.org/2000/svg">
<g clip-path="url(#clip0_639_49713)">
<path d="M-70.2246 177.197V196.094H-72.9492V174.15H-70.459L-70.2246 177.197ZM-59.5459 181.943V182.251C-59.5459 183.403 -59.6826 184.473 -59.9561 185.459C-60.2295 186.436 -60.6299 187.285 -61.1572 188.008C-61.6748 188.73 -62.3145 189.292 -63.0762 189.692C-63.8379 190.093 -64.7119 190.293 -65.6982 190.293C-66.7041 190.293 -67.5928 190.127 -68.3643 189.795C-69.1357 189.463 -69.79 188.979 -70.3271 188.345C-70.8643 187.71 -71.2939 186.948 -71.6162 186.06C-71.9287 185.171 -72.1436 184.17 -72.2607 183.057V181.416C-72.1436 180.244 -71.9238 179.194 -71.6016 178.267C-71.2793 177.339 -70.8545 176.548 -70.3271 175.894C-69.79 175.229 -69.1406 174.727 -68.3789 174.385C-67.6172 174.033 -66.7383 173.857 -65.7422 173.857C-64.7461 173.857 -63.8623 174.053 -63.0908 174.443C-62.3193 174.824 -61.6699 175.371 -61.1426 176.084C-60.6152 176.797 -60.2197 177.651 -59.9561 178.647C-59.6826 179.634 -59.5459 180.732 -59.5459 181.943ZM-62.2705 182.251V181.943C-62.2705 181.152 -62.3535 180.41 -62.5195 179.717C-62.6855 179.014 -62.9443 178.398 -63.2959 177.871C-63.6377 177.334 -64.0771 176.914 -64.6143 176.611C-65.1514 176.299 -65.791 176.143 -66.5332 176.143C-67.2168 176.143 -67.8125 176.26 -68.3203 176.494C-68.8184 176.729 -69.2432 177.046 -69.5947 177.446C-69.9463 177.837 -70.2344 178.286 -70.459 178.794C-70.6738 179.292 -70.835 179.81 -70.9424 180.347V184.141C-70.7471 184.824 -70.4736 185.469 -70.1221 186.074C-69.7705 186.67 -69.3018 187.153 -68.7158 187.524C-68.1299 187.886 -67.3926 188.066 -66.5039 188.066C-65.7715 188.066 -65.1416 187.915 -64.6143 187.612C-64.0771 187.3 -63.6377 186.875 -63.2959 186.338C-62.9443 185.801 -62.6855 185.186 -62.5195 184.492C-62.3535 183.789 -62.2705 183.042 -62.2705 182.251ZM-49.5117 190.293C-50.6152 190.293 -51.6162 190.107 -52.5146 189.736C-53.4033 189.355 -54.1699 188.823 -54.8145 188.14C-55.4492 187.456 -55.9375 186.646 -56.2793 185.708C-56.6211 184.771 -56.792 183.745 -56.792 182.632V182.017C-56.792 180.728 -56.6016 179.58 -56.2207 178.574C-55.8398 177.559 -55.3223 176.699 -54.668 175.996C-54.0137 175.293 -53.2715 174.761 -52.4414 174.399C-51.6113 174.038 -50.752 173.857 -49.8633 173.857C-48.7305 173.857 -47.7539 174.053 -46.9336 174.443C-46.1035 174.834 -45.4248 175.381 -44.8975 176.084C-44.3701 176.777 -43.9795 177.598 -43.7256 178.545C-43.4717 179.482 -43.3447 180.508 -43.3447 181.621V182.837H-55.1807V180.625H-46.0547V180.42C-46.0938 179.717 -46.2402 179.033 -46.4941 178.369C-46.7383 177.705 -47.1289 177.158 -47.666 176.729C-48.2031 176.299 -48.9355 176.084 -49.8633 176.084C-50.4785 176.084 -51.0449 176.216 -51.5625 176.479C-52.0801 176.733 -52.5244 177.114 -52.8955 177.622C-53.2666 178.13 -53.5547 178.75 -53.7598 179.482C-53.9648 180.215 -54.0674 181.06 -54.0674 182.017V182.632C-54.0674 183.384 -53.9648 184.092 -53.7598 184.756C-53.5449 185.41 -53.2373 185.986 -52.8369 186.484C-52.4268 186.982 -51.9336 187.373 -51.3574 187.656C-50.7715 187.939 -50.1074 188.081 -49.3652 188.081C-48.4082 188.081 -47.5977 187.886 -46.9336 187.495C-46.2695 187.104 -45.6885 186.582 -45.1904 185.928L-43.5498 187.231C-43.8916 187.749 -44.3262 188.242 -44.8535 188.711C-45.3809 189.18 -46.0303 189.561 -46.8018 189.854C-47.5635 190.146 -48.4668 190.293 -49.5117 190.293ZM-37.251 185.708L-29.9414 174.15H-27.2168V190H-29.9414V178.442L-37.251 190H-39.9463V174.15H-37.251V185.708ZM-31.4209 168.408H-29.2236C-29.2236 169.17 -29.3994 169.849 -29.751 170.444C-30.1025 171.03 -30.6055 171.489 -31.2598 171.821C-31.9141 172.153 -32.6904 172.319 -33.5889 172.319C-34.9463 172.319 -36.0205 171.958 -36.8115 171.235C-37.5928 170.503 -37.9834 169.561 -37.9834 168.408H-35.7861C-35.7861 168.984 -35.6201 169.492 -35.2881 169.932C-34.9561 170.371 -34.3896 170.591 -33.5889 170.591C-32.8076 170.591 -32.251 170.371 -31.9189 169.932C-31.5869 169.492 -31.4209 168.984 -31.4209 168.408ZM-15.4248 183.027H-20.625L-20.6543 180.859H-16.4062C-15.5664 180.859 -14.8682 180.776 -14.3115 180.61C-13.7451 180.444 -13.3203 180.195 -13.0371 179.863C-12.7539 179.531 -12.6123 179.121 -12.6123 178.633C-12.6123 178.252 -12.6953 177.92 -12.8613 177.637C-13.0176 177.344 -13.2568 177.104 -13.5791 176.919C-13.9014 176.724 -14.3018 176.582 -14.7803 176.494C-15.249 176.396 -15.8008 176.348 -16.4355 176.348H-19.9072V190H-22.6172V174.15H-16.4355C-15.4297 174.15 -14.5264 174.238 -13.7256 174.414C-12.915 174.59 -12.2266 174.858 -11.6602 175.22C-11.084 175.571 -10.6445 176.021 -10.3418 176.567C-10.0391 177.114 -9.8877 177.759 -9.8877 178.501C-9.8877 178.979 -9.98535 179.434 -10.1807 179.863C-10.376 180.293 -10.6641 180.674 -11.0449 181.006C-11.4258 181.338 -11.8945 181.611 -12.4512 181.826C-13.0078 182.031 -13.6475 182.163 -14.3701 182.222L-15.4248 183.027ZM-15.4248 190H-21.6064L-20.2588 187.803H-15.4248C-14.6729 187.803 -14.0479 187.71 -13.5498 187.524C-13.0518 187.329 -12.6807 187.056 -12.4365 186.704C-12.1826 186.343 -12.0557 185.913 -12.0557 185.415C-12.0557 184.917 -12.1826 184.492 -12.4365 184.141C-12.6807 183.779 -13.0518 183.506 -13.5498 183.32C-14.0479 183.125 -14.6729 183.027 -15.4248 183.027H-19.541L-19.5117 180.859H-14.3701L-13.3887 181.68C-12.5195 181.748 -11.7822 181.963 -11.1768 182.324C-10.5713 182.686 -10.1123 183.145 -9.7998 183.701C-9.4873 184.248 -9.33105 184.844 -9.33105 185.488C-9.33105 186.23 -9.47266 186.885 -9.75586 187.451C-10.0293 188.018 -10.4297 188.491 -10.957 188.872C-11.4844 189.243 -12.124 189.526 -12.876 189.722C-13.6279 189.907 -14.4775 190 -15.4248 190ZM21.3574 178.237V180.464H1.78711V178.237H21.3574ZM38.54 182.427H35.625V180.757H38.3203C39.0723 180.757 39.668 180.664 40.1074 180.479C40.5469 180.283 40.8594 180.015 41.0449 179.673C41.2305 179.331 41.3232 178.931 41.3232 178.472C41.3232 178.062 41.2158 177.676 41.001 177.314C40.7959 176.943 40.4639 176.646 40.0049 176.421C39.5459 176.187 38.9307 176.069 38.1592 176.069C37.5342 176.069 36.9678 176.182 36.46 176.406C35.9521 176.621 35.5469 176.919 35.2441 177.3C34.9512 177.671 34.8047 178.091 34.8047 178.56H32.0947C32.0947 177.593 32.3682 176.763 32.915 176.069C33.4717 175.366 34.209 174.824 35.127 174.443C36.0547 174.062 37.0654 173.872 38.1592 173.872C39.0771 173.872 39.8975 173.975 40.6201 174.18C41.3525 174.375 41.9727 174.668 42.4805 175.059C42.9883 175.439 43.374 175.918 43.6377 176.494C43.9111 177.061 44.0479 177.72 44.0479 178.472C44.0479 179.009 43.9209 179.517 43.667 179.995C43.4131 180.474 43.0469 180.898 42.5684 181.27C42.0898 181.631 41.5088 181.914 40.8252 182.119C40.1514 182.324 39.3896 182.427 38.54 182.427ZM35.625 181.401H38.54C39.4873 181.401 40.3223 181.494 41.0449 181.68C41.7676 181.855 42.373 182.119 42.8613 182.471C43.3496 182.822 43.7158 183.257 43.96 183.774C44.2139 184.282 44.3408 184.868 44.3408 185.532C44.3408 186.274 44.1895 186.943 43.8867 187.539C43.5938 188.125 43.1738 188.623 42.627 189.033C42.0801 189.443 41.4258 189.756 40.6641 189.971C39.9121 190.186 39.0771 190.293 38.1592 190.293C37.1338 190.293 36.1377 190.117 35.1709 189.766C34.2041 189.414 33.4082 188.872 32.7832 188.14C32.1582 187.397 31.8457 186.455 31.8457 185.312H34.5557C34.5557 185.791 34.707 186.245 35.0098 186.675C35.3125 187.104 35.7324 187.451 36.2695 187.715C36.8164 187.979 37.4463 188.11 38.1592 188.11C38.9209 188.11 39.5557 187.993 40.0635 187.759C40.5713 187.524 40.9521 187.212 41.2061 186.821C41.4697 186.431 41.6016 186.006 41.6016 185.547C41.6016 184.951 41.4844 184.473 41.25 184.111C41.0156 183.75 40.6543 183.486 40.166 183.32C39.6875 183.145 39.0723 183.057 38.3203 183.057H35.625V181.401ZM57.2021 187.29V179.131C57.2021 178.506 57.0752 177.964 56.8213 177.505C56.5771 177.036 56.2061 176.675 55.708 176.421C55.21 176.167 54.5947 176.04 53.8623 176.04C53.1787 176.04 52.5781 176.157 52.0605 176.392C51.5527 176.626 51.1523 176.934 50.8594 177.314C50.5762 177.695 50.4346 178.105 50.4346 178.545H47.7246C47.7246 177.979 47.8711 177.417 48.1641 176.86C48.457 176.304 48.877 175.801 49.4238 175.352C49.9805 174.893 50.6445 174.531 51.416 174.268C52.1973 173.994 53.0664 173.857 54.0234 173.857C55.1758 173.857 56.1914 174.053 57.0703 174.443C57.959 174.834 58.6523 175.425 59.1504 176.216C59.6582 176.997 59.9121 177.979 59.9121 179.16V186.543C59.9121 187.07 59.9561 187.632 60.0439 188.228C60.1416 188.823 60.2832 189.336 60.4688 189.766V190H57.6416C57.5049 189.688 57.3975 189.272 57.3193 188.755C57.2412 188.228 57.2021 187.739 57.2021 187.29ZM57.6709 180.391L57.7002 182.295H54.9609C54.1895 182.295 53.501 182.358 52.8955 182.485C52.29 182.603 51.7822 182.783 51.3721 183.027C50.9619 183.271 50.6494 183.579 50.4346 183.95C50.2197 184.312 50.1123 184.736 50.1123 185.225C50.1123 185.723 50.2246 186.177 50.4492 186.587C50.6738 186.997 51.0107 187.324 51.46 187.568C51.9189 187.803 52.4805 187.92 53.1445 187.92C53.9746 187.92 54.707 187.744 55.3418 187.393C55.9766 187.041 56.4795 186.611 56.8506 186.104C57.2314 185.596 57.4365 185.103 57.4658 184.624L58.623 185.928C58.5547 186.338 58.3691 186.792 58.0664 187.29C57.7637 187.788 57.3584 188.267 56.8506 188.726C56.3525 189.175 55.7568 189.551 55.0635 189.854C54.3799 190.146 53.6084 190.293 52.749 190.293C51.6748 190.293 50.7324 190.083 49.9219 189.663C49.1211 189.243 48.4961 188.682 48.0469 187.979C47.6074 187.266 47.3877 186.47 47.3877 185.591C47.3877 184.741 47.5537 183.994 47.8857 183.35C48.2178 182.695 48.6963 182.153 49.3213 181.724C49.9463 181.284 50.6982 180.952 51.5771 180.728C52.4561 180.503 53.4375 180.391 54.5215 180.391H57.6709ZM71.6162 183.027H66.416L66.3867 180.859H70.6348C71.4746 180.859 72.1729 180.776 72.7295 180.61C73.2959 180.444 73.7207 180.195 74.0039 179.863C74.2871 179.531 74.4287 179.121 74.4287 178.633C74.4287 178.252 74.3457 177.92 74.1797 177.637C74.0234 177.344 73.7842 177.104 73.4619 176.919C73.1396 176.724 72.7393 176.582 72.2607 176.494C71.792 176.396 71.2402 176.348 70.6055 176.348H67.1338V190H64.4238V174.15H70.6055C71.6113 174.15 72.5146 174.238 73.3154 174.414C74.126 174.59 74.8145 174.858 75.3809 175.22C75.957 175.571 76.3965 176.021 76.6992 176.567C77.002 177.114 77.1533 177.759 77.1533 178.501C77.1533 178.979 77.0557 179.434 76.8604 179.863C76.665 180.293 76.377 180.674 75.9961 181.006C75.6152 181.338 75.1465 181.611 74.5898 181.826C74.0332 182.031 73.3936 182.163 72.6709 182.222L71.6162 183.027ZM71.6162 190H65.4346L66.7822 187.803H71.6162C72.3682 187.803 72.9932 187.71 73.4912 187.524C73.9893 187.329 74.3604 187.056 74.6045 186.704C74.8584 186.343 74.9854 185.913 74.9854 185.415C74.9854 184.917 74.8584 184.492 74.6045 184.141C74.3604 183.779 73.9893 183.506 73.4912 183.32C72.9932 183.125 72.3682 183.027 71.6162 183.027H67.5L67.5293 180.859H72.6709L73.6523 181.68C74.5215 181.748 75.2588 181.963 75.8643 182.324C76.4697 182.686 76.9287 183.145 77.2412 183.701C77.5537 184.248 77.71 184.844 77.71 185.488C77.71 186.23 77.5684 186.885 77.2852 187.451C77.0117 188.018 76.6113 188.491 76.084 188.872C75.5566 189.243 74.917 189.526 74.165 189.722C73.4131 189.907 72.5635 190 71.6162 190ZM87.627 174.15V190H84.9023V174.15H87.627ZM92.9443 174.15V176.348H79.6875V174.15H92.9443ZM98.3203 177.197V196.094H95.5957V174.15H98.0859L98.3203 177.197ZM108.999 181.943V182.251C108.999 183.403 108.862 184.473 108.589 185.459C108.315 186.436 107.915 187.285 107.388 188.008C106.87 188.73 106.23 189.292 105.469 189.692C104.707 190.093 103.833 190.293 102.847 190.293C101.841 190.293 100.952 190.127 100.181 189.795C99.4092 189.463 98.7549 188.979 98.2178 188.345C97.6807 187.71 97.251 186.948 96.9287 186.06C96.6162 185.171 96.4014 184.17 96.2842 183.057V181.416C96.4014 180.244 96.6211 179.194 96.9434 178.267C97.2656 177.339 97.6904 176.548 98.2178 175.894C98.7549 175.229 99.4043 174.727 100.166 174.385C100.928 174.033 101.807 173.857 102.803 173.857C103.799 173.857 104.683 174.053 105.454 174.443C106.226 174.824 106.875 175.371 107.402 176.084C107.93 176.797 108.325 177.651 108.589 178.647C108.862 179.634 108.999 180.732 108.999 181.943ZM106.274 182.251V181.943C106.274 181.152 106.191 180.41 106.025 179.717C105.859 179.014 105.601 178.398 105.249 177.871C104.907 177.334 104.468 176.914 103.931 176.611C103.394 176.299 102.754 176.143 102.012 176.143C101.328 176.143 100.732 176.26 100.225 176.494C99.7266 176.729 99.3018 177.046 98.9502 177.446C98.5986 177.837 98.3105 178.286 98.0859 178.794C97.8711 179.292 97.71 179.81 97.6025 180.347V184.141C97.7979 184.824 98.0713 185.469 98.4229 186.074C98.7744 186.67 99.2432 187.153 99.8291 187.524C100.415 187.886 101.152 188.066 102.041 188.066C102.773 188.066 103.403 187.915 103.931 187.612C104.468 187.3 104.907 186.875 105.249 186.338C105.601 185.801 105.859 185.186 106.025 184.492C106.191 183.789 106.274 183.042 106.274 182.251ZM121.802 187.29V179.131C121.802 178.506 121.675 177.964 121.421 177.505C121.177 177.036 120.806 176.675 120.308 176.421C119.81 176.167 119.194 176.04 118.462 176.04C117.778 176.04 117.178 176.157 116.66 176.392C116.152 176.626 115.752 176.934 115.459 177.314C115.176 177.695 115.034 178.105 115.034 178.545H112.324C112.324 177.979 112.471 177.417 112.764 176.86C113.057 176.304 113.477 175.801 114.023 175.352C114.58 174.893 115.244 174.531 116.016 174.268C116.797 173.994 117.666 173.857 118.623 173.857C119.775 173.857 120.791 174.053 121.67 174.443C122.559 174.834 123.252 175.425 123.75 176.216C124.258 176.997 124.512 177.979 124.512 179.16V186.543C124.512 187.07 124.556 187.632 124.644 188.228C124.741 188.823 124.883 189.336 125.068 189.766V190H122.241C122.104 189.688 121.997 189.272 121.919 188.755C121.841 188.228 121.802 187.739 121.802 187.29ZM122.271 180.391L122.3 182.295H119.561C118.789 182.295 118.101 182.358 117.495 182.485C116.89 182.603 116.382 182.783 115.972 183.027C115.562 183.271 115.249 183.579 115.034 183.95C114.819 184.312 114.712 184.736 114.712 185.225C114.712 185.723 114.824 186.177 115.049 186.587C115.273 186.997 115.61 187.324 116.06 187.568C116.519 187.803 117.08 187.92 117.744 187.92C118.574 187.92 119.307 187.744 119.941 187.393C120.576 187.041 121.079 186.611 121.45 186.104C121.831 185.596 122.036 185.103 122.065 184.624L123.223 185.928C123.154 186.338 122.969 186.792 122.666 187.29C122.363 187.788 121.958 188.267 121.45 188.726C120.952 189.175 120.356 189.551 119.663 189.854C118.979 190.146 118.208 190.293 117.349 190.293C116.274 190.293 115.332 190.083 114.521 189.663C113.721 189.243 113.096 188.682 112.646 187.979C112.207 187.266 111.987 186.47 111.987 185.591C111.987 184.741 112.153 183.994 112.485 183.35C112.817 182.695 113.296 182.153 113.921 181.724C114.546 181.284 115.298 180.952 116.177 180.728C117.056 180.503 118.037 180.391 119.121 180.391H122.271Z" fill="black"/>
<circle cx="391.688" cy="187.511" r="186.5" fill="#FF0481" stroke="black" stroke-width="2"/>
<circle cx="391.688" cy="187.511" r="55.5" fill="black" stroke="black" stroke-width="2"/>
<circle cx="392.312" cy="188.136" r="13.125" fill="white" stroke="black" stroke-width="2"/>
<path d="M1.1878 24.0165V355.516V361.011C1.1878 369.011 10.8543 373.678 15.6875 375.011H379.188C387.987 375.811 391.521 371.011 392.188 368.511V243.511C339.688 198.011 369.021 146.178 392.188 131.511V7.51114C392.188 1.51105 389.521 -0.155527 386.688 0.0111397H23.1881C7.18753 0.0111397 -0.312205 12.1832 1.1878 24.0165Z" fill="#FF0481" stroke="black" stroke-width="2"/>
</g>
<defs>
<clipPath id="clip0_639_49713">
<rect width="1440" height="778" fill="white" transform="translate(-708 -52)"/>
</clipPath>
</defs>
</svg>
